<svg width="270" height="50" viewBox="0 0 270 50" fill="none" xmlns="http://www.w3.org/2000/svg">
<path d="M254.785 8.28944L258.413 13.4447L265.287 3.49545L260.765 0.185547L254.785 8.28944Z" fill="white"/>
<path d="M258.769 14.7334V20.8162L268.368 23.9406L270 18.5998L258.769 14.7334Z" fill="white"/>
<path d="M245.195 0L240.482 3.49541L250.081 16.9401V33.3333H255.879V14.919L245.195 0Z" fill="white"/>
<path d="M247.182 14.7334V20.8162L237.583 24.1261L235.778 18.5998L247.182 14.7334Z" fill="white"/>
<path d="M0 41.2617L3.96452 40.92C4.2621 42.8825 4.94365 44.3568 6.00917 45.3429C7.0747 46.3291 8.3706 46.827 9.8777 46.827C11.692 46.827 13.2375 46.1338 14.495 44.7376C15.7525 43.3414 16.386 41.496 16.386 39.1918C16.386 37.0047 15.7813 35.2765 14.5718 34.0073C13.3622 32.738 11.7784 32.1131 9.8201 32.1131C8.60099 32.1131 7.50667 32.3962 6.52754 32.9528C5.54841 33.5191 4.78046 34.2416 4.2237 35.1398L0.671952 34.6712L3.64774 18.6099H18.9395V22.281H6.67153L5.01084 30.6876C6.85391 29.3792 8.79297 28.7251 10.8184 28.7251C13.5062 28.7251 15.7717 29.6722 17.6147 31.5663C19.4578 33.4605 20.3793 35.8917 20.3793 38.8598C20.3793 41.6913 19.573 44.1322 17.9507 46.2021C15.9829 48.7309 13.2855 50.0002 9.8777 50.0002C7.0843 50.0002 4.79966 49.1996 3.03338 47.6081C1.25751 46.0069 0.249582 43.8979 0 41.2617Z" fill="white"/>
<path d="M34.0871 49.4534V36.204L22.2319 18.1802H27.1852L33.2424 27.6119C34.3655 29.3792 35.4022 31.1366 36.3717 32.9039C37.2933 31.2636 38.4164 29.428 39.7315 27.3776L45.6927 18.1802H50.4347L38.1572 36.204V49.4534H34.0871Z" fill="white"/>
<path d="M87.1713 38.4886L91.2414 39.5333C90.3871 42.9311 88.8512 45.5283 86.6337 47.3053C84.4163 49.092 81.7093 49.9805 78.5031 49.9805C75.1914 49.9805 72.4939 49.2971 70.4205 47.9204C68.347 46.5437 66.7632 44.5616 65.6784 41.9547C64.5937 39.3478 64.0562 36.5554 64.0562 33.5677C64.0562 30.3066 64.6705 27.4654 65.8896 25.044C67.1087 22.6226 68.8558 20.7772 71.1116 19.5177C73.3675 18.2582 75.8537 17.6333 78.5703 17.6333C81.6421 17.6333 84.2339 18.4339 86.3266 20.0254C88.4192 21.6169 89.8879 23.8626 90.7135 26.7429L86.7105 27.6997C86.0002 25.4248 84.9635 23.7649 83.61 22.73C82.2565 21.695 80.5478 21.1678 78.4935 21.1678C76.1321 21.1678 74.1546 21.7438 72.5707 22.8959C70.9869 24.0481 69.8637 25.5907 69.2206 27.5337C68.5774 29.4767 68.251 31.4783 68.251 33.5384C68.251 36.1941 68.635 38.5179 69.3934 40.4999C70.1517 42.482 71.342 43.9661 72.9451 44.9522C74.5482 45.9383 76.2953 46.4265 78.1671 46.4265C80.4422 46.4265 82.3716 45.7626 83.9555 44.425C85.5394 43.1069 86.6145 41.1248 87.1713 38.4886Z" fill="white"/>
<path d="M92.8733 49.4534L104.68 18.1802H109.067L121.652 49.4534H117.016L113.425 39.9826H100.572L97.193 49.4534H92.8733ZM101.753 36.6141H112.178L108.971 27.9537C107.992 25.3272 107.263 23.1597 106.792 21.4705C106.399 23.4721 105.852 25.4639 105.132 27.4459L101.753 36.6141Z" fill="white"/>
<path d="M124.906 49.4534V18.1802H136.502C138.547 18.1802 140.102 18.2778 141.177 18.4829C142.684 18.7367 143.951 19.2249 144.978 19.9474C145.996 20.6699 146.821 21.6756 147.445 22.9644C148.069 24.263 148.377 25.6787 148.377 27.2311C148.377 29.8869 147.541 32.1423 145.881 33.9876C144.22 35.833 141.206 36.7508 136.857 36.7508H128.967V49.4631H124.906V49.4534ZM128.976 33.0503H136.925C139.555 33.0503 141.417 32.5524 142.521 31.5565C143.625 30.5606 144.182 29.1644 144.182 27.3581C144.182 26.0497 143.855 24.9269 143.203 23.9994C142.55 23.0718 141.695 22.4567 140.63 22.154C139.948 21.9685 138.681 21.8806 136.829 21.8806H128.967V33.0503H128.976Z" fill="white"/>
<path d="M154.251 49.4534V18.1802H158.321V49.4534H154.251Z" fill="white"/>
<path d="M173.316 49.4534V21.8709H163.188V18.1802H187.561V21.8709H177.386V49.4534H173.316Z" fill="white"/>
<path d="M185.171 49.4534L196.978 18.1802H201.365L213.95 49.4534H209.313L205.723 39.9826H192.87L189.491 49.4534H185.171ZM194.041 36.6141H204.466L201.259 27.9537C200.28 25.3272 199.551 23.1597 199.08 21.4705C198.687 23.4721 198.14 25.4639 197.42 27.4459L194.041 36.6141Z" fill="white"/>
<path d="M217.031 49.4534V18.1802H221.101V45.7627H236.249V49.4534H217.031Z" fill="white"/>
</svg>
