<svg width="253" height="325" viewBox="0 0 253 325" fill="none" xmlns="http://www.w3.org/2000/svg">
<path d="M3.81378 74.2076L192.277 180.56L228.363 169.349L181.643 18.9619L3.81378 74.2076Z" fill="#53F2D4" stroke="black" stroke-width="6" stroke-linecap="round" stroke-linejoin="round"/>
<path d="M3.81374 74.2076L59.0594 252.037L200.802 208.002L192.277 180.56L3.81374 74.2076Z" fill="#9AF3FF" stroke="black" stroke-width="6" stroke-linecap="round" stroke-linejoin="round"/>
<rect width="37.788" height="28.7358" transform="matrix(-0.954977 0.29668 0.29668 0.954977 228.363 169.35)" fill="#1D1E5F" stroke="black" stroke-width="6" stroke-linecap="round" stroke-linejoin="round"/>
<path d="M200.802 208.002L223.347 280.571L323.349 249.503L236.889 196.791L200.802 208.002Z" fill="#62A3FF" stroke="black" stroke-width="6" stroke-linecap="round" stroke-linejoin="round"/>
<path d="M228.363 169.349L236.889 196.791L323.349 249.503L292.279 149.492L228.363 169.349Z" fill="#9E59FF" stroke="black" stroke-width="6" stroke-linecap="round" stroke-linejoin="round"/>
<path d="M181.643 18.9621L228.363 169.349L292.279 149.493L181.643 18.9621Z" fill="#47DDDF" stroke="black" stroke-width="6" stroke-linecap="round" stroke-linejoin="round"/>
<path d="M59.0594 252.037L223.347 280.571L200.802 208.002L59.0594 252.037Z" fill="#87D4FF" stroke="black" stroke-width="6" stroke-linecap="round" stroke-linejoin="round"/>
</svg>
