<svg width="253" height="337" viewBox="0 0 253 337" fill="none" xmlns="http://www.w3.org/2000/svg">
<path d="M158.616 189.186L183.364 283.723L-10.2393 334.405L-60.926 140.783L33.6019 116.037L59.5405 215.122L158.616 189.186Z" fill="#FFBA68" stroke="black" stroke-width="5" stroke-linecap="round" stroke-linejoin="round"/>
<path d="M-60.926 140.783L-2.10304 50.1219L91.0631 25.7326L33.6019 116.037L-60.926 140.783Z" fill="#62A3FF" stroke="black" stroke-width="5" stroke-linecap="round" stroke-linejoin="round"/>
<path d="M59.5405 215.122L116.701 123.669L205.328 100.468L158.616 189.185L59.5405 215.122Z" fill="#62A3FF" stroke="black" stroke-width="5" stroke-linecap="round" stroke-linejoin="round"/>
<path d="M33.6019 116.037L91.0631 25.7323L116.701 123.669L59.5405 215.122L33.6019 116.037Z" fill="#1D1E5F" stroke="black" stroke-width="5" stroke-linecap="round" stroke-linejoin="round"/>
<path d="M205.328 100.469L230.195 195.459L183.364 283.723L158.616 189.186L205.328 100.469Z" fill="#1D1E5F" stroke="black" stroke-width="5" stroke-linecap="round" stroke-linejoin="round"/>
<path d="M112.816 274.193C115.05 273.608 114.15 270.135 111.908 270.722C109.665 271.309 110.582 274.777 112.816 274.193Z" stroke="black" stroke-width="5" stroke-linecap="round" stroke-linejoin="round"/>
<path d="M66.5179 286.313C68.7518 285.728 67.8521 282.255 65.6092 282.842C63.3664 283.429 64.284 286.898 66.5179 286.313Z" stroke="black" stroke-width="5" stroke-linecap="round" stroke-linejoin="round"/>
<path d="M142.816 286.748C145.05 286.164 144.142 282.693 141.908 283.277C139.674 283.862 140.574 287.336 142.816 286.748Z" stroke="black" stroke-width="5" stroke-linecap="round" stroke-linejoin="round"/>
<path d="M83.0105 255.225C85.2444 254.64 84.3357 251.169 82.1018 251.754C79.8679 252.339 80.7677 255.812 83.0105 255.225Z" stroke="black" stroke-width="5" stroke-linecap="round" stroke-linejoin="round"/>
<path d="M54.258 239.481C56.4919 238.896 55.5922 235.423 53.3494 236.01C51.1065 236.597 52.0241 240.066 54.258 239.481Z" stroke="black" stroke-width="5" stroke-linecap="round" stroke-linejoin="round"/>
<path d="M17.5229 299.139C19.7568 298.554 18.8481 295.083 16.6142 295.668C14.3803 296.253 15.2801 299.726 17.5229 299.139Z" stroke="black" stroke-width="5" stroke-linecap="round" stroke-linejoin="round"/>
<path d="M159.542 261.961C161.776 261.376 160.867 257.905 158.633 258.49C156.399 259.075 157.299 262.548 159.542 261.961Z" stroke="black" stroke-width="5" stroke-linecap="round" stroke-linejoin="round"/>
<path d="M11.2115 179.815C13.4454 179.23 12.5368 175.759 10.3029 176.344C8.06894 176.929 8.96869 180.402 11.2115 179.815Z" stroke="black" stroke-width="5" stroke-linecap="round" stroke-linejoin="round"/>
<path d="M0.978662 140.725C3.21259 140.14 2.30393 136.669 0.0700047 137.254C-2.16392 137.839 -1.26417 141.312 0.978662 140.725Z" stroke="black" stroke-width="5" stroke-linecap="round" stroke-linejoin="round"/>
<path d="M100.556 227.361C102.79 226.776 101.89 223.302 99.6477 223.89C97.4048 224.477 98.3224 227.945 100.556 227.361Z" stroke="black" stroke-width="5" stroke-linecap="round" stroke-linejoin="round"/>
<path d="M5.15584 251.898C7.38977 251.313 6.48111 247.842 4.24719 248.427C2.01326 249.012 2.91302 252.485 5.15584 251.898Z" stroke="black" stroke-width="5" stroke-linecap="round" stroke-linejoin="round"/>
<path d="M34.2914 267.979C36.5253 267.394 35.6166 263.923 33.3827 264.508C31.1488 265.093 32.0486 268.566 34.2914 267.979Z" stroke="black" stroke-width="5" stroke-linecap="round" stroke-linejoin="round"/>
<path d="M21.943 220.808C24.1769 220.223 23.2682 216.752 21.0343 217.337C18.8004 217.922 19.7001 221.395 21.943 220.808Z" stroke="black" stroke-width="5" stroke-linecap="round" stroke-linejoin="round"/>
<path d="M131.258 242.594C133.492 242.009 132.583 238.538 130.349 239.123C128.115 239.708 129.015 243.181 131.258 242.594Z" stroke="black" stroke-width="5" stroke-linecap="round" stroke-linejoin="round"/>
<path d="M31.5369 152.687C33.7709 152.102 32.8711 148.629 30.6283 149.216C28.3855 149.803 29.303 153.272 31.5369 152.687Z" stroke="black" stroke-width="5" stroke-linecap="round" stroke-linejoin="round"/>
<path d="M42.7367 195.47C44.9706 194.885 44.0709 191.412 41.8281 191.999C39.5853 192.586 40.5028 196.055 42.7367 195.47Z" stroke="black" stroke-width="5" stroke-linecap="round" stroke-linejoin="round"/>
<path d="M147.282 215.129C149.516 214.544 148.607 211.073 146.373 211.658C144.139 212.243 145.039 215.716 147.282 215.129Z" stroke="black" stroke-width="5" stroke-linecap="round" stroke-linejoin="round"/>
<path d="M94.5691 299.378C96.803 298.793 95.8943 295.322 93.6604 295.907C91.4265 296.492 92.3262 299.965 94.5691 299.378Z" stroke="black" stroke-width="5" stroke-linecap="round" stroke-linejoin="round"/>
<path d="M45.85 312.132C48.0839 311.547 47.1752 308.076 44.9413 308.661C42.7074 309.246 43.6071 312.719 45.85 312.132Z" stroke="black" stroke-width="5" stroke-linecap="round" stroke-linejoin="round"/>
<path d="M0.317085 324.052C2.55101 323.467 1.65125 319.994 -0.591574 320.581C-2.8344 321.168 -1.91684 324.637 0.317085 324.052Z" stroke="black" stroke-width="5" stroke-linecap="round" stroke-linejoin="round"/>
</svg>
