<svg width="200" height="47" viewBox="0 0 200 47" fill="none" xmlns="http://www.w3.org/2000/svg">
<path d="M18.1309 0.168457C19.1007 0.342691 20.0706 0.511305 21.0349 0.69116C25.6994 1.55109 28.4577 4.22643 29.0576 8.90266C29.3267 11.0103 29.2762 13.2248 28.9511 15.3212C28.4521 18.5642 26.4338 20.7337 23.3167 21.8241C22.8233 21.9983 22.3356 22.167 21.775 22.3637C21.9151 22.4873 21.9432 22.5323 21.9768 22.5435C27.9643 23.8756 29.7976 27.439 29.949 33.3123C29.9938 35.0378 29.8256 36.797 29.5117 38.4944C28.8053 42.2882 26.574 44.9242 22.8402 45.8966C20.4631 46.5148 17.9627 46.8352 15.5071 46.9082C10.3437 47.0656 5.16903 46.9701 0 46.9813C0 31.407 0 15.8327 0 0.168457C6.04362 0.168457 12.0872 0.168457 18.1309 0.168457ZM9.42984 33.1887C9.42984 35.2233 9.42984 37.2523 9.42984 39.2869C9.42984 39.8096 9.41302 40.3267 10.1643 40.2873C12.1433 40.1862 14.1448 40.2367 16.0958 39.9445C18.1981 39.6241 19.6782 38.2471 20.037 36.1394C20.3341 34.3746 20.4182 32.4974 20.1884 30.7269C19.8464 28.0909 18.3215 26.6858 15.6977 26.3205C14.027 26.09 12.3171 26.1631 10.6296 26.0395C9.72136 25.972 9.37938 26.2643 9.41302 27.2141C9.47469 29.2038 9.42984 31.199 9.42984 33.1887ZM9.42984 13.2417C9.42984 15.0233 9.39059 16.805 9.46347 18.5867C9.47469 18.9296 9.93441 19.531 10.1867 19.5366C12.0816 19.5478 13.999 19.5872 15.8659 19.3286C18.1589 19.0083 19.538 17.502 19.8744 15.192C20.2613 12.511 20.4294 9.79631 17.8393 7.99776C17.0993 7.48068 16.0845 7.22776 15.1707 7.12659C13.6178 6.95236 12.0368 7.01418 10.467 6.92988C9.64288 6.88491 9.3962 7.22776 9.41862 8.02587C9.46347 9.76259 9.42984 11.5049 9.42984 13.2417Z" fill="white"/>
<path d="M58.1152 0.168457C61.7537 13.5564 65.3922 26.9444 69.0307 40.3323C69.6138 42.4849 70.1969 44.6376 70.8079 46.8914C67.4442 46.8914 64.1981 46.8914 60.8511 46.8914C60.1167 43.9294 59.3318 40.973 58.659 37.9886C58.4292 36.9656 58.048 36.5722 56.9491 36.5947C53.3947 36.6678 49.8347 36.6678 46.2803 36.5947C45.1758 36.5722 44.6769 36.8757 44.4358 37.9942C43.8527 40.7032 43.1463 43.3898 42.4399 46.0764C42.3502 46.4193 41.9354 46.9251 41.6663 46.9307C38.7005 46.9925 35.7348 46.9701 32.6121 46.9701C33.4979 43.699 34.3388 40.5852 35.1798 37.4715C38.4819 25.2807 41.7896 13.0899 45.0917 0.899117C45.1534 0.663058 45.1702 0.415757 45.2039 0.174077C49.5039 0.168457 53.8096 0.168457 58.1152 0.168457ZM46.4204 29.7995C49.8515 29.7995 53.1312 29.7995 56.5567 29.7995C54.8804 22.5379 53.2265 15.3887 51.5726 8.23944C51.4549 8.23944 51.3372 8.23944 51.2138 8.24506C49.6273 15.3943 48.0351 22.5491 46.4204 29.7995Z" fill="white"/>
<path d="M85.1824 0.168457C85.1599 0.663058 85.1207 1.15766 85.1207 1.65226C85.1151 16.2036 85.1207 30.755 85.1207 45.312C85.1207 45.801 85.1207 46.29 85.1207 46.8745C81.9027 46.8745 78.7856 46.8745 75.5787 46.8745C75.5395 46.5654 75.4666 46.2506 75.4666 45.9415C75.461 30.8899 75.461 15.8439 75.4666 0.792328C75.4666 0.584371 75.489 0.376414 75.5002 0.174077C78.7295 0.168457 81.9531 0.168457 85.1824 0.168457Z" fill="white"/>
<path d="M101.822 0.742188H105.062C106.582 0.742188 107.686 0.972626 108.365 1.42788C109.043 1.88314 109.385 2.60256 109.385 3.59176C109.385 4.27184 109.194 4.83389 108.819 5.2779C108.437 5.72192 107.888 6.00856 107.159 6.13783V6.21652C108.903 6.51441 109.772 7.43054 109.772 8.97055C109.772 9.99909 109.424 10.7972 108.735 11.3761C108.039 11.955 107.075 12.2417 105.831 12.2417H101.833V0.742188H101.822ZM103.156 5.66009H105.354C106.296 5.66009 106.974 5.51396 107.383 5.21608C107.798 4.91819 108.006 4.41797 108.006 3.72103C108.006 3.07468 107.776 2.6138 107.316 2.32716C106.857 2.04051 106.122 1.9 105.119 1.9H103.156V5.66009ZM103.156 6.79543V11.0951H105.55C106.475 11.0951 107.17 10.9152 107.641 10.5555C108.107 10.1958 108.342 9.63376 108.342 8.86938C108.342 8.15558 108.101 7.63288 107.625 7.29565C107.148 6.95842 106.419 6.78981 105.438 6.78981H103.156V6.79543Z" fill="white"/>
<path d="M115.664 12.3933C114.391 12.3933 113.394 12.0055 112.659 11.2299C111.925 10.4543 111.555 9.37513 111.555 7.99812C111.555 6.60986 111.897 5.50825 112.581 4.68766C113.265 3.8727 114.178 3.4624 115.328 3.4624C116.404 3.4624 117.256 3.81649 117.884 4.53029C118.512 5.23847 118.826 6.17709 118.826 7.34052V8.16673H112.906C112.934 9.17841 113.186 9.94842 113.668 10.4711C114.15 10.9938 114.834 11.258 115.709 11.258C116.634 11.258 117.548 11.0669 118.456 10.6791V11.8425C117.996 12.0392 117.559 12.1854 117.15 12.2697C116.741 12.3484 116.247 12.3933 115.664 12.3933ZM115.311 4.55277C114.621 4.55277 114.072 4.77759 113.663 5.22723C113.253 5.67687 113.012 6.30074 112.939 7.09884H117.436C117.436 6.27825 117.251 5.64314 116.886 5.21037C116.516 4.77197 115.995 4.55277 115.311 4.55277Z" fill="white"/>
<path d="M124.965 3.4624C125.346 3.4624 125.688 3.49613 125.991 3.55795L125.812 4.76635C125.458 4.68766 125.144 4.64832 124.87 4.64832C124.174 4.64832 123.58 4.92934 123.087 5.49701C122.593 6.06468 122.347 6.76724 122.347 7.61031V12.2359H121.046V3.61415H122.123L122.274 5.21037H122.336C122.655 4.64832 123.036 4.21554 123.491 3.91204C123.933 3.61416 124.427 3.4624 124.965 3.4624Z" fill="white"/>
<path d="M130.381 11.314C130.611 11.314 130.835 11.2971 131.048 11.2634C131.261 11.2296 131.435 11.1959 131.558 11.1566V12.157C131.418 12.2245 131.21 12.2807 130.936 12.3256C130.661 12.3706 130.414 12.3931 130.196 12.3931C128.531 12.3931 127.701 11.5163 127.701 9.75709V4.63122H126.468V4.00173L127.701 3.45654L128.25 1.61865H129.002V3.61392H131.496V4.6256H129.002V9.69526C129.002 10.2123 129.125 10.6114 129.372 10.8924C129.613 11.1734 129.949 11.314 130.381 11.314Z" fill="white"/>
<path d="M136.907 12.3933C135.634 12.3933 134.636 12.0055 133.902 11.2299C133.167 10.4543 132.797 9.37513 132.797 7.99812C132.797 6.60986 133.139 5.50825 133.823 4.68766C134.507 3.8727 135.421 3.4624 136.57 3.4624C137.647 3.4624 138.499 3.81649 139.127 4.53029C139.755 5.23847 140.069 6.17709 140.069 7.34052V8.16673H134.148C134.176 9.17841 134.429 9.94842 134.911 10.4711C135.393 10.9938 136.077 11.258 136.951 11.258C137.876 11.258 138.79 11.0669 139.698 10.6791V11.8425C139.239 12.0392 138.801 12.1854 138.392 12.2697C137.977 12.3484 137.484 12.3933 136.907 12.3933ZM136.553 4.55277C135.864 4.55277 135.314 4.77759 134.905 5.22723C134.496 5.67687 134.255 6.30074 134.182 7.09884H138.678C138.678 6.27825 138.493 5.64314 138.129 5.21037C137.753 4.77197 137.232 4.55277 136.553 4.55277Z" fill="white"/>
<path d="M143.584 12.2358H142.283V0H143.584V12.2358Z" fill="white"/>
<path d="M151.892 9.88097C151.892 10.6847 151.595 11.3029 151.001 11.7357C150.407 12.1685 149.566 12.3877 148.489 12.3877C147.351 12.3877 146.46 12.2078 145.821 11.8425V10.6341C146.235 10.8421 146.678 11.0107 147.149 11.1287C147.62 11.2524 148.08 11.3086 148.517 11.3086C149.196 11.3086 149.717 11.2018 150.087 10.9826C150.451 10.7634 150.636 10.4318 150.636 9.98776C150.636 9.65053 150.491 9.36389 150.199 9.12783C149.908 8.89177 149.341 8.60513 148.5 8.28476C147.699 7.98688 147.132 7.72271 146.796 7.50352C146.46 7.2787 146.207 7.02578 146.045 6.74475C145.882 6.46373 145.798 6.1265 145.798 5.73307C145.798 5.03051 146.084 4.47409 146.65 4.06941C147.222 3.66474 148.001 3.4624 148.994 3.4624C149.919 3.4624 150.821 3.6535 151.707 4.03007L151.242 5.09234C150.378 4.73825 149.599 4.55839 148.898 4.55839C148.282 4.55839 147.816 4.65394 147.502 4.85066C147.188 5.04737 147.031 5.31154 147.031 5.65438C147.031 5.88482 147.093 6.08154 147.205 6.24453C147.323 6.40753 147.514 6.55928 147.772 6.71103C148.035 6.85716 148.534 7.07074 149.28 7.34614C150.3 7.71709 150.99 8.09366 151.348 8.47024C151.713 8.83557 151.892 9.31331 151.892 9.88097Z" fill="white"/>
<path d="M164.966 12.2357V6.63211C164.966 5.94641 164.82 5.42933 164.529 5.08648C164.237 4.74363 163.783 4.56939 163.167 4.56939C162.354 4.56939 161.759 4.80545 161.373 5.27195C160.986 5.73845 160.79 6.45787 160.79 7.42459V12.2357H159.489V6.63211C159.489 5.94641 159.343 5.42933 159.052 5.08648C158.76 4.74363 158.3 4.56939 157.678 4.56939C156.859 4.56939 156.265 4.81669 155.884 5.30568C155.503 5.79466 155.318 6.59838 155.318 7.71685V12.2357H154.017V3.61392H155.077L155.29 4.79421H155.351C155.598 4.37268 155.946 4.04669 156.389 3.81063C156.837 3.57457 157.336 3.45654 157.891 3.45654C159.237 3.45654 160.111 3.94552 160.526 4.91786H160.588C160.846 4.46823 161.216 4.10852 161.703 3.84998C162.191 3.58581 162.746 3.45654 163.368 3.45654C164.338 3.45654 165.067 3.70946 165.555 4.20968C166.037 4.70991 166.278 5.51363 166.278 6.60962V12.2301H164.966V12.2357Z" fill="white"/>
<path d="M174.234 12.2357L173.976 11.0104H173.914C173.488 11.55 173.056 11.9153 172.63 12.1064C172.204 12.2975 171.671 12.3931 171.032 12.3931C170.18 12.3931 169.513 12.1739 169.031 11.7298C168.549 11.2914 168.308 10.662 168.308 9.85261C168.308 8.11027 169.698 7.19975 172.473 7.11544L173.931 7.07048V6.53654C173.931 5.86208 173.785 5.36186 173.493 5.04149C173.202 4.72113 172.737 4.55813 172.103 4.55813C171.386 4.55813 170.578 4.77733 169.67 5.22135L169.272 4.22091C169.698 3.99047 170.158 3.81061 170.662 3.67572C171.167 3.54645 171.671 3.479 172.182 3.479C173.208 3.479 173.964 3.70944 174.458 4.1647C174.951 4.61996 175.198 5.35062 175.198 6.35668V12.2357H174.234ZM171.296 11.3139C172.109 11.3139 172.742 11.0891 173.208 10.6451C173.673 10.2011 173.903 9.57721 173.903 8.77348V7.99786L172.602 8.05406C171.565 8.0934 170.819 8.25078 170.365 8.53742C169.905 8.82407 169.681 9.26808 169.681 9.86947C169.681 10.3416 169.821 10.7013 170.107 10.9486C170.382 11.1903 170.78 11.3139 171.296 11.3139Z" fill="white"/>
<path d="M183.764 12.2357V6.66021C183.764 5.95765 183.607 5.43495 183.288 5.08648C182.968 4.73801 182.469 4.56939 181.791 4.56939C180.894 4.56939 180.232 4.81107 179.812 5.30006C179.391 5.78904 179.184 6.59276 179.184 7.71685V12.2357H177.883V3.61392H178.943L179.156 4.79421H179.217C179.486 4.36706 179.856 4.04107 180.339 3.80501C180.821 3.57457 181.353 3.45654 181.948 3.45654C182.985 3.45654 183.764 3.70946 184.285 4.20968C184.807 4.70991 185.07 5.51363 185.07 6.60962V12.2301H183.764V12.2357Z" fill="white"/>
<path d="M193.62 12.2357V6.66021C193.62 5.95765 193.463 5.43495 193.144 5.08648C192.824 4.73801 192.325 4.56939 191.647 4.56939C190.75 4.56939 190.088 4.81107 189.668 5.30006C189.247 5.78904 189.04 6.59276 189.04 7.71685V12.2357H187.739V3.61392H188.799L189.012 4.79421H189.073C189.342 4.36706 189.712 4.04107 190.195 3.80501C190.677 3.57457 191.209 3.45654 191.804 3.45654C192.841 3.45654 193.62 3.70946 194.141 4.20968C194.663 4.70991 194.926 5.51363 194.926 6.60962V12.2301H193.62V12.2357Z" fill="white"/>
<path d="M110.288 30.0469L109.458 27.3097H105.276L104.446 30.0469H101.828L105.875 18.5024H108.847L112.911 30.0469H110.288ZM108.875 25.2695C108.107 22.7909 107.675 21.3857 107.574 21.0654C107.479 20.7394 107.406 20.4808 107.367 20.2954C107.193 20.9642 106.7 22.6279 105.887 25.2751H108.875V25.2695Z" fill="white"/>
<path d="M120.278 27.439C120.278 28.3383 119.964 29.0296 119.342 29.5017C118.719 29.9738 117.783 30.2099 116.539 30.2099C115.899 30.2099 115.356 30.1649 114.907 30.0806C114.459 29.9963 114.038 29.867 113.646 29.6984V27.7144C114.089 27.9224 114.593 28.1022 115.148 28.2427C115.703 28.3832 116.197 28.4563 116.617 28.4563C117.486 28.4563 117.918 28.2034 117.918 27.7032C117.918 27.5121 117.862 27.3603 117.744 27.2423C117.626 27.1243 117.43 26.9894 117.15 26.8432C116.869 26.6915 116.488 26.5172 116.023 26.3205C115.35 26.0395 114.851 25.7753 114.537 25.5337C114.223 25.292 113.993 25.0166 113.848 24.7018C113.702 24.3927 113.635 24.0049 113.635 23.5496C113.635 22.7684 113.937 22.167 114.543 21.7399C115.148 21.3127 116 21.0991 117.11 21.0991C118.164 21.0991 119.196 21.3296 120.194 21.7904L119.471 23.5215C119.033 23.3304 118.619 23.1787 118.237 23.055C117.856 22.937 117.464 22.8752 117.071 22.8752C116.365 22.8752 116.012 23.0663 116.012 23.4485C116.012 23.6621 116.124 23.8475 116.354 24.0049C116.583 24.1623 117.077 24.3983 117.845 24.7018C118.529 24.9772 119.033 25.2414 119.353 25.4831C119.673 25.7248 119.908 26.0002 120.059 26.3149C120.2 26.6297 120.278 27.0062 120.278 27.439Z" fill="white"/>
<path d="M122.044 18.9859C122.044 18.2047 122.476 17.8169 123.345 17.8169C124.214 17.8169 124.646 18.2047 124.646 18.9859C124.646 19.3569 124.539 19.6492 124.32 19.8571C124.102 20.0651 123.777 20.1662 123.345 20.1662C122.476 20.1662 122.044 19.7728 122.044 18.9859ZM124.533 30.047H122.139V21.2622H124.533V30.047Z" fill="white"/>
<path d="M132.612 30.0469L132.147 28.8498H132.085C131.681 29.3556 131.267 29.7097 130.84 29.9064C130.414 30.1031 129.859 30.1987 129.175 30.1987C128.334 30.1987 127.673 29.957 127.185 29.4736C126.703 28.9903 126.462 28.3046 126.462 27.4109C126.462 26.4779 126.787 25.7922 127.437 25.3482C128.088 24.9042 129.069 24.6625 130.381 24.6119L131.9 24.567V24.1792C131.9 23.2855 131.446 22.8415 130.538 22.8415C129.837 22.8415 129.013 23.0551 128.065 23.4766L127.275 21.8579C128.284 21.3296 129.405 21.0654 130.633 21.0654C131.81 21.0654 132.713 21.324 133.341 21.8354C133.969 22.3469 134.283 23.1281 134.283 24.1792V30.0357H132.612V30.0469ZM131.906 25.9777L130.981 26.0114C130.285 26.0339 129.77 26.1576 129.428 26.388C129.086 26.6184 128.917 26.9725 128.917 27.439C128.917 28.1135 129.304 28.4507 130.078 28.4507C130.633 28.4507 131.076 28.2933 131.407 27.973C131.737 27.6526 131.906 27.2311 131.906 26.6971V25.9777Z" fill="white"/>
<path d="M101.822 46.3239V34.8301H104.255V46.3239H101.822Z" fill="white"/>
<path d="M115.047 46.324H112.654V41.1869C112.654 40.5518 112.541 40.0797 112.317 39.7593C112.093 39.4446 111.734 39.2816 111.241 39.2816C110.574 39.2816 110.086 39.5064 109.789 39.956C109.492 40.4057 109.34 41.1476 109.34 42.1873V46.324H106.946V37.5336H108.774L109.094 38.6577H109.228C109.497 38.2305 109.862 37.9102 110.333 37.6966C110.798 37.4774 111.33 37.3706 111.93 37.3706C112.951 37.3706 113.724 37.646 114.251 38.2024C114.778 38.7589 115.042 39.5513 115.042 40.5968V46.324H115.047Z" fill="white"/>
<path d="M119.594 46.3241L116.253 37.5337H118.753L120.446 42.5415C120.637 43.1766 120.755 43.778 120.799 44.3401H120.844C120.872 43.8342 120.99 43.2385 121.197 42.5415L122.885 37.5337H125.385L122.044 46.3241H119.594Z" fill="white"/>
<path d="M130.616 46.4814C129.203 46.4814 128.099 46.0936 127.308 45.3123C126.512 44.5311 126.114 43.4238 126.114 41.9963C126.114 40.5237 126.479 39.3827 127.219 38.579C127.953 37.7753 128.968 37.3706 130.263 37.3706C131.502 37.3706 132.466 37.7247 133.156 38.4329C133.845 39.1411 134.193 40.119 134.193 41.3668V42.5302H128.536C128.564 43.2103 128.766 43.7442 129.142 44.1264C129.517 44.5086 130.044 44.6997 130.728 44.6997C131.255 44.6997 131.754 44.6435 132.225 44.5367C132.696 44.4243 133.189 44.2501 133.7 44.0084V45.8631C133.279 46.0711 132.836 46.2285 132.36 46.3296C131.878 46.4308 131.3 46.4814 130.616 46.4814ZM130.274 39.0736C129.77 39.0736 129.372 39.2366 129.08 39.557C128.794 39.8773 128.626 40.3382 128.587 40.9284H131.945C131.934 40.3382 131.782 39.8773 131.479 39.557C131.188 39.2366 130.784 39.0736 130.274 39.0736Z" fill="white"/>
<path d="M142.255 43.7159C142.255 44.6151 141.941 45.3064 141.319 45.7786C140.696 46.2507 139.76 46.4867 138.515 46.4867C137.876 46.4867 137.332 46.4418 136.884 46.3575C136.435 46.2732 136.015 46.1439 135.623 45.9753V43.9913C136.065 44.1992 136.57 44.3791 137.125 44.5196C137.68 44.6601 138.173 44.7332 138.594 44.7332C139.463 44.7332 139.895 44.4802 139.895 43.98C139.895 43.7889 139.839 43.6372 139.721 43.5191C139.603 43.4011 139.407 43.2662 139.127 43.1201C138.846 42.9683 138.465 42.7941 138 42.5974C137.327 42.3164 136.828 42.0522 136.514 41.8105C136.2 41.5688 135.97 41.2934 135.824 40.9787C135.679 40.6696 135.611 40.2818 135.611 39.8265C135.611 39.0453 135.914 38.4439 136.52 38.0167C137.125 37.5896 137.977 37.376 139.087 37.376C140.141 37.376 141.173 37.6064 142.171 38.0673L141.448 39.7984C141.01 39.6073 140.595 39.4555 140.214 39.3319C139.833 39.2139 139.44 39.152 139.048 39.152C138.342 39.152 137.988 39.3431 137.988 39.7253C137.988 39.9389 138.101 40.1244 138.33 40.2818C138.56 40.4391 139.054 40.6752 139.822 40.9787C140.506 41.2541 141.01 41.5183 141.33 41.7599C141.649 42.0016 141.885 42.277 142.036 42.5918C142.176 42.9009 142.255 43.2775 142.255 43.7159Z" fill="white"/>
<path d="M147.811 44.5703C148.231 44.5703 148.73 44.4804 149.319 44.2949V46.0822C148.725 46.352 147.99 46.4813 147.121 46.4813C146.163 46.4813 145.467 46.2396 145.03 45.7562C144.593 45.2729 144.374 44.5422 144.374 43.5755V39.3376H143.23V38.326L144.548 37.5222L145.238 35.6675H146.768V37.5391H149.224V39.3376H146.768V43.5755C146.768 43.9183 146.863 44.1656 147.054 44.3286C147.245 44.4916 147.497 44.5703 147.811 44.5703Z" fill="white"/>
<path d="M158.945 46.3238H156.551V41.1867C156.551 40.5515 156.444 40.0794 156.231 39.7591C156.018 39.4443 155.688 39.2813 155.233 39.2813C154.622 39.2813 154.179 39.5061 153.899 39.9558C153.624 40.4054 153.484 41.1473 153.484 42.1815V46.3181H151.09V37.5334H152.918L153.238 38.6574H153.372C153.608 38.2528 153.95 37.938 154.392 37.7076C154.835 37.4772 155.346 37.3647 155.923 37.3647C157.235 37.3647 158.126 37.7919 158.592 38.6518H158.805C159.04 38.2415 159.388 37.9268 159.842 37.702C160.302 37.4772 160.817 37.3647 161.389 37.3647C162.381 37.3647 163.133 37.6177 163.643 38.1291C164.153 38.6406 164.405 39.4612 164.405 40.5853V46.3181H162.006V41.181C162.006 40.5459 161.899 40.0738 161.686 39.7534C161.473 39.4387 161.142 39.2757 160.688 39.2757C160.105 39.2757 159.662 39.4837 159.376 39.9052C159.085 40.3267 158.939 40.9899 158.939 41.9005V46.3238H158.945Z" fill="white"/>
<path d="M170.83 46.4814C169.417 46.4814 168.313 46.0936 167.523 45.3123C166.726 44.5311 166.328 43.4238 166.328 41.9963C166.328 40.5237 166.693 39.3827 167.433 38.579C168.167 37.7753 169.182 37.3706 170.477 37.3706C171.716 37.3706 172.68 37.7247 173.37 38.4329C174.059 39.1411 174.407 40.119 174.407 41.3668V42.5302H168.75C168.778 43.2103 168.98 43.7442 169.356 44.1264C169.731 44.5086 170.258 44.6997 170.942 44.6997C171.469 44.6997 171.968 44.6435 172.439 44.5367C172.91 44.4243 173.404 44.2501 173.914 44.0084V45.8631C173.493 46.0711 173.05 46.2285 172.574 46.3296C172.097 46.4308 171.514 46.4814 170.83 46.4814ZM170.494 39.0736C169.989 39.0736 169.591 39.2366 169.3 39.557C169.014 39.8773 168.846 40.3382 168.806 40.9284H172.165C172.153 40.3382 172.002 39.8773 171.699 39.557C171.402 39.2366 171.004 39.0736 170.494 39.0736Z" fill="white"/>
<path d="M184.448 46.324H182.054V41.1869C182.054 40.5518 181.942 40.0797 181.718 39.7593C181.494 39.4446 181.135 39.2816 180.641 39.2816C179.974 39.2816 179.486 39.5064 179.189 39.956C178.892 40.4057 178.741 41.1476 178.741 42.1873V46.324H176.347V37.5336H178.175L178.494 38.6577H178.629C178.898 38.2305 179.262 37.9102 179.733 37.6966C180.198 37.4774 180.731 37.3706 181.331 37.3706C182.351 37.3706 183.125 37.646 183.652 38.2024C184.179 38.7589 184.442 39.5513 184.442 40.5968V46.324H184.448Z" fill="white"/>
<path d="M190.604 44.5703C191.024 44.5703 191.523 44.4804 192.112 44.2949V46.0822C191.518 46.352 190.783 46.4813 189.914 46.4813C188.956 46.4813 188.26 46.2396 187.823 45.7562C187.386 45.2729 187.167 44.5422 187.167 43.5755V39.3376H186.023V38.326L187.341 37.5222L188.031 35.6675H189.561V37.5391H192.017V39.3376H189.561V43.5755C189.561 43.9183 189.656 44.1656 189.847 44.3286C190.038 44.4916 190.29 44.5703 190.604 44.5703Z" fill="white"/>
<path d="M200 43.7159C200 44.6151 199.686 45.3064 199.064 45.7786C198.441 46.2507 197.505 46.4867 196.261 46.4867C195.621 46.4867 195.078 46.4418 194.629 46.3575C194.181 46.2732 193.76 46.1439 193.368 45.9753V43.9913C193.811 44.1992 194.315 44.3791 194.87 44.5196C195.425 44.6601 195.919 44.7332 196.339 44.7332C197.208 44.7332 197.64 44.4802 197.64 43.98C197.64 43.7889 197.584 43.6372 197.466 43.5191C197.348 43.4011 197.152 43.2662 196.872 43.1201C196.591 42.9683 196.21 42.7941 195.745 42.5974C195.072 42.3164 194.573 42.0522 194.259 41.8105C193.945 41.5688 193.715 41.2934 193.569 40.9787C193.424 40.6696 193.356 40.2818 193.356 39.8265C193.356 39.0453 193.659 38.4439 194.265 38.0167C194.87 37.5896 195.722 37.376 196.832 37.376C197.886 37.376 198.918 37.6064 199.916 38.0673L199.193 39.7984C198.755 39.6073 198.34 39.4555 197.959 39.3319C197.578 39.2139 197.186 39.152 196.793 39.152C196.087 39.152 195.734 39.3431 195.734 39.7253C195.734 39.9389 195.846 40.1244 196.076 40.2818C196.305 40.4391 196.799 40.6752 197.567 40.9787C198.251 41.2541 198.755 41.5183 199.075 41.7599C199.394 42.0016 199.63 42.277 199.781 42.5918C199.921 42.9009 200 43.2775 200 43.7159Z" fill="white"/>
</svg>
