<svg width="122" height="56" viewBox="0 0 122 56" fill="none" xmlns="http://www.w3.org/2000/svg">
<g clip-path="url(#clip0)">
<path d="M113.282 50.015C112.737 50.015 112.247 50.015 111.811 49.9601C110.885 49.9057 109.959 49.8508 109.033 49.8508C108.434 49.8508 108.434 49.8508 108.379 49.2492L107.507 39.2923L106.636 31.0316L106.037 25.9439L105.492 21.5128L104.511 14.6195C104.184 12.158 103.803 9.75088 103.312 7.28882C103.258 6.90621 103.258 6.85131 103.694 6.79641C105.383 6.46814 107.126 6.304 108.869 6.304H109.469C109.741 6.3589 109.904 6.52303 109.959 6.85131L110.177 10.6259L111.702 31.0316L112.465 40.3863L112.955 45.748L113.282 50.015ZM46.4893 6.304H47.47C47.9604 6.304 48.0692 6.46814 48.0692 6.96055L48.5054 13.5804L49.4862 27.3113L50.0854 34.4779L50.5211 40.0037L51.393 49.5226C51.393 49.9601 51.3383 50.015 50.9026 50.015L46.9797 49.8508C46.7074 49.9057 46.5439 49.7416 46.5439 49.4677L46.3805 47.5529C46.217 45.9121 46.0536 44.2707 45.9448 42.575L45.0728 33.9312L44.1467 26.108L43.4929 20.5828L42.785 15.5495C42.4581 13.3064 42.0765 11.0091 41.6954 8.76606L41.4226 7.23448C41.3685 6.96055 41.4226 6.85131 41.6954 6.79641C43.2207 6.52303 44.6918 6.24966 46.4893 6.304ZM101.297 28.3511C102.659 28.3511 102.822 28.406 103.04 29.7185C103.312 31.3599 103.531 33.0013 103.694 34.6421L104.293 39.9488L105.437 51.2183C105.492 51.4922 105.437 51.6014 105.165 51.6014L100.915 52.0939C100.48 52.1482 100.37 52.0939 100.316 51.6563L97.8642 39.0738L96.339 30.7033L96.1208 29.5544C96.0667 29.3359 96.1755 29.1718 96.3936 29.1169C98.0823 28.7342 99.7169 28.4603 101.297 28.3511ZM39.3523 28.3511C40.8235 28.2962 40.9869 28.4603 41.1504 29.8283C41.532 32.0713 41.8042 34.2595 42.0224 36.5025L42.7303 43.0669L43.166 47.4986L43.5476 51.0541C43.5476 51.5465 43.4929 51.6563 43.0572 51.7107L39.026 52.0939C38.5897 52.1482 38.4809 52.0939 38.4263 51.6563L35.103 34.4779L34.2316 29.6093C34.1769 29.3359 34.2857 29.1718 34.5585 29.1169C36.2472 28.7342 37.8271 28.4603 39.3523 28.3511ZM60.164 45.3099V52.0939V52.3123C60.2186 52.6406 60.0552 52.8047 59.7283 52.7504H58.4206C57.4945 52.7504 56.5684 52.8047 55.6424 52.8596C55.152 52.9145 55.0973 52.9145 55.0427 52.3123L54.1712 42.4652L53.7355 37.5965L53.0817 30.1566C53.027 29.5544 53.1364 29.4451 53.6262 29.3902C55.152 29.2261 56.6772 29.2261 58.203 29.281L59.3467 29.4451C59.7829 29.6093 59.837 29.6642 59.837 30.1017L60.0005 33.0556L60.0552 36.3383C60.1099 39.3472 60.164 42.3011 60.164 45.3099ZM121.999 45.6382V52.039V52.3672C121.999 52.6406 121.89 52.8047 121.618 52.7504H119.657C118.894 52.7504 118.131 52.8047 117.423 52.8596C116.987 52.9145 116.932 52.8596 116.878 52.3672L115.734 39.5656L115.134 33.2197L114.917 29.9924C114.862 29.5544 114.971 29.4451 115.407 29.4451C117.205 29.2261 119.057 29.1718 120.855 29.3902C121.563 29.4451 121.672 29.6642 121.727 30.3751L121.89 37.6509L121.999 45.6382ZM99.7169 16.6984C100.261 16.6984 100.752 16.7533 101.133 16.8077C101.406 16.8626 101.514 16.9718 101.569 17.2457L102.277 24.8498C102.44 25.5064 102.332 25.6156 101.678 25.6156L99.8257 25.7249C99.4441 25.7798 99.2807 25.8347 99.2807 25.233L98.518 19.0507L98.3005 17.3001C98.2458 16.9718 98.3546 16.8077 98.6815 16.7533L99.7169 16.6984ZM37.9906 16.6984C38.4263 16.6984 38.8625 16.7533 39.2436 16.8077C39.4617 16.8626 39.5705 16.9718 39.6252 17.2457L39.8427 19.1605L40.3878 25.1232C40.4424 25.5607 40.4424 25.6156 40.0062 25.6156L37.8818 25.7249C37.4461 25.7798 37.3914 25.7249 37.3367 25.2874L36.8464 20.9111L36.4107 17.2457C36.356 16.9718 36.4653 16.8077 36.7376 16.8077C37.1192 16.7533 37.5549 16.6984 37.9906 16.6984ZM59.7283 22.1693V25.9439C59.7829 26.5456 59.6736 26.5456 59.1832 26.5456C58.4753 26.5456 57.8214 26.4912 57.1676 26.4363C56.7319 26.3814 56.6772 26.3814 56.7319 25.9439L56.5684 21.2937C56.5684 20.2546 56.5684 19.2148 56.5138 18.1757C56.4597 17.6833 56.5138 17.6284 57.0041 17.6284C57.7668 17.6284 58.5294 17.6833 59.2926 17.7925C59.7283 17.7925 59.7283 17.9023 59.7283 18.3398V22.1693ZM121.618 22.2236V25.9988C121.618 26.4912 121.563 26.5456 121.073 26.5456L119.003 26.4363C118.676 26.3814 118.512 26.2173 118.567 25.9439L118.404 18.1208C118.404 17.6833 118.458 17.6284 118.894 17.6284C119.602 17.6284 120.256 17.6833 120.91 17.7382C121.727 17.7925 121.618 17.9566 121.618 18.5583V22.2236ZM36.3019 25.1781C36.356 25.8347 36.3019 25.9439 35.648 25.9988L34.3404 26.3271C33.9047 26.4912 33.85 26.3814 33.7959 25.9988L32.4336 18.2849C32.2701 17.7925 32.3789 17.6833 32.8693 17.6284L34.7761 17.3001C35.2123 17.2457 35.3211 17.2457 35.3211 17.6833C35.4846 18.6132 35.648 19.5431 35.7568 20.473L36.3019 24.8498V25.1781V25.1781ZM94.2687 17.6833C95.086 17.5191 95.9574 17.4099 96.8293 17.3001C97.1016 17.2457 97.2104 17.4099 97.265 17.6833L97.7008 20.6921C97.9189 22.1693 98.0823 23.646 98.137 25.1232V25.5607C98.1911 25.7798 98.0823 25.9439 97.8642 25.9988L96.1208 26.3814C95.8486 26.4363 95.7398 26.3271 95.6851 26.0531L94.2687 17.9023V17.6833V17.6833ZM55.5877 23.5916C55.5877 24.4667 55.533 25.2874 55.4789 26.0531C55.4789 26.3271 55.3696 26.4363 55.0973 26.4912L53.4086 26.6554C53.1364 26.7097 53.027 26.5456 53.027 26.2722C52.9183 25.4515 52.8636 24.6857 52.8095 23.865C52.7001 22.3878 52.5913 20.8562 52.5367 19.3246L52.4279 18.2306C52.3732 18.0115 52.4826 17.9023 52.7001 17.9023L54.9339 17.7382C55.3155 17.7382 55.4242 17.7925 55.4242 18.2306L55.5877 23.5916ZM117.368 22.7161C117.423 23.7558 117.423 24.8498 117.368 25.889C117.423 26.3814 117.314 26.4912 116.824 26.4912L115.298 26.6554C115.026 26.7097 114.862 26.5456 114.862 26.2722C114.807 24.9047 114.699 23.4824 114.59 22.1144L114.372 18.2849C114.317 18.0115 114.426 17.9023 114.644 17.9023L116.824 17.7382C117.205 17.7382 117.259 17.7925 117.259 18.2306C117.368 19.7072 117.423 21.2394 117.368 22.7161ZM34.1769 41.3711C35.0489 42.4109 35.2123 43.5593 34.8308 44.8175C34.5038 46.0213 33.9047 47.0605 33.0327 47.9361C31.6163 49.4133 29.9822 50.6166 28.1842 51.5465C25.0791 53.1879 21.8646 54.3369 18.4319 54.9385C15.9806 55.4309 13.5288 55.7592 11.0774 55.9234C10.3148 55.9777 9.55221 55.9777 8.78904 55.9777H7.15501C6.71875 55.9777 6.60997 55.8685 6.55529 55.4309L6.17426 50.1242L5.13884 39.6754L3.9952 29.7185L3.34136 24.4123L2.63286 19.3246C2.25183 16.5343 1.76145 13.7445 1.27108 10.9542C0.889492 8.71116 0.508462 6.46814 0.0180876 4.22567C-0.0365844 3.95174 0.0180876 3.73326 0.290332 3.67836L7.86296 0.505409C8.35333 0.286373 8.78904 0.122235 9.27941 0.0129972C9.60633 -0.041902 9.76978 0.0678964 9.71511 0.396171C9.71511 1.2712 9.71511 2.14678 9.661 3.07671L9.60633 3.7876C9.55221 6.96055 9.55221 10.1335 9.60633 13.3613C9.661 16.1517 9.82446 18.9964 9.98792 21.7861C10.2602 26.1629 10.6959 30.5392 11.1321 34.8611C11.1321 35.2986 11.1862 35.2986 11.6766 35.2443C12.6027 35.0801 13.4746 35.0252 14.4007 35.0252C17.2883 35.0252 20.1753 35.3535 22.9541 36.0644C25.4054 36.6666 27.7485 37.4873 30.091 38.5265C31.2352 39.0738 32.2701 39.7298 33.2508 40.4961C33.6324 40.7695 33.9047 41.0429 34.1769 41.3711ZM95.5764 40.8787C96.7206 41.8087 97.1016 43.0669 96.7747 44.5441C96.5024 45.748 95.9574 46.7871 95.1401 47.717C93.833 49.1943 92.3072 50.3432 90.6185 51.2732C87.3499 53.0787 83.8632 54.3369 80.1583 54.9934C78.1427 55.376 76.1265 55.7043 74.1109 55.8685C72.9667 55.9777 71.7137 56.0326 70.4607 55.9777H68.9896C68.6632 56.0326 68.4998 55.8685 68.4998 55.5402C68.3904 54.0086 68.2816 52.4765 68.1182 50.9449L67.2462 41.5902L66.3201 33.4388L65.1765 24.2482C65.013 22.6617 64.7949 21.0203 64.5227 19.4339L63.5419 13.3064C63.1062 10.4074 62.5612 7.50786 61.962 4.60828L61.9073 4.22567C61.7985 3.95174 61.9073 3.73326 62.1796 3.67836C64.8496 2.5843 67.4644 1.38044 70.1338 0.341272C70.8423 0.0678964 71.7137 -0.260378 71.6596 0.396171C71.4415 2.42016 71.4961 4.44415 71.4415 6.4138C71.3868 8.05461 71.3868 9.69598 71.4961 11.2825V12.5407C71.4961 14.5103 71.5502 16.48 71.7137 18.3941C71.823 20.9654 71.9865 23.5916 72.2041 26.1629L72.6944 31.6882C72.7491 32.7273 72.8579 33.7121 73.0214 34.7519C73.0214 35.3535 73.1302 35.2986 73.6205 35.2443C74.6013 35.0801 75.582 35.0252 76.5628 35.0252C79.9948 35.0801 83.3181 35.6269 86.5867 36.5568C88.8205 37.159 90.9454 37.9792 93.0157 39.0738C93.9418 39.5656 94.7591 40.1678 95.5764 40.8787ZM16.7979 50.5074C17.6152 50.015 19.0317 49.0301 20.9926 47.4986C22.9541 45.9121 24.1524 44.8724 24.6428 44.3256C21.7011 43.0125 18.6501 41.8636 15.4903 40.8244L16.7979 50.5074ZM86.3691 44.599C86.5326 44.4349 86.4779 44.3256 86.3145 44.2158L85.0068 43.6691C82.719 42.6842 80.4305 41.8087 78.088 41.0429L77.7611 40.9336C77.6523 40.8787 77.5435 40.9336 77.3801 40.9885L78.6872 50.4525C78.8506 50.4525 78.96 50.3976 79.0141 50.3432C81.139 48.8111 83.2634 47.2246 85.3884 45.5289L86.3691 44.599Z" fill="white"/>
</g>
<defs>
<clipPath id="clip0">
<rect width="122" height="56" fill="white"/>
</clipPath>
</defs>
</svg>
