<svg width="190" height="49" viewBox="0 0 190 49" fill="none" xmlns="http://www.w3.org/2000/svg">
<g clip-path="url(#clip0_3669_14281)">
<mask id="mask0_3669_14281" style="mask-type:alpha" maskUnits="userSpaceOnUse" x="0" y="0" width="190" height="49">
<path d="M0.860718 0.863647H189.857V48.7949H0.860718V0.863647Z" fill="white"/>
</mask>
<g mask="url(#mask0_3669_14281)">
<path fill-rule="evenodd" clip-rule="evenodd" d="M19.4741 31.0485C19.1276 31.1872 18.8756 31.4701 18.5978 31.6811C18.1391 32.0288 17.6726 32.335 17.1688 32.6391C16.5926 32.9871 15.9536 33.3074 15.2447 33.5207C14.7092 33.682 13.8645 33.8176 13.2062 33.7123C12.6651 33.6261 12.2259 33.6586 11.7773 33.5207C10.1604 33.024 9.20856 31.9202 8.59561 30.416C8.23547 29.5322 8.12993 28.5282 7.94796 27.4454C7.77882 26.4399 7.82597 24.7794 7.98608 23.8232C8.57334 20.3113 9.32172 18.2433 12.8443 17.652C14.822 17.3202 16.8703 18.4849 17.912 19.2236C18.2699 19.4775 19.2649 20.414 19.8933 20.0094C20.6944 19.4937 20.7614 15.9842 20.3124 14.8923C20.0161 14.1716 19.2801 13.816 18.6359 13.4357C17.0318 12.4889 14.9807 12.0142 12.4059 12.0558C12.0568 12.0814 11.7075 12.1071 11.3582 12.1325C10.5446 12.2778 9.75891 12.3648 9.0338 12.5925C6.21425 13.4777 4.2432 15.1151 2.86101 17.4413C2.05605 18.7961 1.57432 20.3763 1.18448 22.1558C0.95315 23.2128 1.05106 24.3588 0.860657 25.5288C0.867077 25.9824 0.873498 26.4361 0.879717 26.8898C0.892357 27.2729 0.905198 27.6561 0.917838 28.0396C1.07193 28.9638 1.11426 29.8827 1.31791 30.7034C2.34055 34.8258 4.37461 37.6779 8.25272 38.9062C9.02257 39.15 9.8512 39.2521 10.7294 39.4043C11.1359 39.43 11.5424 39.4554 11.9487 39.481C12.6342 39.594 13.5014 39.4709 14.0824 39.3662C15.948 39.0291 17.4971 38.6676 18.8454 37.852C19.3903 37.5225 20.0564 37.1989 20.3505 36.6255C20.8204 35.7092 20.7939 32.531 20.4268 31.4893C20.3038 31.1408 19.9489 30.8584 19.4741 31.0485ZM189.78 14.2408C189.689 13.6202 189.747 13.1041 189.45 12.7267C189.059 12.2292 187.437 12.0035 186.519 12.0174C186.257 12.0431 185.994 12.0687 185.731 12.0941C185.081 12.2326 184.498 12.434 184.009 12.7459C183.028 13.3721 182.139 14.2858 181.445 15.2181C181.127 15.6589 180.81 16.0999 180.492 16.5405V16.572C180.486 16.3419 180.48 16.1116 180.473 15.8813C180.473 15.2034 180.624 13.513 180.359 13.0993C179.786 12.2062 175.091 12.2255 174.675 13.2145C174.508 13.6117 174.618 14.3978 174.618 14.9028V36.5414C174.618 37.0708 174.496 37.9735 174.713 38.3346C174.942 38.7175 175.549 38.8275 176.059 38.9258C177.412 39.1859 180.896 39.1428 181.369 38.2963C181.506 38.0517 181.445 37.5327 181.445 37.1709V22.75C181.714 22.3476 181.982 21.9451 182.251 21.5427C183.074 20.3282 184.069 18.9643 185.64 18.5527C186.697 18.276 187.69 18.7598 188.443 19.0129C188.847 19.1489 189.304 19.09 189.487 18.7828C189.86 18.1561 189.938 15.3154 189.78 14.2408ZM152.131 23.031C152.124 19.442 154.506 16.0549 158.57 16.9559C159.122 17.0782 159.652 17.2501 160.075 17.5115C161.662 18.4906 162.342 20.4124 162.304 23.031H152.131ZM168.766 20.7925C168.303 18.6793 167.643 17.0438 166.536 15.6157C165.179 13.864 163.115 12.8048 160.571 12.2413C159.916 12.0964 159.215 12.127 158.512 12.0112H157.826C157.142 11.8974 155.975 12.0187 155.348 12.1454C154.372 12.343 153.456 12.5208 152.623 12.8548C149.335 14.1726 147.13 16.7233 146.028 20.2364C145.778 21.0345 145.656 21.8309 145.476 22.7288C145.406 23.3103 145.336 23.892 145.266 24.4737C145.259 24.7419 145.253 25.0105 145.247 25.2788V26.8127C145.259 27.1897 145.272 27.5669 145.285 27.9439C145.54 29.4684 145.62 30.8685 146.066 32.1428C147.348 35.8065 149.676 37.8294 153.48 38.9684C154.367 39.2338 155.342 39.2614 156.339 39.4285C156.994 39.4477 157.648 39.4669 158.302 39.4861C160.997 39.4861 163.311 39.0638 165.374 38.4123C166.218 38.1457 167.289 37.8886 167.642 37.1277C168.021 36.3099 168.111 32.888 167.28 32.6414C166.654 32.4557 165.997 32.8628 165.583 33.0248C164.553 33.4283 163.453 33.6774 162.305 33.9642C161.626 34.1339 160.893 34.1293 160.151 34.2518C159.493 34.3608 158.446 34.3343 157.826 34.2326C157.059 34.1065 156.407 34.0758 155.787 33.83C153.422 32.8943 152.153 30.8558 152.204 27.5029H163.43C164.667 27.5031 167.286 27.7028 168.042 27.2537C168.93 26.7265 169.033 25.7186 169.033 24.2819C169.027 23.8666 169.02 23.451 169.014 23.0356C168.887 22.2687 168.922 21.5043 168.766 20.7925ZM103.174 31.7192C102.354 32.8329 100.897 34.015 99.4211 34.4597C97.0107 35.1861 94.9223 34.0156 94.5059 32.1027C94.3519 31.3951 94.4879 30.532 94.6964 30.0135C95.7457 27.4038 99.5078 27.5712 103.174 27.5986V31.7192ZM110.001 24.1683C110.001 22.2931 110.118 20.2582 109.773 18.687C108.972 15.0437 107.179 13.3322 103.657 12.4393C102.977 12.2667 102.297 12.2623 101.542 12.1325C100.531 11.9587 98.6072 11.9141 97.5604 12.0941C96.5195 12.2736 95.5111 12.3753 94.5884 12.6308C92.8521 13.1118 90.0277 13.8596 89.4064 15.3715C88.9475 16.4878 89.1423 19.9409 90.5115 19.7219C91.3567 19.5867 91.9482 19.1104 92.6262 18.7828C94.8585 17.7046 100.635 15.9649 102.533 18.6486C103.286 19.7131 103.313 21.4095 103.295 23.2675C97.0839 23.2649 91.5381 23.565 89.0635 27.2922C88.5617 28.0479 88.218 28.8984 87.9965 29.956C87.9648 30.3009 87.9331 30.6461 87.9014 30.991L87.8823 32.1983C87.9949 32.8787 88.0077 33.524 88.1871 34.1147C89.0147 36.8411 90.8975 38.3584 93.6739 39.1361C94.5764 39.3888 96.3853 39.6857 97.5986 39.481C98.3999 39.3458 99.1372 39.2788 99.8276 39.0594C101.223 38.616 102.363 37.8658 103.39 37.0471C103.708 36.7406 104.025 36.434 104.343 36.1272C104.336 36.8986 104.159 38.3332 104.61 38.6761C105.384 39.2663 109.428 39.2102 109.906 38.4654C110.094 38.1721 110.001 37.4415 110.001 36.9898V24.1683ZM85.6187 12.7267C85.2275 12.2292 83.6057 12.0035 82.6876 12.0174C82.4252 12.0431 82.1626 12.0687 81.9001 12.0941C81.2501 12.2326 80.667 12.434 80.1781 12.7459C79.1961 13.3721 78.3071 14.2858 77.6133 15.2181C77.2959 15.6589 76.9783 16.0999 76.6609 16.5405V16.572C76.6545 16.3419 76.6481 16.1116 76.6418 15.8813C76.6418 15.2034 76.7927 13.513 76.5273 13.0993C75.9545 12.2062 71.2593 12.2255 70.8438 13.2145C70.6769 13.6117 70.7866 14.3978 70.7866 14.9028V36.5414C70.7866 37.0708 70.6653 37.9735 70.8813 38.3346C71.1109 38.7175 71.717 38.8275 72.2278 38.9258C73.5803 39.1859 77.0642 39.1428 77.5377 38.2963C77.6743 38.0517 77.6133 37.5327 77.6133 37.1709V22.75C77.882 22.3476 78.1508 21.9451 78.4195 21.5427C79.2427 20.3282 80.2374 18.9643 81.8084 18.5527C82.8656 18.276 83.8587 18.7598 84.6111 19.0129C85.0158 19.1489 85.4723 19.09 85.6554 18.7828C86.0288 18.1561 86.1063 15.3154 85.9486 14.2408C85.8575 13.6202 85.9155 13.1041 85.6187 12.7267ZM38.5639 21.8492C38.1767 23.7465 37.1782 24.7806 35.249 25.1264C31.6895 25.7644 29.5371 22.4134 30.829 19.2428C31.2176 18.2887 31.9285 17.5533 32.8865 17.173C33.2665 17.0221 33.7354 17.0679 34.163 16.9046C36.2522 16.8951 37.4338 17.5182 38.1829 18.8403C38.3687 19.1683 38.4755 19.6008 38.5639 20.0094C38.6805 20.5478 38.6711 21.3245 38.5639 21.8492ZM31.0385 38.312C31.267 38.1267 31.4957 37.9415 31.7244 37.7562C32.7212 37.7883 33.7186 37.8202 34.7155 37.852C35.4776 37.8712 36.2398 37.8904 37.0016 37.9096C38.7911 38.1903 40.7194 38.8059 40.1833 41.1677C40.1085 41.4973 39.9955 41.8422 39.8404 42.1066C38.6051 44.2111 33.9846 44.7099 31.2291 43.5633C30.0872 43.0881 29.1029 42.0927 29.6286 40.3436C29.8655 39.5551 30.4628 38.778 31.0385 38.312ZM59.5143 18.2399H63.5505C64.0481 18.2399 64.8596 18.3461 65.1955 18.144C65.9413 17.6954 65.9381 16.0044 65.8648 14.8132C65.8245 14.155 65.8048 13.5098 65.5398 13.0712C65.2404 12.5765 64.5751 12.65 63.78 12.65H59.5143V8.66826C59.5143 8.14249 59.63 7.32406 59.4573 6.90708C59.2789 6.47597 58.7968 6.35446 58.2974 6.237C57.0137 5.93546 53.8222 5.93526 52.9918 6.56255C52.6057 6.854 52.6876 7.58705 52.6876 8.26621V12.65H39.3191C38.4859 12.65 37.9496 12.4611 37.2464 12.3244C35.9896 12.0806 34.1987 11.9987 32.8536 12.2288C28.8599 12.9124 26.2414 14.6124 25.0378 18.0867C24.5731 19.4281 24.3591 21.6783 24.7527 23.3127C24.9878 24.2892 25.355 25.1425 25.8556 25.8588C26.0711 26.1267 26.2866 26.3947 26.5021 26.6629C26.5466 26.7075 26.5909 26.7521 26.6353 26.7969C25.5679 27.5948 24.5358 29.1872 24.1632 30.6828C23.5726 33.0529 24.8217 35.5901 26.4451 36.1577C26.0902 36.4513 25.7352 36.745 25.3803 37.0385C24.5936 37.6762 23.8819 38.6888 23.4596 39.6802C23.259 40.1509 23.1294 40.6726 23.0222 41.2307C22.754 42.6276 23.1546 44.0801 23.6498 44.9254C24.856 46.9849 27.0652 47.8382 29.7349 48.4286C30.3856 48.5725 31.0294 48.559 31.7317 48.6775C32.5751 48.8198 33.5316 48.7933 34.4824 48.7923C35.0339 48.7657 35.9342 48.7221 36.4858 48.6954C37.314 48.6084 38.1246 48.5973 38.8816 48.4096C42.183 47.59 45.1418 46.2557 46.393 43.3939C46.6631 42.7765 46.8663 42.1268 47.0206 41.3839C47.3039 40.0209 47.0306 38.3804 46.6213 37.402C45.6978 35.1941 43.9119 33.9799 41.4298 33.3437C40.7912 33.1801 40.1076 33.135 39.4142 33.0184C38.7993 32.993 38.1843 32.9673 37.5696 32.9419C37.0499 32.9225 36.5299 32.9033 36.0102 32.8844C33.7818 32.5211 31.159 33.285 30.1723 31.6401C29.9757 31.3123 29.9075 30.749 30.0391 30.2807C30.1815 29.7746 30.5308 29.4728 30.7237 29.0556C30.8236 28.9949 31.8274 29.469 32.1309 29.5727C33.2338 29.9493 35.0751 30.1058 36.4667 29.8406C37.0987 29.7201 37.7311 29.6734 38.3111 29.496C41.2788 28.5888 43.116 27.0706 44.1872 24.2508C44.5873 23.1977 44.9035 21.3412 44.5867 19.9436C44.4316 19.2604 44.1798 18.7624 43.9019 18.2399H52.6876V28.3232C52.6876 31.1363 52.6898 33.7494 53.5267 35.6704C54.379 37.6278 55.8982 38.6584 58.1796 39.2003C58.999 39.395 60.4747 39.5797 61.498 39.4114C62.7148 39.211 63.7941 39.1413 64.7397 38.7207C65.8211 38.24 65.6497 37.4417 65.8648 36.1119V34.9711C65.7629 34.323 65.8616 33.5956 65.5398 33.1716C65.2467 32.7851 64.5067 33.1401 64.1817 33.2672C63.0912 33.6931 61.3752 33.7595 60.509 33.0757C59.4747 32.2595 59.5141 30.3375 59.5143 28.4814V18.2399ZM132.863 29.7453C132.501 30.1669 132.139 30.5885 131.777 31.0102C130.697 32.3632 129.467 33.3288 127.357 33.6741C126.197 33.8639 125.211 33.3007 124.633 32.8501C123.251 31.7733 122.785 30.0272 122.404 27.9246C122.366 27.3625 122.328 26.8002 122.29 26.2381C122.173 25.5143 122.247 24.5625 122.366 23.8999C122.785 21.5495 123.376 19.527 125.052 18.4571C125.389 18.2419 125.8 18.0732 126.236 17.9622C126.507 17.9363 126.94 17.8952 127.21 17.8695C129.386 17.9701 130.797 19.2032 131.796 20.4502C132.024 20.7343 132.758 21.3713 132.863 21.6767V29.7453ZM139.69 4.11878C139.69 3.5032 139.832 2.17434 139.633 1.71436C139.247 0.822473 137.004 0.853353 135.669 0.868289C135.42 0.887462 135.013 0.918141 134.764 0.937315C134.047 1.04005 133.259 1.10746 132.959 1.61809C132.808 1.87422 132.863 2.39615 132.863 2.79154V15.2568C132.513 14.9363 132.162 14.6156 131.811 14.2951C130.9 13.5814 129.94 12.9223 128.771 12.4675C126.358 11.529 122.781 12.0972 120.969 13.16C118.15 14.8138 116.637 17.3492 115.748 20.9509C115.571 21.6672 115.535 22.3813 115.404 23.1632C115.264 24.0018 115.116 25.5997 115.251 26.5295C115.27 27.0747 115.289 27.6196 115.308 28.1648C115.484 29.3037 115.549 30.4016 115.806 31.4348C116.729 35.154 118.669 38.0297 122.193 39.1294C123.288 39.4713 124.976 39.7743 126.457 39.5335C127.237 39.4065 127.98 39.3066 128.637 39.0525C130.217 38.4414 131.411 37.5447 132.615 36.571C133.035 36.1542 133.456 35.7373 133.877 35.3207C133.869 36.2009 133.692 38.33 134.164 38.6872C134.978 39.3038 139.187 39.3654 139.614 38.4369C139.843 37.9374 139.69 36.4527 139.69 35.7631V4.11878Z" fill="white"/>
</g>
</g>
<defs>
<clipPath id="clip0_3669_14281">
<rect width="189" height="48" fill="white" transform="translate(0.860718 0.863525)"/>
</clipPath>
</defs>
</svg>
