<svg width="200" height="74" viewBox="0 0 200 74" fill="none" xmlns="http://www.w3.org/2000/svg">
<path d="M28.8884 60.4111H15.2063V74.0002H28.8884V60.4111Z" fill="white"/>
<path d="M44.0945 45.3081H30.4124V58.8971H44.0945V45.3081Z" fill="white"/>
<path d="M13.6821 45.3081H0V58.8972H13.6821V45.3081Z" fill="white"/>
<path d="M28.8867 45.3081H15.2046V58.8972H28.8867V45.3081Z" fill="white"/>
<path d="M44.093 30.2056H30.4109V43.7946H44.093V30.2056Z" fill="white"/>
<path d="M28.8884 30.2056H15.2063V43.7946H28.8884V30.2056Z" fill="white"/>
<path d="M44.093 15.1025H30.4109V28.6916H44.093V15.1025Z" fill="white"/>
<path d="M28.8884 15.1025H15.2063V28.6916H28.8884V15.1025Z" fill="white"/>
<path d="M59.3008 15.1025H45.6187V28.6916H59.3008V15.1025Z" fill="white"/>
<path d="M62.0053 37.0514C64.257 37.0514 66.3852 37.9105 67.9985 39.4787C68.9322 40.3856 70.4356 40.3719 71.3487 39.4378C72.2617 38.5105 72.248 37.0173 71.3075 36.1104C68.8017 33.6831 65.4996 32.3467 61.9984 32.3467C54.6528 32.3467 48.6802 38.2787 48.6802 45.5744C48.6802 52.87 54.6528 58.802 61.9984 58.802C65.3417 58.802 68.5409 57.5679 70.9986 55.3247C71.9665 54.4451 72.0283 52.9587 71.1427 51.9973C70.2571 51.0427 68.7605 50.9745 67.7926 51.8541C66.2067 53.2996 64.1472 54.0973 61.9916 54.0973C57.2615 54.0973 53.4171 50.2722 53.4171 45.5812C53.4171 40.8901 57.2753 37.0514 62.0053 37.0514Z" fill="white"/>
<path d="M87.1246 32.7969C79.9506 32.7969 74.1084 38.5925 74.1084 45.7245C74.1084 52.8566 79.9437 58.6522 87.1246 58.6522C94.3055 58.6522 100.141 52.8566 100.141 45.7245C100.141 38.5925 94.3055 32.7969 87.1246 32.7969ZM87.1246 53.9407C82.5593 53.9407 78.8522 50.252 78.8522 45.7245C78.8522 41.1971 82.5662 37.5084 87.1246 37.5084C91.6899 37.5084 95.397 41.1971 95.397 45.7245C95.397 50.252 91.6899 53.9407 87.1246 53.9407Z" fill="white"/>
<path d="M115.409 32.7969C108.235 32.7969 102.393 38.5925 102.393 45.7245C102.393 52.8566 108.228 58.6522 115.409 58.6522C118.574 58.6522 121.478 57.5272 123.736 55.6521V56.5931C123.736 57.8681 124.773 58.8977 126.057 58.8977C127.34 58.8977 128.377 57.8681 128.377 56.5931V46.8428C128.411 46.4746 128.432 46.0996 128.432 45.7245C128.425 38.5925 122.583 32.7969 115.409 32.7969ZM115.409 53.9407C110.844 53.9407 107.136 50.2519 107.136 45.7245C107.136 41.1971 110.85 37.5084 115.409 37.5084C119.974 37.5084 123.681 41.1971 123.681 45.7245C123.681 50.2519 119.974 53.9407 115.409 53.9407Z" fill="white"/>
<path d="M142.162 53.8109C140.913 53.9745 139.231 54.0018 138.304 53.1563C137.343 52.2836 137.391 50.7154 137.391 50.7154L137.398 50.6335V37.3513H142.327C143.638 37.3513 144.695 36.2945 144.695 34.999C144.695 33.6967 143.631 32.6466 142.327 32.6466H137.398V23.6736C137.398 22.3713 136.334 21.3213 135.029 21.3213C133.718 21.3213 132.661 22.3781 132.661 23.6736V32.6466H129.86C128.549 32.6466 127.491 33.7035 127.491 34.999C127.491 36.3013 128.556 37.3513 129.86 37.3513H132.661V50.4904C132.633 51.179 132.64 54.3291 135.05 56.5724C136.505 57.9292 138.455 58.6111 140.858 58.6111C141.476 58.6111 142.128 58.5633 142.801 58.4747C144.098 58.3042 145.011 57.1178 144.833 55.8291C144.647 54.5405 143.453 53.6336 142.162 53.8109Z" fill="white"/>
<path d="M168.778 31.7397C167.467 31.7397 166.41 32.7966 166.41 34.0921V47.6539C166.41 50.8721 163.107 53.4836 159.05 53.4836C154.993 53.4836 151.691 50.8653 151.691 47.6539V34.0921C151.691 32.7898 150.627 31.7397 149.322 31.7397C148.011 31.7397 146.954 32.7966 146.954 34.0921V47.6539C146.954 53.4631 152.384 58.1951 159.057 58.1951C161.837 58.1951 164.405 57.3701 166.451 55.9928V56.4496C166.451 57.7314 167.494 58.7678 168.785 58.7678C170.075 58.7678 171.119 57.7314 171.119 56.4496V48.4039C171.14 48.1584 171.153 47.913 171.153 47.6607V34.0921C171.153 32.7898 170.089 31.7397 168.778 31.7397Z" fill="white"/>
<path d="M199.986 44.4764C199.375 37.733 193.774 32.6465 186.95 32.6465C183.332 32.6465 179.844 34.1533 177.38 36.7784C174.874 39.4444 173.638 42.915 173.892 46.5628C174.345 53.0471 179.604 58.2291 186.14 58.6246C186.414 58.6382 186.689 58.6518 186.963 58.6518C190.204 58.6518 193.279 57.4859 195.703 55.3244C196.677 54.4585 196.76 52.9653 195.881 51.9971C195.009 51.0289 193.506 50.947 192.531 51.8198C190.856 53.313 188.693 54.0562 186.428 53.9199C182.906 53.7085 179.954 51.3016 178.966 48.0629L196.732 48.0015C197.652 48.0015 198.531 47.6128 199.156 46.9378C199.767 46.2696 200.069 45.3696 199.986 44.4764ZM178.924 43.3582C179.281 42.1172 179.934 40.9649 180.847 39.9899C182.446 38.2921 184.609 37.3512 186.95 37.3512C190.746 37.3512 193.952 39.8194 194.968 43.2968L178.924 43.3582Z" fill="white"/>
<path d="M44.0945 0H30.4124V13.589H44.0945V0Z" fill="white"/>
</svg>
