<svg width="168" height="61" viewBox="0 0 168 61" fill="none" xmlns="http://www.w3.org/2000/svg">
<g clip-path="url(#clip0_2549_7464)">
<path d="M106.905 48.7661L112.226 52.2183L115.999 46.724L110.629 43.2231L106.905 48.7661Z" fill="url(#paint0_linear_2549_7464)"/>
<path d="M82.2828 51.9265L87.5071 55.33L90.603 50.7595L85.3787 47.356L82.2828 51.9265Z" fill="url(#paint1_linear_2549_7464)"/>
<path d="M95.8272 55.6705L101.148 59.0741L104.534 54.066L99.2617 50.6138L95.8272 55.6705Z" fill="url(#paint2_linear_2549_7464)"/>
<path d="M77.3003 56.9346L83.1535 60.7271L86.7331 55.4273L80.9283 51.6348L77.3003 56.9346Z" fill="url(#paint3_linear_2549_7464)"/>
<path d="M69.6573 49.787L75.7524 53.7254L79.6706 47.9394L73.5756 44.001L69.6573 49.787Z" fill="url(#paint4_linear_2549_7464)"/>
<path d="M75.2687 48.2798H72.1728V52.1696H75.2687V48.2798Z" fill="url(#paint5_linear_2549_7464)"/>
<path d="M82.3311 13.2714L87.6038 16.7236L91.135 11.521L85.8623 8.06885L82.3311 13.2714Z" fill="url(#paint6_linear_2549_7464)"/>
<path d="M74.3979 6.41597L79.6706 9.86816L83.2019 4.66557L77.9292 1.21338L74.3979 6.41597Z" fill="url(#paint7_linear_2549_7464)"/>
<path d="M75.4138 21.586L80.7348 25.0382L84.4112 19.6898L79.0417 16.189L75.4138 21.586Z" fill="url(#paint8_linear_2549_7464)"/>
<path d="M83.5405 8.74996L88.8615 12.2021L92.3444 6.99955L87.0717 3.54736L83.5405 8.74996Z" fill="url(#paint9_linear_2549_7464)"/>
<path d="M93.8923 6.61031L99.2134 10.0139L102.696 4.8599L97.4236 1.40771L93.8923 6.61031Z" fill="url(#paint10_linear_2549_7464)"/>
<path d="M62.9819 38.0689L67.7708 41.1807L71.7374 35.2974L66.9968 32.1855L62.9819 38.0689Z" fill="url(#paint11_linear_2549_7464)"/>
<path d="M64.6749 30.0464L69.9476 33.45L73.9626 27.5667L68.6899 24.1631L64.6749 30.0464Z" fill="url(#paint12_linear_2549_7464)"/>
<path d="M74.7849 13.8552L80.1543 17.356L83.7339 12.0562L78.3645 8.604L74.7849 13.8552Z" fill="url(#paint13_linear_2549_7464)"/>
<path d="M68.6415 23.5796L74.0593 27.0805L77.8808 21.4403L72.5114 17.9395L68.6415 23.5796Z" fill="url(#paint14_linear_2549_7464)"/>
<path d="M88.5713 17.2585L93.8923 20.7107L97.4235 15.5567L92.1025 12.1045L88.5713 17.2585Z" fill="url(#paint15_linear_2549_7464)"/>
<path d="M84.4596 23.4822L89.7806 26.9344L93.3118 21.7318L87.9908 18.231L84.4596 23.4822Z" fill="url(#paint16_linear_2549_7464)"/>
<path d="M92.4411 49.9327L97.7622 53.3363L101.148 48.3282L95.8756 44.876L92.4411 49.9327Z" fill="url(#paint17_linear_2549_7464)"/>
<path d="M79.8641 54.6977L85.3786 58.2471L88.668 53.3849L83.1535 49.8354L79.8641 54.6977Z" fill="url(#paint18_linear_2549_7464)"/>
<path d="M73.9142 51.1973L79.719 54.9412L83.2986 49.6414L77.4938 45.8975L73.9142 51.1973Z" fill="url(#paint19_linear_2549_7464)"/>
<path d="M81.0734 17.7934L86.3945 21.2456L89.9741 16.043L84.6047 12.5908L81.0734 17.7934Z" fill="url(#paint20_linear_2549_7464)"/>
<path d="M87.1684 9.38183L90.6997 4.17924L85.3786 0.727051L81.8474 5.92964L87.1684 9.38183Z" fill="url(#paint21_linear_2549_7464)"/>
<path d="M92.683 11.1323L98.004 14.5358L101.535 9.38187L96.2142 5.92969L92.683 11.1323Z" fill="url(#paint22_linear_2549_7464)"/>
<path d="M85.7173 18.9604L90.9899 22.4126L94.5212 17.21L89.2001 13.7578L85.7173 18.9604Z" fill="url(#paint23_linear_2549_7464)"/>
<path d="M64.7233 40.9375L69.4639 44.0493L73.4305 38.166L68.6899 35.0542L64.7233 40.9375Z" fill="url(#paint24_linear_2549_7464)"/>
<path d="M72.8016 23.8225L78.171 27.3233L81.8958 21.8289L76.5263 18.3281L72.8016 23.8225Z" fill="url(#paint25_linear_2549_7464)"/>
<path d="M76.478 16.7237L81.8474 20.1759L85.427 14.9246L80.0576 11.4238L76.478 16.7237Z" fill="url(#paint26_linear_2549_7464)"/>
<path d="M66.4164 26.6426L71.8341 30.1434L75.8491 24.3087L70.383 20.7593L66.4164 26.6426Z" fill="url(#paint27_linear_2549_7464)"/>
<path d="M61.7242 31.0186L66.8517 34.325L70.9151 28.3444L65.7875 25.0381L61.7242 31.0186Z" fill="url(#paint28_linear_2549_7464)"/>
<path d="M72.0276 15.8487L77.3487 19.3009L81.0251 13.9525L75.6556 10.4517L72.0276 15.8487Z" fill="url(#paint29_linear_2549_7464)"/>
<path d="M97.1817 51.4889L102.503 54.9411L105.986 49.7872L100.665 46.335L97.1817 51.4889Z" fill="url(#paint30_linear_2549_7464)"/>
<path d="M89.2969 57.3719L94.5212 60.7755L97.7622 56.0105L92.4895 52.6069L89.2969 57.3719Z" fill="url(#paint31_linear_2549_7464)"/>
<path d="M76.9617 50.4678H73.1402V55.0383H76.9617V50.4678Z" fill="url(#paint32_linear_2549_7464)"/>
<path d="M62.1595 43.8064L69.0285 48.231L74.4463 40.2083L67.6257 35.7837L62.1595 43.8064Z" fill="url(#paint33_linear_2549_7464)"/>
<path d="M103.615 50.4678L107.195 45.2166L101.874 41.813L98.3427 47.0156L103.615 50.4678Z" fill="url(#paint34_linear_2549_7464)"/>
<path d="M90.8932 61.1162L94.0374 56.4971L88.7648 53.0449L85.6689 57.664L90.8932 61.1162Z" fill="url(#paint35_linear_2549_7464)"/>
<path d="M81.412 57.9072L85.0884 52.5101L79.1869 48.6689L75.5105 54.066L81.412 57.9072Z" fill="url(#paint36_linear_2549_7464)"/>
<path d="M79.1385 59.5601L83.1535 53.6768L76.9617 49.6411L72.9467 55.573L79.1385 59.5601Z" fill="url(#paint37_linear_2549_7464)"/>
<path d="M73.5272 46.335H71.6407V49.2523H73.5272V46.335Z" fill="url(#paint38_linear_2549_7464)"/>
<path d="M70.3346 49.7869L75.1235 42.7853L69.1736 38.8955L64.3847 45.8971L70.3346 49.7869Z" fill="url(#paint39_linear_2549_7464)"/>
<path d="M93.4086 13.3686L96.9398 8.16606L91.6188 4.71387L88.1359 9.91646L93.4086 13.3686Z" fill="url(#paint40_linear_2549_7464)"/>
<path d="M83.5405 23.0445L87.1201 17.7447L81.7507 14.2925L78.1711 19.5923L83.5405 23.0445Z" fill="url(#paint41_linear_2549_7464)"/>
<path d="M70.2378 40.0627L74.3012 34.0822L69.1736 30.7759L65.1587 36.7078L70.2378 40.0627Z" fill="url(#paint42_linear_2549_7464)"/>
<path d="M84.7498 18.4256L88.281 13.1744L82.96 9.72217L79.3804 14.9248L84.7498 18.4256Z" fill="url(#paint43_linear_2549_7464)"/>
<path d="M73.5272 33.0125L77.5422 27.1779L72.076 23.6284L68.1094 29.5117L73.5272 33.0125Z" fill="url(#paint44_linear_2549_7464)"/>
<path d="M76.4296 24.4546L80.2027 18.9603L74.8333 15.4595L71.1086 21.0024L76.4296 24.4546Z" fill="url(#paint45_linear_2549_7464)"/>
<path d="M81.3637 12.688L84.8949 7.53401L79.5738 4.0332L76.0426 9.28442L81.3637 12.688Z" fill="url(#paint46_linear_2549_7464)"/>
<path d="M68.2546 30.5813L72.2695 24.698L66.9968 21.2944L62.9819 27.1777L68.2546 30.5813Z" fill="url(#paint47_linear_2549_7464)"/>
<path d="M72.3179 24.2118L76.1877 18.5716L70.8183 15.0708L66.9485 20.711L72.3179 24.2118Z" fill="url(#paint48_linear_2549_7464)"/>
<path d="M102.648 48.0367L108.017 51.4889L111.694 46.1405L106.324 42.6396L102.648 48.0367Z" fill="url(#paint49_linear_2549_7464)"/>
<path d="M87.5554 54.5033L92.8281 57.9068L96.0691 53.1418L90.7964 49.7383L87.5554 54.5033Z" fill="url(#paint50_linear_2549_7464)"/>
<path d="M89.2969 50.9538L94.5212 54.3574L97.8589 49.4952L92.5862 46.043L89.2969 50.9538Z" fill="url(#paint51_linear_2549_7464)"/>
<path d="M81.6539 57.5668L87.0717 61.0676L90.3127 56.3026L84.8949 52.8018L81.6539 57.5668Z" fill="url(#paint52_linear_2549_7464)"/>
<path d="M78.2678 51.7803L83.6372 55.2811L86.8782 50.5648L81.5088 47.064L78.2678 51.7803Z" fill="url(#paint53_linear_2549_7464)"/>
<path d="M71.2053 52.6558L77.4454 56.7401L81.5088 50.7596L75.2686 46.6753L71.2053 52.6558Z" fill="url(#paint54_linear_2549_7464)"/>
<path d="M82.7665 20.6137L88.0875 24.0659L91.6188 18.8633L86.2977 15.4111L82.7665 20.6137Z" fill="url(#paint55_linear_2549_7464)"/>
<path d="M96.7947 4.90837L102.067 8.36055L105.599 3.15796L100.326 -0.245605L96.7947 4.90837Z" fill="url(#paint56_linear_2549_7464)"/>
<path d="M89.3452 5.39469L94.6179 8.84688L98.1492 3.69291L92.8281 0.240723L89.3452 5.39469Z" fill="url(#paint57_linear_2549_7464)"/>
<path d="M78.945 7.58297L84.2661 11.0352L87.7973 5.83256L82.4763 2.38037L78.945 7.58297Z" fill="url(#paint58_linear_2549_7464)"/>
<path d="M60.5148 40.8891L67.2871 45.3137L72.7049 37.3397L65.9326 32.915L60.5148 40.8891Z" fill="url(#paint59_linear_2549_7464)"/>
<path d="M66.368 32.9148L71.6407 36.3184L75.6556 30.4351L70.383 26.9829L66.368 32.9148Z" fill="url(#paint60_linear_2549_7464)"/>
<path d="M70.3346 26.4483L75.7524 29.9491L79.5739 24.3089L74.2044 20.8081L70.3346 26.4483Z" fill="url(#paint61_linear_2549_7464)"/>
<path d="M63.4656 33.8873L68.5448 37.1936L72.6081 31.2131L67.4806 27.9067L63.4656 33.8873Z" fill="url(#paint62_linear_2549_7464)"/>
<path d="M73.7207 18.7174L79.0418 22.1696L82.7181 16.8211L77.3487 13.3203L73.7207 18.7174Z" fill="url(#paint63_linear_2549_7464)"/>
<path d="M77.7357 12.1044L83.0567 15.5566L86.588 10.354L81.2669 6.90186L77.7357 12.1044Z" fill="url(#paint64_linear_2549_7464)"/>
<path d="M61.2888 35.2002L66.0777 38.312L70.0443 32.4287L65.3038 29.3169L61.2888 35.2002Z" fill="url(#paint65_linear_2549_7464)"/>
<path d="M69.3671 18.1338L74.7365 21.586L78.5096 16.0916L73.1402 12.5908L69.3671 18.1338Z" fill="url(#paint66_linear_2549_7464)"/>
<path d="M64.7233 23.7739L70.1411 27.3234L74.1077 21.4401L68.6899 17.8906L64.7233 23.7739Z" fill="url(#paint67_linear_2549_7464)"/>
<path d="M92.1993 17.8906L95.7305 12.688L90.4094 9.23584L86.9266 14.4384L92.1993 17.8906Z" fill="url(#paint68_linear_2549_7464)"/>
<path d="M29.7979 40.9864H32.3616V31.7481H29.7979V40.9864ZM31.1039 27.9556C30.2816 27.9556 29.6528 28.6363 29.7011 29.4629C29.7011 30.2894 30.3783 30.9215 31.2007 30.8729C32.023 30.8729 32.6519 30.1922 32.6035 29.4142C32.6035 28.6363 31.9747 28.0042 31.2007 27.9556C31.1523 27.9556 31.1039 27.9556 31.1039 27.9556ZM13.8347 40.9864H16.3985V31.7481H13.8347V40.9864ZM40.1981 38.5552C39.8595 38.7011 39.5209 38.7984 39.1823 38.7984C38.6502 38.847 38.1664 38.458 38.1181 37.9232C38.1181 37.8259 38.1181 37.7773 38.1181 37.68V33.9847H40.6335V31.7967H38.1181V29.2684L35.5543 29.5115V31.7967H33.8612V33.9847H35.5543V37.68C35.5059 38.6039 35.7961 39.5277 36.425 40.2084C37.0538 40.7919 37.9246 41.1322 38.7953 41.0836H38.9888C39.666 41.0836 40.2948 40.9377 40.9237 40.6946L41.0688 40.646L40.3432 38.458L40.1981 38.5552ZM5.2243 28.0042H0V40.9377H5.2243C7.01411 41.035 8.75554 40.3543 10.0616 39.1387C11.2709 37.8745 11.9482 36.1241 11.8998 34.3251C11.8031 31.4564 10.0616 28.0042 5.2243 28.0042ZM8.02995 37.3397C7.25598 38.069 6.24014 38.4094 5.17593 38.3608H2.7089V30.5812H5.2243C8.02995 30.5812 9.09416 32.5261 9.14253 34.3737C9.1909 35.4434 8.80392 36.5131 8.02995 37.3397ZM26.0248 30.7757L25.1057 31.894C24.4768 31.5536 23.7512 31.4078 23.074 31.4564C20.3167 31.4564 18.2851 33.4013 18.2851 36.1241C18.2851 38.9928 20.1232 40.7433 23.074 40.7433C24.1382 40.7433 25.2508 41.2781 25.2508 42.3964C25.2508 43.5147 24.3801 44.1954 23.074 44.1954C21.7679 44.1954 20.8488 43.4175 20.8488 42.445V42.2992H18.3334V42.445C18.3334 44.8762 20.3167 46.5779 23.1224 46.5779C25.928 46.5779 27.8629 44.8762 27.8629 42.445C27.9113 41.2295 27.2341 40.0625 26.1215 39.4791C27.7178 38.6039 27.8629 36.7076 27.8629 36.1727C27.9113 35.2003 27.5727 34.2765 26.9439 33.5471L28.0081 32.2343L26.0248 30.7757ZM23.074 38.458C21.7679 38.4094 20.8005 37.2911 20.8488 35.9783C20.8972 34.7627 21.8647 33.7903 23.074 33.7416C24.2833 33.7416 25.2992 34.7141 25.2992 35.9783C25.2992 36.0269 25.2992 36.0755 25.2992 36.1241C25.3959 37.3397 24.4768 38.3608 23.2675 38.458C23.2191 38.458 23.1224 38.458 23.074 38.458ZM15.1408 27.9556C14.3185 27.9556 13.6896 28.6363 13.738 29.4629C13.7864 30.2894 14.4152 30.9215 15.2375 30.8729C16.0599 30.8729 16.6887 30.1922 16.6404 29.4142C16.6404 28.6363 16.0115 28.0042 15.2375 27.9556C15.1892 27.9556 15.1408 27.9556 15.1408 27.9556ZM54.5649 40.9864H57.0803V28.0528H54.5649V40.9864ZM154.359 31.6022C153.295 31.6022 152.23 32.0398 151.456 32.7692L151.36 31.6995H149.086V40.9377H151.602V36.2214C151.553 35.0058 152.472 33.9361 153.682 33.8875C153.73 33.8875 153.73 33.8875 153.778 33.8875C155.036 33.8875 155.81 34.7627 155.81 36.1241V40.9377H158.374V36.0755C158.374 33.4013 156.729 31.6022 154.359 31.6022ZM134.09 30.7757L133.171 31.894C132.542 31.5536 131.817 31.4078 131.14 31.4564C128.382 31.4564 126.351 33.4013 126.351 36.1241C126.351 38.9928 128.189 40.7433 131.14 40.7433C132.155 40.7433 133.316 41.2781 133.316 42.3964C133.316 43.5147 132.494 44.1954 131.14 44.1954C129.785 44.1954 128.914 43.4175 128.914 42.445V42.2992H126.399V42.445C126.399 44.8762 128.382 46.5779 131.188 46.5779C133.994 46.5779 135.929 44.8762 135.929 42.445C135.977 41.2295 135.3 40.0625 134.236 39.4791C135.88 38.6039 135.977 36.7076 135.977 36.1727C136.025 35.2003 135.687 34.2765 135.058 33.5471L136.074 32.2343L134.09 30.7757ZM131.091 38.458C129.785 38.4094 128.818 37.2911 128.866 35.9783C128.914 34.7627 129.882 33.7903 131.091 33.7416C132.301 33.7416 133.316 34.7141 133.316 35.9783C133.316 36.0269 133.316 36.0755 133.316 36.1241C133.413 37.3397 132.494 38.3608 131.285 38.458C131.236 38.458 131.188 38.458 131.091 38.458ZM142.217 31.5536C139.411 31.5536 137.38 33.5471 137.38 36.3672C137.38 39.1873 139.363 41.1809 142.265 41.1809C145.168 41.1809 147.151 39.1873 147.151 36.3672C147.151 33.5471 145.071 31.5536 142.217 31.5536ZM142.217 38.847C140.621 38.847 139.895 37.5828 139.895 36.3672C139.895 35.1517 140.621 33.8875 142.217 33.8875C143.523 33.9361 144.587 35.0058 144.539 36.3672C144.539 37.5828 143.813 38.847 142.217 38.847ZM164.42 35.2003C162.872 35.1031 162.872 34.5682 162.872 34.3737C162.872 33.693 163.937 33.6444 164.372 33.6444C165.146 33.5958 165.92 33.8875 166.549 34.4223L166.646 34.5196L168.097 32.8664L168 32.7692C166.984 31.894 165.678 31.4564 164.372 31.5536C162.389 31.5536 160.405 32.4774 160.405 34.471C160.405 36.7562 162.872 37.2911 164.324 37.3883C165.775 37.4856 166.017 37.7773 166.017 38.1663C166.017 38.7497 165.291 39.0901 164.566 39.0901H164.469C163.501 39.0901 162.05 38.6039 161.421 37.8745L161.276 37.7287L160.018 39.5763L160.115 39.6736C161.276 40.8405 162.824 41.424 164.42 41.3267C166.452 41.3267 168.484 40.3543 168.484 38.2635C168.484 35.7838 166.307 35.2975 164.42 35.2003ZM121.9 32.7206C121.175 31.9426 120.159 31.505 119.095 31.5536H119.046C116.096 31.5536 114.209 33.4499 114.209 36.3672C114.016 38.847 115.854 41.035 118.321 41.2295C118.563 41.2295 118.756 41.2295 118.998 41.2295H119.046C120.111 41.2295 121.175 40.7432 121.9 39.9653L121.949 40.9864H124.367V31.7481H121.9V32.7206ZM121.223 38.1176C120.304 39.236 118.659 39.3332 117.547 38.4094C116.434 37.4856 116.337 35.8324 117.257 34.7141C118.176 33.5958 119.82 33.4985 120.933 34.4223C121.513 34.9086 121.804 35.5893 121.852 36.3672C121.852 36.9993 121.61 37.6314 121.223 38.1176ZM97.5203 28.0042H92.296V40.9864H97.5203C99.3101 41.0836 101.003 40.4029 102.309 39.1873C103.519 37.9232 104.196 36.1727 104.147 34.3737C104.099 31.4564 102.358 28.0042 97.5203 28.0042ZM100.374 37.3397C99.6003 38.069 98.5845 38.458 97.5203 38.3608H95.0049V30.5812H97.5203C100.326 30.5812 101.39 32.5261 101.439 34.3737C101.487 35.4434 101.148 36.5131 100.374 37.3397ZM49.6792 32.7206C48.9536 31.9426 47.9378 31.505 46.8736 31.5536H46.8252C43.8745 31.5536 41.9879 33.4499 41.9879 36.3672C41.7944 38.847 43.6326 41.035 46.0996 41.2295C46.3415 41.2295 46.535 41.2295 46.7769 41.2295H46.8252C47.8894 41.2295 48.9536 40.7432 49.6792 39.9653L49.776 40.9864H52.1946V31.7481H49.7276L49.6792 32.7206ZM48.9536 38.1176C48.0346 39.236 46.3899 39.3332 45.2773 38.4094C44.1647 37.4856 44.068 35.8324 44.987 34.7141C45.9061 33.5958 47.5508 33.4985 48.6634 34.4223C49.2439 34.9086 49.5341 35.5893 49.5825 36.3672C49.6309 36.9993 49.389 37.6314 48.9536 38.1176ZM111.21 31.505C110.242 31.4078 109.323 31.7967 108.743 32.5261L108.598 31.6995H106.227V40.9377H108.791V36.0755C108.791 34.1792 110.291 33.9847 110.92 33.9847C111.5 33.9361 112.032 34.1306 112.468 34.5196L112.613 34.6168L113.774 32.4288L113.677 32.3316C112.951 31.7967 112.081 31.505 111.21 31.505Z" fill="white"/>
</g>
<defs>
<linearGradient id="paint0_linear_2549_7464" x1="104.1" y1="42.8341" x2="107.259" y2="44.9228" gradientUnits="userSpaceOnUse">
<stop stop-color="#D6027D"/>
<stop offset="0.21" stop-color="#B80B7E"/>
<stop offset="0.56" stop-color="#8B197F"/>
<stop offset="0.84" stop-color="#6F2280"/>
<stop offset="1" stop-color="#652580"/>
</linearGradient>
<linearGradient id="paint1_linear_2549_7464" x1="89.5042" y1="53.384" x2="94.6076" y2="56.7522" gradientUnits="userSpaceOnUse">
<stop stop-color="#D6027D"/>
<stop offset="0.21" stop-color="#B80B7E"/>
<stop offset="0.56" stop-color="#8B197F"/>
<stop offset="0.84" stop-color="#6F2280"/>
<stop offset="1" stop-color="#652580"/>
</linearGradient>
<linearGradient id="paint2_linear_2549_7464" x1="102.659" y1="56.5224" x2="106.801" y2="59.2604" gradientUnits="userSpaceOnUse">
<stop stop-color="#D6027D"/>
<stop offset="0.21" stop-color="#B80B7E"/>
<stop offset="0.56" stop-color="#8B197F"/>
<stop offset="0.84" stop-color="#6F2280"/>
<stop offset="1" stop-color="#652580"/>
</linearGradient>
<linearGradient id="paint3_linear_2549_7464" x1="82.3131" y1="56.3791" x2="88.1703" y2="60.2472" gradientUnits="userSpaceOnUse">
<stop stop-color="#D6027D"/>
<stop offset="0.21" stop-color="#B80B7E"/>
<stop offset="0.56" stop-color="#8B197F"/>
<stop offset="0.84" stop-color="#6F2280"/>
<stop offset="1" stop-color="#652580"/>
</linearGradient>
<linearGradient id="paint4_linear_2549_7464" x1="75.7089" y1="49.5611" x2="81.8415" y2="53.6152" gradientUnits="userSpaceOnUse">
<stop stop-color="#D6027D"/>
<stop offset="0.21" stop-color="#B80B7E"/>
<stop offset="0.56" stop-color="#8B197F"/>
<stop offset="0.84" stop-color="#6F2280"/>
<stop offset="1" stop-color="#652580"/>
</linearGradient>
<linearGradient id="paint5_linear_2549_7464" x1="69.6009" y1="50.2247" x2="72.6821" y2="50.2247" gradientUnits="userSpaceOnUse">
<stop stop-color="#D6027D"/>
<stop offset="0.21" stop-color="#B80B7E"/>
<stop offset="0.56" stop-color="#8B197F"/>
<stop offset="0.84" stop-color="#6F2280"/>
<stop offset="1" stop-color="#652580"/>
</linearGradient>
<linearGradient id="paint6_linear_2549_7464" x1="89.0325" y1="13.9319" x2="92.7906" y2="16.4159" gradientUnits="userSpaceOnUse">
<stop stop-color="#D6027D"/>
<stop offset="0.21" stop-color="#B80B7E"/>
<stop offset="0.56" stop-color="#8B197F"/>
<stop offset="0.84" stop-color="#6F2280"/>
<stop offset="1" stop-color="#652580"/>
</linearGradient>
<linearGradient id="paint7_linear_2549_7464" x1="77.5592" y1="4.71201" x2="81.3167" y2="7.19574" gradientUnits="userSpaceOnUse">
<stop stop-color="#D6027D"/>
<stop offset="0.21" stop-color="#B80B7E"/>
<stop offset="0.56" stop-color="#8B197F"/>
<stop offset="0.84" stop-color="#6F2280"/>
<stop offset="1" stop-color="#652580"/>
</linearGradient>
<linearGradient id="paint8_linear_2549_7464" x1="71.4863" y1="15.0072" x2="74.9181" y2="17.2767" gradientUnits="userSpaceOnUse">
<stop stop-color="#D6027D"/>
<stop offset="0.21" stop-color="#B80B7E"/>
<stop offset="0.56" stop-color="#8B197F"/>
<stop offset="0.84" stop-color="#6F2280"/>
<stop offset="1" stop-color="#652580"/>
</linearGradient>
<linearGradient id="paint9_linear_2549_7464" x1="91.8026" y1="10.453" x2="95.5522" y2="12.9314" gradientUnits="userSpaceOnUse">
<stop stop-color="#D6027D"/>
<stop offset="0.21" stop-color="#B80B7E"/>
<stop offset="0.56" stop-color="#8B197F"/>
<stop offset="0.84" stop-color="#6F2280"/>
<stop offset="1" stop-color="#652580"/>
</linearGradient>
<linearGradient id="paint10_linear_2549_7464" x1="96.1006" y1="4.26994" x2="99.8401" y2="6.74172" gradientUnits="userSpaceOnUse">
<stop stop-color="#D6027D"/>
<stop offset="0.21" stop-color="#B80B7E"/>
<stop offset="0.56" stop-color="#8B197F"/>
<stop offset="0.84" stop-color="#6F2280"/>
<stop offset="1" stop-color="#652580"/>
</linearGradient>
<linearGradient id="paint11_linear_2549_7464" x1="66.359" y1="36.0154" x2="70.883" y2="39.0026" gradientUnits="userSpaceOnUse">
<stop stop-color="#D6027D"/>
<stop offset="0.21" stop-color="#B80B7E"/>
<stop offset="0.56" stop-color="#8B197F"/>
<stop offset="0.84" stop-color="#6F2280"/>
<stop offset="1" stop-color="#652580"/>
</linearGradient>
<linearGradient id="paint12_linear_2549_7464" x1="71.6325" y1="30.3517" x2="74.743" y2="32.4077" gradientUnits="userSpaceOnUse">
<stop stop-color="#D6027D"/>
<stop offset="0.21" stop-color="#B80B7E"/>
<stop offset="0.56" stop-color="#8B197F"/>
<stop offset="0.84" stop-color="#6F2280"/>
<stop offset="1" stop-color="#652580"/>
</linearGradient>
<linearGradient id="paint13_linear_2549_7464" x1="79.3832" y1="13.038" x2="83.0568" y2="15.4662" gradientUnits="userSpaceOnUse">
<stop stop-color="#D6027D"/>
<stop offset="0.21" stop-color="#B80B7E"/>
<stop offset="0.56" stop-color="#8B197F"/>
<stop offset="0.84" stop-color="#6F2280"/>
<stop offset="1" stop-color="#652580"/>
</linearGradient>
<linearGradient id="paint14_linear_2549_7464" x1="76.102" y1="24.404" x2="78.948" y2="26.2815" gradientUnits="userSpaceOnUse">
<stop stop-color="#D6027D"/>
<stop offset="0.21" stop-color="#B80B7E"/>
<stop offset="0.56" stop-color="#8B197F"/>
<stop offset="0.84" stop-color="#6F2280"/>
<stop offset="1" stop-color="#652580"/>
</linearGradient>
<linearGradient id="paint15_linear_2549_7464" x1="93.3608" y1="16.6501" x2="97.1189" y2="19.1342" gradientUnits="userSpaceOnUse">
<stop stop-color="#D6027D"/>
<stop offset="0.21" stop-color="#B80B7E"/>
<stop offset="0.56" stop-color="#8B197F"/>
<stop offset="0.84" stop-color="#6F2280"/>
<stop offset="1" stop-color="#652580"/>
</linearGradient>
<linearGradient id="paint16_linear_2549_7464" x1="92.1704" y1="24.8006" x2="95.9452" y2="27.2957" gradientUnits="userSpaceOnUse">
<stop stop-color="#D6027D"/>
<stop offset="0.21" stop-color="#B80B7E"/>
<stop offset="0.56" stop-color="#8B197F"/>
<stop offset="0.84" stop-color="#6F2280"/>
<stop offset="1" stop-color="#652580"/>
</linearGradient>
<linearGradient id="paint17_linear_2549_7464" x1="97.0082" y1="49.2723" x2="101.17" y2="52.0231" gradientUnits="userSpaceOnUse">
<stop stop-color="#EEDC11"/>
<stop offset="0.32" stop-color="#CCCF17"/>
<stop offset="1" stop-color="#87B423"/>
</linearGradient>
<linearGradient id="paint18_linear_2549_7464" x1="77.5973" y1="49.5874" x2="83.0935" y2="53.2204" gradientUnits="userSpaceOnUse">
<stop stop-color="#EEDC11"/>
<stop offset="0.32" stop-color="#CCCF17"/>
<stop offset="1" stop-color="#87B423"/>
</linearGradient>
<linearGradient id="paint19_linear_2549_7464" x1="76.245" y1="48.8423" x2="82.0709" y2="52.6932" gradientUnits="userSpaceOnUse">
<stop stop-color="#EEDC11"/>
<stop offset="0.32" stop-color="#CCCF17"/>
<stop offset="1" stop-color="#87B423"/>
</linearGradient>
<linearGradient id="paint20_linear_2549_7464" x1="80.177" y1="13.3479" x2="83.9333" y2="15.8308" gradientUnits="userSpaceOnUse">
<stop stop-color="#EEDC11"/>
<stop offset="0.32" stop-color="#CCCF17"/>
<stop offset="1" stop-color="#87B423"/>
</linearGradient>
<linearGradient id="paint21_linear_2549_7464" x1="87.8453" y1="2.67666" x2="90.3447" y2="-1.06585" gradientUnits="userSpaceOnUse">
<stop stop-color="#EEDC11"/>
<stop offset="0.32" stop-color="#CCCF17"/>
<stop offset="1" stop-color="#87B423"/>
</linearGradient>
<linearGradient id="paint22_linear_2549_7464" x1="101.228" y1="13.0075" x2="104.986" y2="15.4916" gradientUnits="userSpaceOnUse">
<stop stop-color="#EEDC11"/>
<stop offset="0.32" stop-color="#CCCF17"/>
<stop offset="1" stop-color="#87B423"/>
</linearGradient>
<linearGradient id="paint23_linear_2549_7464" x1="92.4068" y1="19.6123" x2="96.1643" y2="22.096" gradientUnits="userSpaceOnUse">
<stop stop-color="#EEDC11"/>
<stop offset="0.32" stop-color="#CCCF17"/>
<stop offset="1" stop-color="#87B423"/>
</linearGradient>
<linearGradient id="paint24_linear_2549_7464" x1="68.1421" y1="38.9282" x2="72.6437" y2="41.9004" gradientUnits="userSpaceOnUse">
<stop stop-color="#EEDC11"/>
<stop offset="0.32" stop-color="#CCCF17"/>
<stop offset="1" stop-color="#87B423"/>
</linearGradient>
<linearGradient id="paint25_linear_2549_7464" x1="78.3412" y1="23.4881" x2="81.4935" y2="25.5717" gradientUnits="userSpaceOnUse">
<stop stop-color="#EEDC11"/>
<stop offset="0.32" stop-color="#CCCF17"/>
<stop offset="1" stop-color="#87B423"/>
</linearGradient>
<linearGradient id="paint26_linear_2549_7464" x1="77.9932" y1="13.8478" x2="81.6504" y2="16.2652" gradientUnits="userSpaceOnUse">
<stop stop-color="#EEDC11"/>
<stop offset="0.32" stop-color="#CCCF17"/>
<stop offset="1" stop-color="#87B423"/>
</linearGradient>
<linearGradient id="paint27_linear_2549_7464" x1="67.6481" y1="23.1447" x2="70.3027" y2="24.902" gradientUnits="userSpaceOnUse">
<stop stop-color="#EEDC11"/>
<stop offset="0.32" stop-color="#CCCF17"/>
<stop offset="1" stop-color="#87B423"/>
</linearGradient>
<linearGradient id="paint28_linear_2549_7464" x1="66.152" y1="29.5698" x2="69.8764" y2="32.0316" gradientUnits="userSpaceOnUse">
<stop stop-color="#EEDC11"/>
<stop offset="0.32" stop-color="#CCCF17"/>
<stop offset="1" stop-color="#87B423"/>
</linearGradient>
<linearGradient id="paint29_linear_2549_7464" x1="73.4352" y1="12.8366" x2="76.8649" y2="15.1036" gradientUnits="userSpaceOnUse">
<stop stop-color="#EEDC11"/>
<stop offset="0.32" stop-color="#CCCF17"/>
<stop offset="1" stop-color="#87B423"/>
</linearGradient>
<linearGradient id="paint30_linear_2549_7464" x1="98.5109" y1="48.584" x2="102.408" y2="51.162" gradientUnits="userSpaceOnUse">
<stop stop-color="#EEDC11"/>
<stop offset="0.32" stop-color="#CCCF17"/>
<stop offset="1" stop-color="#87B423"/>
</linearGradient>
<linearGradient id="paint31_linear_2549_7464" x1="95.1693" y1="57.7862" x2="99.9108" y2="60.9202" gradientUnits="userSpaceOnUse">
<stop stop-color="#EEDC11"/>
<stop offset="0.32" stop-color="#CCCF17"/>
<stop offset="1" stop-color="#87B423"/>
</linearGradient>
<linearGradient id="paint32_linear_2549_7464" x1="69.7754" y1="52.7531" x2="73.597" y2="52.7531" gradientUnits="userSpaceOnUse">
<stop stop-color="#EEDC11"/>
<stop offset="0.32" stop-color="#CCCF17"/>
<stop offset="1" stop-color="#87B423"/>
</linearGradient>
<linearGradient id="paint33_linear_2549_7464" x1="71.1862" y1="43.9321" x2="78.0819" y2="48.4901" gradientUnits="userSpaceOnUse">
<stop stop-color="#EEDC11"/>
<stop offset="0.32" stop-color="#CCCF17"/>
<stop offset="1" stop-color="#87B423"/>
</linearGradient>
<linearGradient id="paint34_linear_2549_7464" x1="103.894" y1="44.4133" x2="106.392" y2="40.673" gradientUnits="userSpaceOnUse">
<stop stop-color="#D30E18"/>
<stop offset="0.2" stop-color="#D93310"/>
<stop offset="0.43" stop-color="#DE5609"/>
<stop offset="0.65" stop-color="#E26F04"/>
<stop offset="0.84" stop-color="#E47F01"/>
<stop offset="1" stop-color="#E58400"/>
</linearGradient>
<linearGradient id="paint35_linear_2549_7464" x1="88.3577" y1="59.3437" x2="90.4349" y2="56.2333" gradientUnits="userSpaceOnUse">
<stop stop-color="#D30E18"/>
<stop offset="0.2" stop-color="#D93310"/>
<stop offset="0.43" stop-color="#DE5609"/>
<stop offset="0.65" stop-color="#E26F04"/>
<stop offset="0.84" stop-color="#E47F01"/>
<stop offset="1" stop-color="#E58400"/>
</linearGradient>
<linearGradient id="paint36_linear_2549_7464" x1="79.8028" y1="54.0382" x2="81.3633" y2="51.7016" gradientUnits="userSpaceOnUse">
<stop stop-color="#D30E18"/>
<stop offset="0.2" stop-color="#D93310"/>
<stop offset="0.43" stop-color="#DE5609"/>
<stop offset="0.65" stop-color="#E26F04"/>
<stop offset="0.84" stop-color="#E47F01"/>
<stop offset="1" stop-color="#E58400"/>
</linearGradient>
<linearGradient id="paint37_linear_2549_7464" x1="78.6777" y1="53.6754" x2="79.7516" y2="52.0678" gradientUnits="userSpaceOnUse">
<stop stop-color="#D30E18"/>
<stop offset="0.2" stop-color="#D93310"/>
<stop offset="0.43" stop-color="#DE5609"/>
<stop offset="0.65" stop-color="#E26F04"/>
<stop offset="0.84" stop-color="#E47F01"/>
<stop offset="1" stop-color="#E58400"/>
</linearGradient>
<linearGradient id="paint38_linear_2549_7464" x1="72.5836" y1="44.881" x2="72.5836" y2="41.9584" gradientUnits="userSpaceOnUse">
<stop stop-color="#D30E18"/>
<stop offset="0.2" stop-color="#D93310"/>
<stop offset="0.43" stop-color="#DE5609"/>
<stop offset="0.65" stop-color="#E26F04"/>
<stop offset="0.84" stop-color="#E47F01"/>
<stop offset="1" stop-color="#E58400"/>
</linearGradient>
<linearGradient id="paint39_linear_2549_7464" x1="72.3005" y1="40.485" x2="75.1766" y2="36.1731" gradientUnits="userSpaceOnUse">
<stop stop-color="#D30E18"/>
<stop offset="0.2" stop-color="#D93310"/>
<stop offset="0.43" stop-color="#DE5609"/>
<stop offset="0.65" stop-color="#E26F04"/>
<stop offset="0.84" stop-color="#E47F01"/>
<stop offset="1" stop-color="#E58400"/>
</linearGradient>
<linearGradient id="paint40_linear_2549_7464" x1="94.1041" y1="6.67273" x2="96.5914" y2="2.94838" gradientUnits="userSpaceOnUse">
<stop stop-color="#D30E18"/>
<stop offset="0.2" stop-color="#D93310"/>
<stop offset="0.43" stop-color="#DE5609"/>
<stop offset="0.65" stop-color="#E26F04"/>
<stop offset="0.84" stop-color="#E47F01"/>
<stop offset="1" stop-color="#E58400"/>
</linearGradient>
<linearGradient id="paint41_linear_2549_7464" x1="82.911" y1="18.2686" x2="85.4586" y2="14.4537" gradientUnits="userSpaceOnUse">
<stop stop-color="#D30E18"/>
<stop offset="0.2" stop-color="#D93310"/>
<stop offset="0.43" stop-color="#DE5609"/>
<stop offset="0.65" stop-color="#E26F04"/>
<stop offset="0.84" stop-color="#E47F01"/>
<stop offset="1" stop-color="#E58400"/>
</linearGradient>
<linearGradient id="paint42_linear_2549_7464" x1="63.8075" y1="44.3337" x2="66.8133" y2="39.843" gradientUnits="userSpaceOnUse">
<stop stop-color="#D30E18"/>
<stop offset="0.2" stop-color="#D93310"/>
<stop offset="0.43" stop-color="#DE5609"/>
<stop offset="0.65" stop-color="#E26F04"/>
<stop offset="0.84" stop-color="#E47F01"/>
<stop offset="1" stop-color="#E58400"/>
</linearGradient>
<linearGradient id="paint43_linear_2549_7464" x1="84.0736" y1="13.6816" x2="86.5771" y2="9.93295" gradientUnits="userSpaceOnUse">
<stop stop-color="#D30E18"/>
<stop offset="0.2" stop-color="#D93310"/>
<stop offset="0.43" stop-color="#DE5609"/>
<stop offset="0.65" stop-color="#E26F04"/>
<stop offset="0.84" stop-color="#E47F01"/>
<stop offset="1" stop-color="#E58400"/>
</linearGradient>
<linearGradient id="paint44_linear_2549_7464" x1="74.428" y1="25.9219" x2="77.368" y2="21.5196" gradientUnits="userSpaceOnUse">
<stop stop-color="#D30E18"/>
<stop offset="0.2" stop-color="#D93310"/>
<stop offset="0.43" stop-color="#DE5609"/>
<stop offset="0.65" stop-color="#E26F04"/>
<stop offset="0.84" stop-color="#E47F01"/>
<stop offset="1" stop-color="#E58400"/>
</linearGradient>
<linearGradient id="paint45_linear_2549_7464" x1="73.3724" y1="23.4342" x2="76.0697" y2="19.3952" gradientUnits="userSpaceOnUse">
<stop stop-color="#D30E18"/>
<stop offset="0.2" stop-color="#D93310"/>
<stop offset="0.43" stop-color="#DE5609"/>
<stop offset="0.65" stop-color="#E26F04"/>
<stop offset="0.84" stop-color="#E47F01"/>
<stop offset="1" stop-color="#E58400"/>
</linearGradient>
<linearGradient id="paint46_linear_2549_7464" x1="78.0706" y1="12.0387" x2="80.5865" y2="8.27138" gradientUnits="userSpaceOnUse">
<stop stop-color="#D30E18"/>
<stop offset="0.2" stop-color="#D93310"/>
<stop offset="0.43" stop-color="#DE5609"/>
<stop offset="0.65" stop-color="#E26F04"/>
<stop offset="0.84" stop-color="#E47F01"/>
<stop offset="1" stop-color="#E58400"/>
</linearGradient>
<linearGradient id="paint47_linear_2549_7464" x1="65.9751" y1="28.4358" x2="68.9316" y2="24.0085" gradientUnits="userSpaceOnUse">
<stop stop-color="#D30E18"/>
<stop offset="0.2" stop-color="#D93310"/>
<stop offset="0.43" stop-color="#DE5609"/>
<stop offset="0.65" stop-color="#E26F04"/>
<stop offset="0.84" stop-color="#E47F01"/>
<stop offset="1" stop-color="#E58400"/>
</linearGradient>
<linearGradient id="paint48_linear_2549_7464" x1="71.4165" y1="19.8705" x2="74.2134" y2="15.6824" gradientUnits="userSpaceOnUse">
<stop stop-color="#D30E18"/>
<stop offset="0.2" stop-color="#D93310"/>
<stop offset="0.43" stop-color="#DE5609"/>
<stop offset="0.65" stop-color="#E26F04"/>
<stop offset="0.84" stop-color="#E47F01"/>
<stop offset="1" stop-color="#E58400"/>
</linearGradient>
<linearGradient id="paint49_linear_2549_7464" x1="100.257" y1="42.4559" x2="103.679" y2="44.7252" gradientUnits="userSpaceOnUse">
<stop stop-color="#7BC2E7"/>
<stop offset="0.19" stop-color="#77C0E6"/>
<stop offset="0.37" stop-color="#6CBCE5"/>
<stop offset="0.54" stop-color="#59B4E1"/>
<stop offset="0.72" stop-color="#3EA9DD"/>
<stop offset="0.89" stop-color="#1B9AD7"/>
<stop offset="1" stop-color="#008FD3"/>
</linearGradient>
<linearGradient id="paint50_linear_2549_7464" x1="94.3404" y1="55.5113" x2="99.1157" y2="58.6678" gradientUnits="userSpaceOnUse">
<stop stop-color="#7BC2E7"/>
<stop offset="0.19" stop-color="#77C0E6"/>
<stop offset="0.37" stop-color="#6CBCE5"/>
<stop offset="0.54" stop-color="#59B4E1"/>
<stop offset="0.72" stop-color="#3EA9DD"/>
<stop offset="0.89" stop-color="#1B9AD7"/>
<stop offset="1" stop-color="#008FD3"/>
</linearGradient>
<linearGradient id="paint51_linear_2549_7464" x1="88.242" y1="46.6574" x2="92.6512" y2="49.5751" gradientUnits="userSpaceOnUse">
<stop stop-color="#7BC2E7"/>
<stop offset="0.19" stop-color="#77C0E6"/>
<stop offset="0.37" stop-color="#6CBCE5"/>
<stop offset="0.54" stop-color="#59B4E1"/>
<stop offset="0.72" stop-color="#3EA9DD"/>
<stop offset="0.89" stop-color="#1B9AD7"/>
<stop offset="1" stop-color="#008FD3"/>
</linearGradient>
<linearGradient id="paint52_linear_2549_7464" x1="84.3372" y1="55.8376" x2="89.7722" y2="59.4256" gradientUnits="userSpaceOnUse">
<stop stop-color="#7BC2E7"/>
<stop offset="0.19" stop-color="#77C0E6"/>
<stop offset="0.37" stop-color="#6CBCE5"/>
<stop offset="0.54" stop-color="#59B4E1"/>
<stop offset="0.72" stop-color="#3EA9DD"/>
<stop offset="0.89" stop-color="#1B9AD7"/>
<stop offset="1" stop-color="#008FD3"/>
</linearGradient>
<linearGradient id="paint53_linear_2549_7464" x1="80.293" y1="49.6506" x2="85.7156" y2="53.235" gradientUnits="userSpaceOnUse">
<stop stop-color="#7BC2E7"/>
<stop offset="0.19" stop-color="#77C0E6"/>
<stop offset="0.37" stop-color="#6CBCE5"/>
<stop offset="0.54" stop-color="#59B4E1"/>
<stop offset="0.72" stop-color="#3EA9DD"/>
<stop offset="0.89" stop-color="#1B9AD7"/>
<stop offset="1" stop-color="#008FD3"/>
</linearGradient>
<linearGradient id="paint54_linear_2549_7464" x1="67.3731" y1="45.7034" x2="73.6671" y2="49.8678" gradientUnits="userSpaceOnUse">
<stop stop-color="#7BC2E7"/>
<stop offset="0.19" stop-color="#77C0E6"/>
<stop offset="0.37" stop-color="#6CBCE5"/>
<stop offset="0.54" stop-color="#59B4E1"/>
<stop offset="0.72" stop-color="#3EA9DD"/>
<stop offset="0.89" stop-color="#1B9AD7"/>
<stop offset="1" stop-color="#008FD3"/>
</linearGradient>
<linearGradient id="paint55_linear_2549_7464" x1="90.8586" y1="22.1821" x2="94.6334" y2="24.6724" gradientUnits="userSpaceOnUse">
<stop stop-color="#7BC2E7"/>
<stop offset="0.19" stop-color="#77C0E6"/>
<stop offset="0.37" stop-color="#6CBCE5"/>
<stop offset="0.54" stop-color="#59B4E1"/>
<stop offset="0.72" stop-color="#3EA9DD"/>
<stop offset="0.89" stop-color="#1B9AD7"/>
<stop offset="1" stop-color="#008FD3"/>
</linearGradient>
<linearGradient id="paint56_linear_2549_7464" x1="99.0104" y1="2.57292" x2="102.769" y2="5.05701" gradientUnits="userSpaceOnUse">
<stop stop-color="#7BC2E7"/>
<stop offset="0.19" stop-color="#77C0E6"/>
<stop offset="0.37" stop-color="#6CBCE5"/>
<stop offset="0.54" stop-color="#59B4E1"/>
<stop offset="0.72" stop-color="#3EA9DD"/>
<stop offset="0.89" stop-color="#1B9AD7"/>
<stop offset="1" stop-color="#008FD3"/>
</linearGradient>
<linearGradient id="paint57_linear_2549_7464" x1="94.8875" y1="5.30521" x2="98.6451" y2="7.78893" gradientUnits="userSpaceOnUse">
<stop stop-color="#7BC2E7"/>
<stop offset="0.19" stop-color="#77C0E6"/>
<stop offset="0.37" stop-color="#6CBCE5"/>
<stop offset="0.54" stop-color="#59B4E1"/>
<stop offset="0.72" stop-color="#3EA9DD"/>
<stop offset="0.89" stop-color="#1B9AD7"/>
<stop offset="1" stop-color="#008FD3"/>
</linearGradient>
<linearGradient id="paint58_linear_2549_7464" x1="84.8156" y1="7.67153" x2="88.5701" y2="10.1517" gradientUnits="userSpaceOnUse">
<stop stop-color="#7BC2E7"/>
<stop offset="0.19" stop-color="#77C0E6"/>
<stop offset="0.37" stop-color="#6CBCE5"/>
<stop offset="0.54" stop-color="#59B4E1"/>
<stop offset="0.72" stop-color="#3EA9DD"/>
<stop offset="0.89" stop-color="#1B9AD7"/>
<stop offset="1" stop-color="#008FD3"/>
</linearGradient>
<linearGradient id="paint59_linear_2549_7464" x1="57.7082" y1="33.1651" x2="64.5719" y2="37.7041" gradientUnits="userSpaceOnUse">
<stop stop-color="#7BC2E7"/>
<stop offset="0.19" stop-color="#77C0E6"/>
<stop offset="0.37" stop-color="#6CBCE5"/>
<stop offset="0.54" stop-color="#59B4E1"/>
<stop offset="0.72" stop-color="#3EA9DD"/>
<stop offset="0.89" stop-color="#1B9AD7"/>
<stop offset="1" stop-color="#008FD3"/>
</linearGradient>
<linearGradient id="paint60_linear_2549_7464" x1="73.3202" y1="33.2169" x2="76.4309" y2="35.273" gradientUnits="userSpaceOnUse">
<stop stop-color="#7BC2E7"/>
<stop offset="0.19" stop-color="#77C0E6"/>
<stop offset="0.37" stop-color="#6CBCE5"/>
<stop offset="0.54" stop-color="#59B4E1"/>
<stop offset="0.72" stop-color="#3EA9DD"/>
<stop offset="0.89" stop-color="#1B9AD7"/>
<stop offset="1" stop-color="#008FD3"/>
</linearGradient>
<linearGradient id="paint61_linear_2549_7464" x1="68.7415" y1="21.2296" x2="71.5915" y2="23.1134" gradientUnits="userSpaceOnUse">
<stop stop-color="#7BC2E7"/>
<stop offset="0.19" stop-color="#77C0E6"/>
<stop offset="0.37" stop-color="#6CBCE5"/>
<stop offset="0.54" stop-color="#59B4E1"/>
<stop offset="0.72" stop-color="#3EA9DD"/>
<stop offset="0.89" stop-color="#1B9AD7"/>
<stop offset="1" stop-color="#008FD3"/>
</linearGradient>
<linearGradient id="paint62_linear_2549_7464" x1="74.6729" y1="36.9786" x2="78.4153" y2="39.4507" gradientUnits="userSpaceOnUse">
<stop stop-color="#7BC2E7"/>
<stop offset="0.19" stop-color="#77C0E6"/>
<stop offset="0.37" stop-color="#6CBCE5"/>
<stop offset="0.54" stop-color="#59B4E1"/>
<stop offset="0.72" stop-color="#3EA9DD"/>
<stop offset="0.89" stop-color="#1B9AD7"/>
<stop offset="1" stop-color="#008FD3"/>
</linearGradient>
<linearGradient id="paint63_linear_2549_7464" x1="72.315" y1="13.8266" x2="75.7452" y2="16.0939" gradientUnits="userSpaceOnUse">
<stop stop-color="#7BC2E7"/>
<stop offset="0.19" stop-color="#77C0E6"/>
<stop offset="0.37" stop-color="#6CBCE5"/>
<stop offset="0.54" stop-color="#59B4E1"/>
<stop offset="0.72" stop-color="#3EA9DD"/>
<stop offset="0.89" stop-color="#1B9AD7"/>
<stop offset="1" stop-color="#008FD3"/>
</linearGradient>
<linearGradient id="paint64_linear_2549_7464" x1="85.8786" y1="13.7115" x2="89.6445" y2="16.2007" gradientUnits="userSpaceOnUse">
<stop stop-color="#7BC2E7"/>
<stop offset="0.19" stop-color="#77C0E6"/>
<stop offset="0.37" stop-color="#6CBCE5"/>
<stop offset="0.54" stop-color="#59B4E1"/>
<stop offset="0.72" stop-color="#3EA9DD"/>
<stop offset="0.89" stop-color="#1B9AD7"/>
<stop offset="1" stop-color="#008FD3"/>
</linearGradient>
<linearGradient id="paint65_linear_2549_7464" x1="68.3045" y1="35.5761" x2="72.8244" y2="38.5637" gradientUnits="userSpaceOnUse">
<stop stop-color="#7BC2E7"/>
<stop offset="0.19" stop-color="#77C0E6"/>
<stop offset="0.37" stop-color="#6CBCE5"/>
<stop offset="0.54" stop-color="#59B4E1"/>
<stop offset="0.72" stop-color="#3EA9DD"/>
<stop offset="0.89" stop-color="#1B9AD7"/>
<stop offset="1" stop-color="#008FD3"/>
</linearGradient>
<linearGradient id="paint66_linear_2549_7464" x1="77.7329" y1="19.6466" x2="80.8857" y2="21.7305" gradientUnits="userSpaceOnUse">
<stop stop-color="#7BC2E7"/>
<stop offset="0.19" stop-color="#77C0E6"/>
<stop offset="0.37" stop-color="#6CBCE5"/>
<stop offset="0.54" stop-color="#59B4E1"/>
<stop offset="0.72" stop-color="#3EA9DD"/>
<stop offset="0.89" stop-color="#1B9AD7"/>
<stop offset="1" stop-color="#008FD3"/>
</linearGradient>
<linearGradient id="paint67_linear_2549_7464" x1="62.3369" y1="17.8726" x2="65.0043" y2="19.6384" gradientUnits="userSpaceOnUse">
<stop stop-color="#7BC2E7"/>
<stop offset="0.19" stop-color="#77C0E6"/>
<stop offset="0.37" stop-color="#6CBCE5"/>
<stop offset="0.54" stop-color="#59B4E1"/>
<stop offset="0.72" stop-color="#3EA9DD"/>
<stop offset="0.89" stop-color="#1B9AD7"/>
<stop offset="1" stop-color="#008FD3"/>
</linearGradient>
<linearGradient id="paint68_linear_2549_7464" x1="91.4951" y1="13.311" x2="93.9944" y2="9.5685" gradientUnits="userSpaceOnUse">
<stop stop-color="#7BC2E7"/>
<stop offset="0.19" stop-color="#77C0E6"/>
<stop offset="0.37" stop-color="#6CBCE5"/>
<stop offset="0.54" stop-color="#59B4E1"/>
<stop offset="0.72" stop-color="#3EA9DD"/>
<stop offset="0.89" stop-color="#1B9AD7"/>
<stop offset="1" stop-color="#008FD3"/>
</linearGradient>
<clipPath id="clip0_2549_7464">
<rect width="168" height="60" fill="white" transform="translate(0 0.727051)"/>
</clipPath>
</defs>
</svg>
