<svg width="463" height="463" viewBox="0 0 463 463" fill="none" xmlns="http://www.w3.org/2000/svg">
<path d="M218.964 272.129L402.664 280.045L296.472 384.246C296.345 384.368 296.176 384.435 296.001 384.434L112.149 381.154L218.964 272.129Z" fill="white" stroke="black" stroke-width="6" stroke-linecap="round" stroke-linejoin="round"/>
<path d="M161.818 81.4428L58.2502 194.073C57.813 194.537 57.6543 195.198 57.8332 195.809L112.141 381.146L218.964 272.129L161.818 81.4428Z" fill="#9AF3FF" stroke="black" stroke-width="6" stroke-linecap="round" stroke-linejoin="round"/>
<path d="M351.991 84.991L161.818 81.4431L218.964 272.129L402.664 280.045L354.025 86.6433C353.791 85.701 352.962 85.0272 351.991 84.991Z" fill="#62A3FF" stroke="black" stroke-width="6" stroke-linecap="round" stroke-linejoin="round"/>
<path d="M300.941 207.438L305.782 225.778L287.545 220.583" stroke="black" stroke-width="6" stroke-linecap="round" stroke-linejoin="round"/>
<path d="M223.741 155.56L211.954 170.423L205.181 152.712" stroke="black" stroke-width="6" stroke-linecap="round" stroke-linejoin="round"/>
<path d="M322.565 98.9701L341.525 99.4576L331.444 115.515" stroke="black" stroke-width="6" stroke-linecap="round" stroke-linejoin="round"/>
<path d="M263.803 106.787L280.42 97.6547L279.794 116.613" stroke="black" stroke-width="6" stroke-linecap="round" stroke-linejoin="round"/>
<path d="M338.242 169.615L354.866 160.491L354.24 179.449" stroke="black" stroke-width="6" stroke-linecap="round" stroke-linejoin="round"/>
<path d="M305.698 185.021L292.959 170.966L311.544 167.168" stroke="black" stroke-width="6" stroke-linecap="round" stroke-linejoin="round"/>
<path d="M232.685 243.388L249.294 234.263L248.675 253.214" stroke="black" stroke-width="6" stroke-linecap="round" stroke-linejoin="round"/>
<path d="M360.538 243.273L378.45 249.489L363.968 261.731" stroke="black" stroke-width="6" stroke-linecap="round" stroke-linejoin="round"/>
<path d="M197.336 110.734L189.256 93.5879L208.134 95.3764" stroke="black" stroke-width="6" stroke-linecap="round" stroke-linejoin="round"/>
<path d="M283.149 243.088L293.56 258.938" stroke="black" stroke-width="6" stroke-linecap="round" stroke-linejoin="round"/>
<path d="M239.103 190.299L229.167 206.443" stroke="black" stroke-width="6" stroke-linecap="round" stroke-linejoin="round"/>
<path d="M330.715 132.301L326.949 150.891" stroke="black" stroke-width="6" stroke-linecap="round" stroke-linejoin="round"/>
<path d="M273.951 147.893L255.228 150.898" stroke="black" stroke-width="6" stroke-linecap="round" stroke-linejoin="round"/>
<path d="M341.252 212.14L332.205 228.801" stroke="black" stroke-width="6" stroke-linecap="round" stroke-linejoin="round"/>
<path d="M224.363 98.8036L235.875 113.864" stroke="black" stroke-width="6" stroke-linecap="round" stroke-linejoin="round"/>
<path d="M266.824 199.466C268.775 197.551 271.751 200.583 269.799 202.498C267.848 204.413 264.864 201.389 266.824 199.466Z" stroke="black" stroke-width="6" stroke-linecap="round" stroke-linejoin="round"/>
<path d="M331.913 252.408C333.864 250.493 336.847 253.517 334.888 255.44C332.929 257.362 329.961 254.323 331.913 252.408Z" stroke="black" stroke-width="6" stroke-linecap="round" stroke-linejoin="round"/>
<path d="M300.873 118.5C302.817 116.593 305.8 119.617 303.849 121.532C301.897 123.447 298.914 120.422 300.873 118.5Z" stroke="black" stroke-width="6" stroke-linecap="round" stroke-linejoin="round"/>
<path d="M212.696 189.657C214.639 187.749 217.623 190.774 215.671 192.689C213.72 194.604 210.736 191.579 212.696 189.657Z" stroke="black" stroke-width="6" stroke-linecap="round" stroke-linejoin="round"/>
<path d="M222.962 127.969C224.913 126.054 227.897 129.079 225.937 131.001C223.978 132.924 221.01 129.884 222.962 127.969Z" stroke="black" stroke-width="6" stroke-linecap="round" stroke-linejoin="round"/>
<path d="M363.057 202.541C365.009 200.626 367.984 203.659 366.033 205.574C364.081 207.489 361.106 204.456 363.057 202.541Z" stroke="black" stroke-width="6" stroke-linecap="round" stroke-linejoin="round"/>
<path d="M72.4462 178.647L128.599 363.608L72.4462 178.647Z" fill="#9AF3FF"/>
<path d="M72.4462 178.647L128.599 363.608" stroke="black" stroke-width="6" stroke-linecap="round" stroke-linejoin="round"/>
<path d="M91.5141 157.922L147.422 345.138L91.5141 157.922Z" fill="#9AF3FF"/>
<path d="M91.5141 157.922L147.422 345.138" stroke="black" stroke-width="6" stroke-linecap="round" stroke-linejoin="round"/>
<path d="M111.002 136.754L166.213 325.966L111.002 136.754Z" fill="#9AF3FF"/>
<path d="M111.002 136.754L166.213 325.966" stroke="black" stroke-width="6" stroke-linecap="round" stroke-linejoin="round"/>
<path d="M129.612 116.479L184.826 306.97L129.612 116.479Z" fill="#9AF3FF"/>
<path d="M129.612 116.479L184.826 306.97" stroke="black" stroke-width="6" stroke-linecap="round" stroke-linejoin="round"/>
<path d="M146.231 98.9504L203.268 288.141L146.231 98.9504Z" fill="#9AF3FF"/>
<path d="M146.231 98.9504L203.268 288.141" stroke="black" stroke-width="6" stroke-linecap="round" stroke-linejoin="round"/>
</svg>
