<svg width="409" height="409" viewBox="0 0 409 409" fill="none" xmlns="http://www.w3.org/2000/svg">
<path d="M156.756 107.231L91.6088 223.321L155.047 219.842L200.056 139.638L156.756 107.231Z" fill="#FF81AF" stroke="black" stroke-width="6" stroke-linecap="round" stroke-linejoin="round"/>
<path d="M91.609 223.321L190.83 298.358L211.042 262.342L155.047 219.842L91.609 223.321Z" fill="#FFFEAA" stroke="black" stroke-width="6" stroke-linecap="round" stroke-linejoin="round"/>
<path d="M143.594 28.497L323.932 165.694L386.014 164.756C385.941 164.513 385.778 164.307 385.558 164.179L205.201 29.4255L143.594 28.497Z" fill="#9AF3FF" stroke="black" stroke-width="6" stroke-linecap="round" stroke-linejoin="round"/>
<path d="M323.932 165.694L204.145 379.15L267.227 377.225L385.923 165.714C386.093 165.424 386.126 165.073 386.014 164.756L323.932 165.694Z" fill="#62A3FF" stroke="black" stroke-width="6" stroke-linecap="round" stroke-linejoin="round"/>
<path d="M177.113 29.0058L355.193 165.222L235.685 378.181" stroke="black" stroke-width="6" stroke-linecap="round" stroke-linejoin="round"/>
<path fill-rule="evenodd" clip-rule="evenodd" d="M204.146 379.15L323.933 165.695L143.594 28.4972L24.9471 239.921L204.146 379.15ZM190.805 298.344L91.5848 223.365L156.73 107.217L200.03 139.623L256.25 181.722L190.805 298.344Z" fill="white"/>
<path d="M323.933 165.695L325.749 163.307C326.94 164.213 327.281 165.858 326.549 167.163L323.933 165.695ZM204.146 379.15L206.762 380.619C206.334 381.38 205.596 381.918 204.74 382.091C203.884 382.264 202.995 382.055 202.305 381.519L204.146 379.15ZM143.594 28.4972L140.978 27.029C141.402 26.2719 142.134 25.736 142.985 25.5597C143.835 25.3834 144.719 25.584 145.41 26.1096L143.594 28.4972ZM24.9471 239.921L23.1065 242.29C21.934 241.379 21.6043 239.748 22.3309 238.453L24.9471 239.921ZM91.5848 223.365L89.7761 225.758C88.5796 224.854 88.2346 223.205 88.9682 221.897L91.5848 223.365ZM190.805 298.344L193.421 299.812C192.997 300.567 192.267 301.103 191.419 301.28C190.57 301.457 189.687 301.259 188.996 300.737L190.805 298.344ZM156.73 107.217L154.114 105.749C154.536 104.995 155.264 104.461 156.109 104.282C156.954 104.103 157.836 104.297 158.528 104.815L156.73 107.217ZM200.03 139.623L201.828 137.221L201.829 137.222L200.03 139.623ZM256.25 181.722L258.048 179.321C259.253 180.223 259.603 181.878 258.866 183.19L256.25 181.722ZM326.549 167.163L206.762 380.619L201.529 377.682L321.316 164.226L326.549 167.163ZM145.41 26.1096L325.749 163.307L322.116 168.082L141.777 30.8848L145.41 26.1096ZM22.3309 238.453L140.978 27.029L146.21 29.9653L27.5633 241.389L22.3309 238.453ZM202.305 381.519L23.1065 242.29L26.7877 237.552L205.986 376.781L202.305 381.519ZM93.3935 220.971L192.613 295.95L188.996 300.737L89.7761 225.758L93.3935 220.971ZM159.347 108.684L94.2013 224.832L88.9682 221.897L154.114 105.749L159.347 108.684ZM198.233 142.025L154.933 109.619L158.528 104.815L201.828 137.221L198.233 142.025ZM254.452 184.123L198.232 142.024L201.829 137.222L258.048 179.321L254.452 184.123ZM188.188 296.875L253.634 180.254L258.866 183.19L193.421 299.812L188.188 296.875Z" fill="black"/>
<path d="M190.997 108.764L181.113 110.866" stroke="black" stroke-width="6" stroke-linecap="round" stroke-linejoin="round"/>
<path d="M133.184 119.873L123.306 121.966" stroke="black" stroke-width="6" stroke-linecap="round" stroke-linejoin="round"/>
<path d="M176.357 80.0684L166.465 82.1657" stroke="black" stroke-width="6" stroke-linecap="round" stroke-linejoin="round"/>
<path d="M151.073 53.564L141.181 55.6613" stroke="black" stroke-width="6" stroke-linecap="round" stroke-linejoin="round"/>
<path d="M131.739 91.3687L121.856 93.4709" stroke="black" stroke-width="6" stroke-linecap="round" stroke-linejoin="round"/>
<path d="M236.29 146.222L226.406 148.324" stroke="black" stroke-width="6" stroke-linecap="round" stroke-linejoin="round"/>
<path d="M100.294 144.05L90.4025 146.147" stroke="black" stroke-width="6" stroke-linecap="round" stroke-linejoin="round"/>
<path d="M230.502 110.66L220.624 112.754" stroke="black" stroke-width="6" stroke-linecap="round" stroke-linejoin="round"/>
<path d="M274.812 144.333L264.921 146.43" stroke="black" stroke-width="6" stroke-linecap="round" stroke-linejoin="round"/>
<path d="M105.017 172.925L95.1339 175.028" stroke="black" stroke-width="6" stroke-linecap="round" stroke-linejoin="round"/>
<path d="M281.364 189.096L271.486 191.189" stroke="black" stroke-width="6" stroke-linecap="round" stroke-linejoin="round"/>
<path d="M263.36 221.179L253.482 223.273" stroke="black" stroke-width="6" stroke-linecap="round" stroke-linejoin="round"/>
<path d="M311.775 168.906L301.888 170.994" stroke="black" stroke-width="6" stroke-linecap="round" stroke-linejoin="round"/>
<path d="M267.109 248.499L257.217 250.596" stroke="black" stroke-width="6" stroke-linecap="round" stroke-linejoin="round"/>
<path d="M234.635 256.856L224.743 258.953" stroke="black" stroke-width="6" stroke-linecap="round" stroke-linejoin="round"/>
<path d="M77.6812 187.697L67.798 189.799" stroke="black" stroke-width="6" stroke-linecap="round" stroke-linejoin="round"/>
<path d="M232.916 283.194L223.029 285.282" stroke="black" stroke-width="6" stroke-linecap="round" stroke-linejoin="round"/>
<path d="M221.851 318.277L211.959 320.375" stroke="black" stroke-width="6" stroke-linecap="round" stroke-linejoin="round"/>
<path d="M80.9722 220.677L71.0803 222.774" stroke="black" stroke-width="6" stroke-linecap="round" stroke-linejoin="round"/>
<path d="M49.957 237.1L40.0738 239.202" stroke="black" stroke-width="6" stroke-linecap="round" stroke-linejoin="round"/>
<path d="M189.301 319.126L179.423 321.22" stroke="black" stroke-width="6" stroke-linecap="round" stroke-linejoin="round"/>
<path d="M82.3262 247.627L72.4392 249.716" stroke="black" stroke-width="6" stroke-linecap="round" stroke-linejoin="round"/>
<path d="M124.998 260.107L115.12 262.2" stroke="black" stroke-width="6" stroke-linecap="round" stroke-linejoin="round"/>
<path d="M202.285 353.143L192.393 355.24" stroke="black" stroke-width="6" stroke-linecap="round" stroke-linejoin="round"/>
<path d="M92.541 272.418L82.6491 274.515" stroke="black" stroke-width="6" stroke-linecap="round" stroke-linejoin="round"/>
<path d="M157.822 293.812L147.93 295.91" stroke="black" stroke-width="6" stroke-linecap="round" stroke-linejoin="round"/>
<path d="M123.478 293.609L113.6 295.702" stroke="black" stroke-width="6" stroke-linecap="round" stroke-linejoin="round"/>
<path d="M156.884 323.846L146.992 325.943" stroke="black" stroke-width="6" stroke-linecap="round" stroke-linejoin="round"/>
</svg>
