<svg width="178" height="50" viewBox="0 0 178 50" fill="none" xmlns="http://www.w3.org/2000/svg">
<path fill-rule="evenodd" clip-rule="evenodd" d="M37.3892 17.2347L31.6999 22.9241L29.5786 20.8027L35.2679 15.1134L29.5786 9.42405L31.6999 7.30273L37.3892 12.9921L43.0786 7.30273L45.1999 9.42405L39.5106 15.1134L45.1999 20.8027L43.0786 22.9241L37.3892 17.2347Z" fill="white"/>
<path fill-rule="evenodd" clip-rule="evenodd" d="M9.38924 40.2347L3.69989 45.9241L1.57857 43.8027L7.26792 38.1134L1.57858 32.4241L3.6999 30.3027L9.38924 35.9921L15.0786 30.3027L17.1999 32.4241L11.5106 38.1134L17.1999 43.8027L15.0786 45.9241L9.38924 40.2347Z" fill="white"/>
<path fill-rule="evenodd" clip-rule="evenodd" d="M46.6393 38.3633C46.6393 43.3338 42.6098 47.3633 37.6393 47.3633C32.6687 47.3633 28.6393 43.3338 28.6393 38.3633C28.6393 33.3927 32.6687 29.3633 37.6393 29.3633C42.6098 29.3633 46.6393 33.3927 46.6393 38.3633ZM37.6393 44.3633C40.953 44.3633 43.6393 41.677 43.6393 38.3633C43.6393 35.0496 40.953 32.3633 37.6393 32.3633C34.3255 32.3633 31.6393 35.0496 31.6393 38.3633C31.6393 41.677 34.3255 44.3633 37.6393 44.3633Z" fill="#E11551"/>
<path fill-rule="evenodd" clip-rule="evenodd" d="M18.6393 15.3633C18.6393 20.3338 14.6098 24.3633 9.63925 24.3633C4.66869 24.3633 0.639252 20.3338 0.639252 15.3633C0.639252 10.3927 4.66869 6.36328 9.63925 6.36328C14.6098 6.36328 18.6393 10.3927 18.6393 15.3633ZM9.63925 21.3633C12.953 21.3633 15.6393 18.677 15.6393 15.3633C15.6393 12.0496 12.953 9.36328 9.63925 9.36328C6.32554 9.36328 3.63925 12.0496 3.63925 15.3633C3.63925 18.677 6.32554 21.3633 9.63925 21.3633Z" fill="#E11551"/>
<path d="M71.0494 6.7627H81.44V9.68506H75.2706V12.0601H80.5401V14.8062H75.2706V20.3633H71.0494V6.7627ZM96.7343 6.7627H100.928V14.8711C100.928 15.6751 100.801 16.4359 100.547 17.1533C100.3 17.8646 99.9071 18.4893 99.3691 19.0273C98.8372 19.5592 98.2774 19.9334 97.6899 20.1499C96.8735 20.453 95.8931 20.6045 94.7489 20.6045C94.0872 20.6045 93.3635 20.5581 92.578 20.4653C91.7987 20.3726 91.1462 20.1901 90.6205 19.918C90.0948 19.6396 89.6124 19.2469 89.1733 18.7397C88.7403 18.2326 88.4434 17.71 88.2826 17.1719C88.0229 16.306 87.893 15.5391 87.893 14.8711V6.7627H92.0863V15.0659C92.0863 15.8081 92.2904 16.3895 92.6986 16.8101C93.113 17.2244 93.6851 17.4316 94.415 17.4316C95.1386 17.4316 95.7045 17.2275 96.1127 16.8193C96.5271 16.4049 96.7343 15.8205 96.7343 15.0659V6.7627ZM106.935 6.7627H119.71V10.1211H115.424V20.3633H111.221V10.1211H106.935V6.7627ZM134.652 6.7627H138.845V14.8711C138.845 15.6751 138.718 16.4359 138.465 17.1533C138.218 17.8646 137.825 18.4893 137.287 19.0273C136.755 19.5592 136.195 19.9334 135.607 20.1499C134.791 20.453 133.811 20.6045 132.667 20.6045C132.005 20.6045 131.281 20.5581 130.496 20.4653C129.716 20.3726 129.064 20.1901 128.538 19.918C128.012 19.6396 127.53 19.2469 127.091 18.7397C126.658 18.2326 126.361 17.71 126.2 17.1719C125.94 16.306 125.811 15.5391 125.811 14.8711V6.7627H130.004V15.0659C130.004 15.8081 130.208 16.3895 130.616 16.8101C131.031 17.2244 131.603 17.4316 132.333 17.4316C133.056 17.4316 133.622 17.2275 134.03 16.8193C134.445 16.4049 134.652 15.8205 134.652 15.0659V6.7627ZM145.864 20.3633V6.7627H152.869C154.167 6.7627 155.16 6.87402 155.847 7.09668C156.533 7.31934 157.087 7.73372 157.507 8.33984C157.928 8.93978 158.138 9.67269 158.138 10.5386C158.138 11.2931 157.977 11.9456 157.656 12.4961C157.334 13.0404 156.892 13.4826 156.329 13.8228C155.97 14.0392 155.479 14.2186 154.854 14.3608C155.355 14.5278 155.72 14.6948 155.949 14.8618C156.103 14.9731 156.326 15.2113 156.617 15.5762C156.913 15.9411 157.111 16.2225 157.21 16.4204L159.242 20.3633H154.492L152.247 16.207C151.962 15.6689 151.709 15.3195 151.486 15.1587C151.183 14.9484 150.84 14.8433 150.456 14.8433H150.085V20.3633H145.864ZM150.085 12.2734H151.857C152.049 12.2734 152.42 12.2116 152.971 12.0879C153.249 12.0322 153.475 11.89 153.648 11.6611C153.827 11.4323 153.917 11.1694 153.917 10.8726C153.917 10.4334 153.778 10.0964 153.499 9.86133C153.221 9.6263 152.698 9.50879 151.932 9.50879H150.085V12.2734Z" fill="white"/>
<path d="M165.022 6.7627H176.284V9.6665H165.022V11.8281H175.774V14.6021H165.022V17.2832H176.488V20.3633H165.022V6.7627Z" fill="white"/>
<path d="M77.8683 40.437V37.6074H84.3624V43.4058C83.1192 44.2531 82.0183 44.8314 81.0597 45.1406C80.1072 45.4437 78.9754 45.5952 77.6642 45.5952C76.0499 45.5952 74.7325 45.32 73.712 44.7695C72.6977 44.2191 71.9091 43.3996 71.3463 42.311C70.7896 41.2225 70.5113 39.9731 70.5113 38.563C70.5113 37.0786 70.8175 35.7891 71.4298 34.6943C72.0421 33.5934 72.9389 32.7585 74.1202 32.1895C75.0418 31.7503 76.2818 31.5308 77.8404 31.5308C79.3434 31.5308 80.4659 31.6668 81.2081 31.939C81.9565 32.2111 82.575 32.6348 83.0636 33.21C83.5584 33.779 83.9295 34.5026 84.1768 35.3809L80.1227 36.1045C79.9557 35.5911 79.6712 35.1984 79.2691 34.9263C78.8733 34.6541 78.3661 34.5181 77.7477 34.5181C76.8261 34.5181 76.0901 34.8397 75.5396 35.4829C74.9954 36.12 74.7232 37.1312 74.7232 38.5166C74.7232 39.9886 74.9985 41.04 75.5489 41.6709C76.1056 42.3018 76.8787 42.6172 77.8683 42.6172C78.3383 42.6172 78.7867 42.5492 79.2135 42.4131C79.6402 42.277 80.1288 42.0451 80.6793 41.7173V40.437H77.8683ZM103.111 43.1182H98.3241L97.6654 45.3633H93.37L98.4818 31.7627H103.065L108.177 45.3633H103.779L103.111 43.1182ZM102.23 40.1772L100.727 35.2881L99.2332 40.1772H102.23ZM117.37 31.7627H122.899L125.033 40.0381L127.157 31.7627H132.668V45.3633H129.235V34.9912L126.573 45.3633H123.465L120.812 34.9912V45.3633H117.37V31.7627ZM143.234 31.7627H154.497V34.6665H147.446V36.8281H153.987V39.6021H147.446V42.2832H154.701V45.3633H143.234V31.7627ZM164.126 40.8638L168.125 40.6133C168.211 41.2627 168.387 41.7575 168.653 42.0977C169.086 42.6481 169.705 42.9233 170.509 42.9233C171.109 42.9233 171.57 42.7842 171.891 42.5059C172.219 42.2214 172.383 41.8936 172.383 41.5225C172.383 41.1699 172.228 40.8545 171.919 40.5762C171.61 40.2979 170.892 40.035 169.767 39.7876C167.924 39.3732 166.609 38.8228 165.824 38.1362C165.032 37.4497 164.636 36.5745 164.636 35.5107C164.636 34.8118 164.837 34.1532 165.239 33.5347C165.648 32.91 166.257 32.4214 167.067 32.0688C167.883 31.7101 169 31.5308 170.416 31.5308C172.154 31.5308 173.478 31.8555 174.387 32.5049C175.302 33.1481 175.846 34.1748 176.02 35.585L172.058 35.8169C171.953 35.2046 171.73 34.7593 171.39 34.481C171.056 34.2026 170.592 34.0635 169.999 34.0635C169.51 34.0635 169.142 34.1686 168.895 34.3789C168.647 34.583 168.523 34.8335 168.523 35.1304C168.523 35.3468 168.626 35.5417 168.83 35.7148C169.028 35.8942 169.498 36.0612 170.24 36.2158C172.077 36.6117 173.391 37.0137 174.183 37.4219C174.981 37.8239 175.559 38.3249 175.918 38.9248C176.282 39.5247 176.465 40.1958 176.465 40.938C176.465 41.8101 176.224 42.6141 175.741 43.3501C175.259 44.0861 174.585 44.6458 173.719 45.0293C172.853 45.4066 171.761 45.5952 170.444 45.5952C168.131 45.5952 166.529 45.1499 165.638 44.2593C164.748 43.3687 164.244 42.2368 164.126 40.8638Z" fill="white"/>
</svg>

