<svg width="77" height="82" viewBox="0 0 77 82" fill="none" xmlns="http://www.w3.org/2000/svg">
<path d="M37.1779 0C38.1904 0.889428 39.2028 1.78445 40.2265 2.66269C42.8445 4.92262 45.468 7.18255 48.0971 9.4313C48.3321 9.63268 48.4328 9.83406 48.4272 10.1529C48.4104 11.7528 48.4216 13.3526 48.4216 15.0699C44.6121 11.7975 40.881 8.59221 37.1219 5.36454C36.0759 6.3155 35.0969 7.3224 34.0005 8.17267C33.0943 8.8775 32.8762 9.68302 32.8762 10.7906C32.9153 23.9978 32.9041 37.1994 32.8929 50.4065C32.8929 50.7645 32.9936 51.0051 33.2621 51.2456C34.5487 52.3924 35.8129 53.5559 37.1163 54.7474C37.989 53.9531 38.8448 53.1755 39.6951 52.4036C39.9692 52.1518 40.2153 51.8609 40.523 51.6596C41.2222 51.2009 41.3621 50.5744 41.3565 49.7688C41.3285 38.1503 41.3397 26.5374 41.3341 14.9189C41.3341 14.7455 41.3341 14.5721 41.3341 14.2868C41.5299 14.4434 41.6586 14.5329 41.776 14.6336C43.8737 16.4069 45.9659 18.1913 48.0692 19.9534C48.3265 20.166 48.416 20.3785 48.416 20.7086C48.4104 30.5594 48.4104 40.4047 48.3992 50.2555C48.3992 50.4513 48.3153 50.7086 48.1754 50.8317C44.5394 53.981 40.8922 57.1192 37.2394 60.2574C37.2058 60.2853 37.1667 60.3021 37.0884 60.3525C36.5457 59.8882 35.9975 59.4183 35.4493 58.9484C32.3559 56.2857 29.2625 53.6118 26.1579 50.9547C25.895 50.731 25.7943 50.5016 25.7943 50.1604C25.7999 36.819 25.7999 23.4831 25.7887 10.1417C25.7887 9.84524 25.8838 9.65505 26.1075 9.46486C29.7044 6.37703 33.2901 3.28361 36.8758 0.190192C36.9429 0.134253 37.0044 0.0671267 37.066 0.00559389C37.1163 0 37.1443 0 37.1779 0Z" fill="white" fill-opacity="0.95"/>
<path d="M0.537851 70.5002C2.25518 69.4373 3.9725 68.3801 5.68423 67.306C5.93036 67.1494 6.10377 67.1382 6.3555 67.3004C7.92738 68.3129 9.51045 69.3087 11.0991 70.2988C11.3564 70.461 11.4627 70.64 11.4515 70.9421C11.4292 71.4735 11.4459 72.0049 11.4459 72.5979C11.2893 72.5195 11.183 72.4748 11.0935 72.4133C9.52164 71.4287 7.94976 70.4442 6.38347 69.4429C6.12615 69.2751 5.93596 69.2527 5.67304 69.4373C5.08568 69.8401 4.45917 70.1813 3.87181 70.5841C3.72077 70.6903 3.57533 70.9253 3.56974 71.0987C3.54736 73.3083 3.55296 75.5235 3.56974 77.7331C3.56974 77.9009 3.70399 78.119 3.83825 78.2141C4.45357 78.6337 5.09687 79.0029 5.7122 79.4112C5.94714 79.5679 6.11496 79.5511 6.34431 79.4C6.92048 79.0085 7.51343 78.6337 8.11198 78.2813C8.3637 78.1302 8.44761 77.9568 8.44202 77.6715C8.43083 76.1891 8.43642 74.7012 8.43642 73.2188C8.43642 73.0622 8.43642 72.9055 8.43642 72.6482C9.15804 73.0677 9.76218 73.5041 10.4334 73.795C11.2557 74.153 11.5131 74.6844 11.4627 75.5794C11.3788 77.073 11.4403 78.5777 11.4403 80.0769C11.4403 80.2335 11.4403 80.3902 11.4403 80.6475C10.8418 80.323 10.316 80.0545 9.81252 79.758C9.54961 79.6014 9.35942 79.5958 9.09091 79.7748C8.1847 80.3734 7.25611 80.9272 6.3499 81.5201C6.10377 81.6823 5.93036 81.6823 5.67864 81.5201C4.11235 80.5244 2.53487 79.5511 0.957393 78.5721C0.817545 78.4882 0.672104 78.4155 0.532257 78.3428C0.537851 75.7304 0.537851 73.1181 0.537851 70.5002Z" fill="white" fill-opacity="0.95"/>
<path d="M76.1336 78.3477C75.0484 79.019 73.9632 79.6847 72.8836 80.3616C72.2403 80.7587 71.6082 81.1783 70.9537 81.5586C70.825 81.6314 70.5789 81.6314 70.4558 81.5586C68.8168 80.5461 67.1834 79.5169 65.5612 78.4708C65.4213 78.3813 65.2871 78.152 65.2871 77.9841C65.2703 75.6067 65.2703 73.2349 65.2871 70.8575C65.2871 70.6897 65.4213 70.4604 65.5612 70.3653C67.1946 69.3136 68.8392 68.2732 70.495 67.2551C70.6181 67.1768 70.8922 67.2327 71.0376 67.3222C72.6151 68.2955 74.1814 69.2912 75.7533 70.2814C75.8763 70.3597 76.0106 70.4268 76.1392 70.5051C76.1392 71.2155 76.1392 71.9316 76.1392 72.642C74.4443 71.5735 72.7437 70.5163 71.0544 69.4367C70.8083 69.2801 70.6349 69.2577 70.3831 69.4311C69.7678 69.845 69.1245 70.2142 68.5092 70.6338C68.3693 70.7289 68.2407 70.9582 68.2407 71.126C68.2239 73.3244 68.2239 75.5172 68.2407 77.7156C68.2407 77.8835 68.3749 78.1072 68.5148 78.2023C69.1357 78.6274 69.7958 79.0078 70.4223 79.433C70.646 79.584 70.8083 79.556 71.0152 79.4162C71.6082 79.0246 72.2291 78.6666 72.8109 78.2638C72.9563 78.1632 73.0906 77.9226 73.0906 77.7436C73.1129 76.2277 73.1018 74.7173 73.1018 73.2014C73.1018 73.0447 73.1018 72.8937 73.1018 72.6532C74.1702 73.2797 75.1491 73.8503 76.1336 74.4264C76.1336 75.7298 76.1336 77.0388 76.1336 78.3477Z" fill="white" fill-opacity="0.95"/>
<path d="M51.1793 48.2027C51.1793 39.6441 51.1793 31.1973 51.1793 22.6387C53.4225 24.5686 55.6041 26.4481 57.8361 28.3724C57.1368 28.9765 56.4991 29.5695 55.8111 30.1009C55.4083 30.4142 55.274 30.761 55.274 31.27C55.2964 35.5494 55.2796 39.8231 55.2964 44.1024C55.2964 44.5332 55.1566 44.8073 54.8377 45.0758C53.7525 45.9764 52.6953 46.9106 51.6212 47.828C51.5038 47.9286 51.3807 48.0349 51.1793 48.2027Z" fill="white" fill-opacity="0.95"/>
<path d="M22.9246 48.1857C22.2533 47.6095 21.6436 47.0837 21.0283 46.5579C20.385 46.0041 19.7305 45.4671 19.1152 44.8909C18.9641 44.751 18.8467 44.4937 18.8467 44.2923C18.8299 38.3852 18.8355 32.478 18.8467 26.5709C18.8467 26.3751 18.925 26.1178 19.0648 25.9947C20.2731 24.9207 21.5093 23.8746 22.7344 22.823C22.7792 22.7838 22.8295 22.7615 22.9302 22.6943C22.9246 31.1915 22.9246 39.6438 22.9246 48.1857Z" fill="white" fill-opacity="0.95"/>
<path d="M46.6539 81.7271C45.9267 81.2963 45.3058 80.8656 44.6289 80.5412C43.8961 80.1943 43.65 79.7244 43.6724 78.891C43.7395 76.2506 43.7003 73.6047 43.6891 70.9644C43.6891 70.64 43.7898 70.4554 44.0639 70.2876C45.6526 69.303 47.2357 68.3017 48.8131 67.2948C49.0481 67.1438 49.2103 67.1382 49.4453 67.2892C51.0451 68.3129 52.6617 69.3142 54.256 70.3435C54.407 70.4386 54.5413 70.6847 54.5413 70.8637C54.5581 73.7893 54.5581 76.7149 54.5469 79.6405C54.5469 79.7804 54.4909 79.9874 54.3847 80.0489C53.4952 80.6083 52.589 81.1397 51.6269 81.7215C51.6157 81.5033 51.6045 81.3467 51.6045 81.1956C51.6045 77.8673 51.5989 74.5445 51.6101 71.2161C51.6101 70.8917 51.515 70.7071 51.2353 70.5449C50.62 70.1869 50.0214 69.8009 49.4229 69.4093C49.2047 69.2639 49.0425 69.2583 48.8243 69.4037C48.2426 69.7897 47.6552 70.1701 47.0511 70.5169C46.721 70.7071 46.6315 70.942 46.6315 71.3056C46.6427 74.5725 46.6371 77.8393 46.6371 81.1061C46.6539 81.2796 46.6539 81.453 46.6539 81.7271Z" fill="white" fill-opacity="0.95"/>
<path d="M30.012 72.6537C31.0413 73.2579 31.9699 73.8005 32.8985 74.3543C32.9656 74.3934 33.0104 74.5277 33.0104 74.6172C33.016 76.5918 33.016 78.5665 33.016 80.653C32.5573 80.4069 32.1377 80.2335 31.7797 79.9705C31.2427 79.579 30.8176 79.6349 30.2805 80.0153C29.4247 80.6306 28.5073 81.1509 27.6011 81.727C26.0963 80.7873 24.6251 79.8027 23.0868 78.9413C22.3093 78.5049 22.0575 78.0071 22.0911 77.1288C22.1638 75.0647 22.1191 73.0006 22.1079 70.9364C22.1079 70.6287 22.2086 70.4609 22.4659 70.2987C24.0825 69.303 25.6992 68.2961 27.3046 67.2836C27.5284 67.1437 27.6794 67.1437 27.8976 67.2836C29.4862 68.2961 31.0805 69.303 32.6803 70.2987C32.9209 70.4497 33.0383 70.6064 33.0216 70.9028C32.9992 71.4455 33.016 71.9937 33.016 72.6202C32.8146 72.5027 32.6747 72.4244 32.5405 72.3405C30.9966 71.3671 29.4471 70.3938 27.9087 69.4149C27.6962 69.2806 27.5395 69.2471 27.3102 69.3981C26.6781 69.8176 26.018 70.1924 25.3915 70.612C25.2628 70.7015 25.1398 70.9084 25.1398 71.0651C25.123 73.3082 25.123 75.5514 25.1342 77.7945C25.1342 77.9344 25.2572 78.1246 25.3747 78.2085C26.0292 78.6448 26.7005 79.0587 27.3773 79.4559C27.4892 79.523 27.7185 79.5062 27.836 79.4335C28.4402 79.0811 29.0107 78.6839 29.6149 78.3315C29.9058 78.1637 30.0176 77.9679 30.012 77.6211C29.9897 76.1667 30.0009 74.7123 30.0009 73.2579C30.012 73.1012 30.012 72.939 30.012 72.6537Z" fill="white" fill-opacity="0.95"/>
<path d="M39.0909 73.7891C38.8392 74.2254 38.6211 74.6114 38.3525 75.0757C38.0896 74.6281 37.8659 74.2366 37.603 73.7891C38.112 73.7891 38.5651 73.7891 39.0909 73.7891Z" fill="white" fill-opacity="0.95"/>
<path d="M60.6386 74.427C60.1016 74.6956 59.6876 74.8969 59.2233 75.1319C59.2233 74.6452 59.2233 74.2368 59.2233 73.7334C59.6764 73.9516 60.1016 74.1585 60.6386 74.427Z" fill="white" fill-opacity="0.95"/>
<path d="M17.5265 75.0483C16.9951 75.0483 16.5588 75.0483 16.0273 75.0483C16.2847 74.6064 16.5084 74.226 16.7825 73.7617C17.0398 74.2092 17.2636 74.5952 17.5265 75.0483Z" fill="white" fill-opacity="0.95"/>
</svg>
