<svg width="200" height="70" viewBox="0 0 200 70" fill="none" xmlns="http://www.w3.org/2000/svg">
<path d="M78.0862 29.3192V9.15234H82.1044V17.0874H89.9728V9.15234H93.9911V29.3192H89.9728V20.5025H82.1044V29.3192H78.0862Z" fill="white"/>
<path d="M98.114 12.7261V9.15234H101.929V12.7261H98.114ZM98.114 29.3192V14.7069H101.929V29.3133H98.114V29.3192Z" fill="white"/>
<path d="M105.832 29.3192V9.15234H109.647V29.3192H105.832Z" fill="white"/>
<path d="M113.555 29.3192V9.15234H117.37V29.3192H113.555Z" fill="white"/>
<path d="M125.076 9.15234V16.5643C126.306 15.1066 127.778 14.3777 129.489 14.3777C130.364 14.3777 131.159 14.5423 131.866 14.8715C132.574 15.2006 133.101 15.6239 133.461 16.1352C133.82 16.6466 134.064 17.2167 134.191 17.8398C134.325 18.4628 134.389 19.4327 134.389 20.7435V29.3134H130.573V21.6016C130.573 20.0675 130.498 19.0977 130.359 18.6862C130.214 18.2748 129.959 17.9456 129.593 17.7046C129.228 17.4636 128.77 17.3402 128.219 17.3402C127.587 17.3402 127.019 17.4989 126.52 17.8104C126.021 18.1219 125.656 18.5922 125.43 19.2211C125.198 19.85 125.082 20.7787 125.082 22.0072V29.3251H121.267V9.15234H125.076Z" fill="white"/>
<path d="M137.369 21.8075C137.369 20.5261 137.682 19.28 138.302 18.081C138.929 16.8819 139.81 15.9649 140.952 15.3301C142.095 14.6953 143.376 14.3838 144.785 14.3838C146.965 14.3838 148.751 15.1009 150.143 16.5351C151.534 17.9693 152.23 19.7855 152.23 21.978C152.23 24.188 151.528 26.0219 150.119 27.4737C148.71 28.9256 146.942 29.6544 144.808 29.6544C143.486 29.6544 142.228 29.3488 141.028 28.7492C139.827 28.1438 138.917 27.2563 138.291 26.0866C137.682 24.911 137.369 23.4827 137.369 21.8075ZM141.277 22.0132C141.277 23.4651 141.613 24.5701 142.297 25.3401C142.982 26.1101 143.811 26.498 144.808 26.498C145.806 26.498 146.64 26.1101 147.313 25.3401C147.986 24.5701 148.322 23.4533 148.322 21.9838C148.322 20.5555 147.986 19.4505 147.313 18.6805C146.64 17.9105 145.806 17.5226 144.808 17.5226C143.811 17.5226 142.976 17.9105 142.297 18.6805C141.619 19.4564 141.277 20.5614 141.277 22.0132Z" fill="white"/>
<path d="M164.714 29.3194V27.1269C164.192 27.9087 163.502 28.52 162.644 28.9726C161.786 29.4252 160.887 29.6485 159.936 29.6485C158.968 29.6485 158.098 29.431 157.332 29.0019C156.561 28.5729 156.005 27.9674 155.663 27.1857C155.32 26.4039 155.146 25.3283 155.146 23.9529V14.707H158.962V21.4195C158.962 23.4709 159.031 24.7346 159.171 25.1931C159.31 25.6575 159.565 26.0219 159.936 26.2923C160.307 26.5626 160.777 26.6978 161.345 26.6978C161.994 26.6978 162.58 26.5156 163.096 26.1571C163.612 25.7926 163.966 25.3459 164.157 24.811C164.348 24.2762 164.441 22.9595 164.441 20.8729V14.707H168.257V29.3135H164.714V29.3194Z" fill="white"/>
<path d="M170.86 25.1457L174.687 24.552C174.849 25.3044 175.18 25.8746 175.679 26.2625C176.177 26.6504 176.873 26.8444 177.766 26.8444C178.752 26.8444 179.494 26.6622 179.993 26.2919C180.329 26.0333 180.497 25.6923 180.497 25.2574C180.497 24.9635 180.404 24.7225 180.224 24.5285C180.033 24.3463 179.61 24.1759 178.949 24.0172C175.876 23.3295 173.922 22.7005 173.098 22.1304C171.956 21.3427 171.388 20.2436 171.388 18.8447C171.388 17.5809 171.881 16.517 172.866 15.653C173.852 14.7889 175.383 14.3599 177.453 14.3599C179.424 14.3599 180.891 14.6831 181.848 15.3356C182.805 15.988 183.466 16.952 183.831 18.2216L180.236 18.8976C180.079 18.3274 179.79 17.8924 179.36 17.5927C178.931 17.287 178.317 17.1401 177.522 17.1401C176.519 17.1401 175.8 17.2812 175.365 17.5692C175.076 17.769 174.931 18.0335 174.931 18.3509C174.931 18.6272 175.058 18.8623 175.307 19.0504C175.65 19.309 176.838 19.6676 178.868 20.1378C180.897 20.608 182.318 21.1782 183.124 21.86C183.918 22.5477 184.318 23.5058 184.318 24.7343C184.318 26.0744 183.767 27.2265 182.666 28.1846C181.564 29.1485 179.929 29.6305 177.766 29.6305C175.8 29.6305 174.246 29.2249 173.104 28.4197C171.962 27.632 171.214 26.5329 170.86 25.1457Z" fill="white"/>
<path d="M195.979 24.7166H199.829C199.574 26.2801 198.536 27.7966 197.48 28.5372C196.425 29.2778 195.109 29.6422 193.526 29.6422C191.021 29.6422 189.166 28.8135 187.959 27.15C187.009 25.8216 186.533 24.1406 186.533 22.1127C186.533 19.691 187.159 17.7984 188.406 16.423C189.653 15.0534 191.23 14.3657 193.143 14.3657C195.289 14.3657 196.976 15.0828 198.217 16.517C199.458 17.9512 200.049 20.1495 199.997 23.112H190.441C190.47 24.2581 190.777 25.1516 191.363 25.7864C191.949 26.4212 192.685 26.7445 193.561 26.7445C194.158 26.7445 194.662 26.5799 195.068 26.2507C195.486 25.9333 195.776 25.4513 195.979 24.7166ZM196.222 20.7608C196.193 19.644 195.909 18.7917 195.37 18.2098C194.825 17.6279 194.164 17.334 193.387 17.334C192.552 17.334 191.868 17.6397 191.323 18.2569C190.777 18.874 190.511 19.7087 190.522 20.7608H196.222Z" fill="white"/>
<path d="M90.8023 51.0026L94.6988 52.2546C94.1016 54.4529 93.11 56.0928 91.7184 57.1567C90.3326 58.2264 88.5699 58.7613 86.4361 58.7613C83.7921 58.7613 81.6235 57.8444 79.9246 56.0164C78.2256 54.1884 77.3733 51.6844 77.3733 48.5104C77.3733 45.1541 78.2256 42.5502 79.9362 40.6928C81.6467 38.8354 83.8964 37.9067 86.6797 37.9067C89.115 37.9067 91.0922 38.6356 92.6114 40.0933C93.5159 40.9573 94.1943 42.1917 94.6466 43.8081L90.6689 44.7721C90.4312 43.7258 89.9441 42.9029 89.1961 42.2975C88.4482 41.6921 87.5436 41.3923 86.4767 41.3923C85.0039 41.3923 83.8037 41.9272 82.8875 43.0028C81.9714 44.0785 81.5075 45.8124 81.5075 48.2165C81.5075 50.7675 81.9598 52.5837 82.8643 53.6652C83.7689 54.7468 84.9459 55.2875 86.3897 55.2875C87.4566 55.2875 88.3728 54.9407 89.144 54.253C89.9151 53.5594 90.466 52.4779 90.8023 51.0026Z" fill="white"/>
<path d="M100.961 48.2636L97.4995 47.6288C97.888 46.2181 98.5606 45.1718 99.5057 44.49C100.457 43.8141 101.866 43.4731 103.739 43.4731C105.437 43.4731 106.707 43.6789 107.536 44.0844C108.371 44.49 108.957 45.0131 109.293 45.6362C109.63 46.2651 109.804 47.4172 109.804 49.0982L109.763 53.6124C109.763 54.8938 109.827 55.8401 109.949 56.4514C110.07 57.0627 110.296 57.7152 110.633 58.4087H106.858C106.759 58.1501 106.638 57.7739 106.493 57.2684C106.429 57.0392 106.383 56.8864 106.359 56.8158C105.71 57.4565 105.014 57.9385 104.272 58.2618C103.53 58.5851 102.741 58.7438 101.895 58.7438C100.41 58.7438 99.239 58.3382 98.3867 57.5212C97.5343 56.7042 97.1052 55.6755 97.1052 54.4236C97.1052 53.6007 97.3024 52.8601 97.6909 52.2135C98.0793 51.5669 98.6244 51.0732 99.326 50.7264C100.028 50.3796 101.037 50.0798 102.359 49.8271C104.139 49.4862 105.374 49.1688 106.064 48.8808V48.4928C106.064 47.7522 105.884 47.2232 105.519 46.9058C105.159 46.5884 104.475 46.4297 103.472 46.4297C102.793 46.4297 102.266 46.5649 101.883 46.8353C101.506 47.1115 101.199 47.5876 100.961 48.2636ZM106.064 51.4024C105.577 51.5669 104.8 51.7668 103.744 51.996C102.683 52.2253 101.993 52.4486 101.669 52.672C101.17 53.0305 100.921 53.4831 100.921 54.0356C100.921 54.5764 101.118 55.0466 101.518 55.4404C101.918 55.8342 102.422 56.0341 103.037 56.0341C103.727 56.0341 104.382 55.8049 105.003 55.3464C105.466 54.9996 105.768 54.5705 105.913 54.065C106.011 53.7359 106.064 53.1069 106.064 52.1782V51.4024V51.4024Z" fill="white"/>
<path d="M113.462 43.8082H117.017V45.9536C117.481 45.2188 118.101 44.6252 118.89 44.1667C119.678 43.7082 120.548 43.479 121.51 43.479C123.186 43.479 124.607 44.1432 125.772 45.4716C126.938 46.8 127.523 48.6515 127.523 51.0262C127.523 53.4655 126.938 55.364 125.761 56.7159C124.584 58.0678 123.157 58.7438 121.487 58.7438C120.693 58.7438 119.968 58.5851 119.324 58.2618C118.675 57.9385 117.997 57.3919 117.283 56.6101V63.9692H113.468V43.8082H113.462ZM117.231 50.8675C117.231 52.5074 117.55 53.7241 118.194 54.5058C118.837 55.2876 119.62 55.6814 120.542 55.6814C121.429 55.6814 122.166 55.3229 122.751 54.5999C123.337 53.8828 123.633 52.7013 123.633 51.0555C123.633 49.5214 123.331 48.387 122.722 47.6464C122.113 46.9058 121.365 46.5296 120.472 46.5296C119.539 46.5296 118.768 46.894 118.153 47.6229C117.539 48.3517 117.231 49.4333 117.231 50.8675Z" fill="white"/>
<path d="M130.544 41.8271V38.2534H134.36V41.8271H130.544ZM130.544 58.4144V43.808H134.36V58.4144H130.544Z" fill="white"/>
<path d="M144.872 43.8082V46.8882H142.268V52.7778C142.268 53.971 142.292 54.6646 142.344 54.8644C142.396 55.0643 142.506 55.223 142.686 55.3523C142.86 55.4816 143.074 55.5463 143.33 55.5463C143.683 55.5463 144.193 55.4228 144.86 55.176L145.185 58.1737C144.298 58.5616 143.295 58.7497 142.17 58.7497C141.48 58.7497 140.865 58.6321 140.309 58.397C139.758 58.1619 139.352 57.8621 139.097 57.4918C138.842 57.1215 138.662 56.616 138.563 55.9871C138.482 55.5404 138.442 54.6293 138.442 53.2657V46.8882H136.69V43.8082H138.442V40.9046L142.268 38.6475V43.8082H144.872Z" fill="white"/>
<path d="M150.369 48.2636L146.907 47.6288C147.296 46.2181 147.968 45.1718 148.913 44.49C149.864 43.8141 151.273 43.4731 153.146 43.4731C154.845 43.4731 156.115 43.6789 156.944 44.0844C157.779 44.49 158.365 45.0131 158.701 45.6362C159.037 46.2651 159.211 47.4172 159.211 49.0982L159.171 53.6124C159.171 54.8938 159.235 55.8401 159.356 56.4514C159.478 57.0627 159.704 57.7152 160.041 58.4087H156.266C156.167 58.1501 156.045 57.7739 155.9 57.2684C155.837 57.0392 155.79 56.8864 155.767 56.8158C155.118 57.4565 154.422 57.9385 153.68 58.2618C152.938 58.5851 152.149 58.7438 151.302 58.7438C149.818 58.7438 148.647 58.3382 147.794 57.5212C146.942 56.7042 146.513 55.6755 146.513 54.4236C146.513 53.6007 146.71 52.8601 147.099 52.2135C147.487 51.5669 148.032 51.0732 148.734 50.7264C149.435 50.3796 150.444 50.0798 151.766 49.8271C153.546 49.4862 154.781 49.1688 155.471 48.8808V48.4928C155.471 47.7522 155.292 47.2232 154.926 46.9058C154.567 46.5884 153.883 46.4297 152.88 46.4297C152.201 46.4297 151.673 46.5649 151.291 46.8353C150.914 47.1115 150.607 47.5876 150.369 48.2636ZM155.471 51.4024C154.984 51.5669 154.207 51.7668 153.152 51.996C152.091 52.2253 151.401 52.4486 151.076 52.672C150.578 53.0305 150.328 53.4831 150.328 54.0356C150.328 54.5764 150.525 55.0466 150.926 55.4404C151.326 55.8342 151.83 56.0341 152.445 56.0341C153.135 56.0341 153.79 55.8049 154.41 55.3464C154.874 54.9996 155.176 54.5705 155.321 54.065C155.419 53.7359 155.471 53.1069 155.471 52.1782V51.4024V51.4024Z" fill="white"/>
<path d="M162.974 58.4144V38.2534H166.79V58.4203H162.974V58.4144Z" fill="white"/>
<path d="M33.5261 69.5C22.3527 69.5 11.1734 69.5 0 69.5C0 46.5 0 23.5059 0 0.5C22.6832 0.5 45.3721 0.5 68.0669 0.5C68.0669 23.4941 68.0669 46.5 68.0669 69.5C57.0326 69.5 45.9867 69.5 34.9467 69.5C34.9525 69.3766 34.9583 69.2531 34.9583 69.1297C34.9583 60.7655 34.9583 52.4014 34.9583 44.0372C34.9583 43.9725 34.9525 43.902 34.9583 43.8373C34.9699 43.6786 34.9061 43.614 34.7437 43.6199C34.4712 43.6257 34.1929 43.6199 33.9204 43.6199C33.5087 43.6199 33.5087 43.6199 33.5087 44.0372C33.5087 52.4014 33.5087 60.7655 33.5087 69.1297C33.5087 69.2531 33.5203 69.3766 33.5261 69.5ZM38.2749 5.73716L38.2517 5.74304C37.6603 5.85471 37.0515 5.90762 36.4832 6.08983C35.4337 6.43074 34.68 7.12433 34.4016 8.247C34.0073 9.82226 34.5524 11.2506 35.8744 11.9324C37.4052 12.7259 38.9997 12.7377 40.5537 12.0088C41.7366 11.4563 42.299 10.4571 42.2874 9.1228C42.2758 7.80028 41.6844 6.85983 40.5247 6.27204C39.8115 5.91349 39.0577 5.7254 38.2749 5.73716ZM54.3596 21.5956C54.3422 21.5133 54.3364 21.4663 54.319 21.4251C53.3043 19.3385 52.2896 17.2519 51.269 15.1711C51.2343 15.0947 51.0951 15.03 51.0081 15.0241C50.6138 15.0065 50.2137 15.0359 49.8195 15.0124C49.5643 14.9948 49.4368 15.0888 49.3266 15.3239C48.3873 17.34 47.4305 19.3502 46.4854 21.3605C46.4564 21.4251 46.4448 21.4957 46.41 21.6015C46.9261 21.6015 47.4073 21.5956 47.8886 21.6073C48.0684 21.6132 48.1611 21.5368 48.2249 21.3722C48.3699 21.0078 48.5206 20.6492 48.6946 20.2966C48.7352 20.2143 48.8627 20.1144 48.9497 20.1144C49.8774 20.1026 50.7994 20.1026 51.7271 20.1144C51.8199 20.1144 51.9533 20.2025 51.9996 20.2907C52.191 20.6551 52.3475 21.0313 52.5273 21.4016C52.5621 21.478 52.6433 21.5838 52.707 21.5897C53.2463 21.6015 53.7913 21.5956 54.3596 21.5956ZM25.0431 21.5956C25.0199 21.4957 25.0199 21.4604 25.0025 21.4251C23.9878 19.3385 22.9731 17.2519 21.9526 15.1711C21.9178 15.0947 21.7786 15.03 21.6858 15.0241C21.2684 15.0065 20.8567 15.03 20.4392 15.0124C20.2247 15.0006 20.1261 15.0888 20.0333 15.2769C19.0824 17.2989 18.1257 19.3209 17.1747 21.3428C17.1399 21.4134 17.1225 21.4898 17.0877 21.6015C17.6444 21.6015 18.1546 21.6073 18.6591 21.5956C18.7345 21.5956 18.8331 21.4898 18.8678 21.4134C19.036 21.0489 19.1984 20.6786 19.3433 20.3083C19.4013 20.1673 19.4767 20.1026 19.6332 20.1085C20.5494 20.1144 21.4655 20.1144 22.3816 20.1085C22.5382 20.1085 22.6194 20.1614 22.6774 20.3025C22.8339 20.6728 23.0079 21.0313 23.1876 21.3957C23.2282 21.478 23.321 21.5897 23.3906 21.5956C23.9356 21.6015 24.4691 21.5956 25.0431 21.5956ZM9.02804 5.91937C8.54677 5.91937 8.1119 5.90762 7.68282 5.93113C7.62484 5.93113 7.52626 6.07807 7.52626 6.16036C7.52047 8.15295 7.52047 10.1455 7.51467 12.1381C7.51467 12.3497 7.60164 12.3968 7.78719 12.3909C8.1003 12.3791 8.41341 12.3791 8.72072 12.3909C8.95266 12.4026 9.03384 12.3321 9.03384 12.0852C9.02224 11.3681 9.02804 10.651 9.02804 9.92806C9.02804 9.81638 9.02804 9.7047 9.02804 9.5989C9.92098 9.5989 10.7675 9.5989 11.6373 9.5989C11.6373 9.73409 11.6373 9.84577 11.6373 9.96333C11.6373 10.6804 11.6431 11.3975 11.6373 12.1205C11.6373 12.3086 11.6837 12.4026 11.8924 12.3968C12.2403 12.385 12.594 12.3909 12.9419 12.3968C13.1101 12.4026 13.1739 12.338 13.1739 12.1616C13.1681 10.1573 13.1681 8.15883 13.1739 6.15448C13.1739 5.97815 13.1159 5.91349 12.9419 5.91937C12.594 5.92525 12.2403 5.93113 11.8924 5.91937C11.6895 5.91349 11.6315 5.99578 11.6373 6.18975C11.6431 6.84219 11.6315 7.49463 11.6431 8.1412C11.6489 8.37631 11.5851 8.4586 11.3416 8.45272C10.698 8.43509 10.0543 8.44684 9.41653 8.44684C9.02804 8.44684 9.02804 8.44684 9.02804 8.05891C9.02804 7.35944 9.02804 6.66586 9.02804 5.91937ZM28.8352 5.91937C28.354 5.91937 27.9191 5.91349 27.49 5.93113C27.432 5.93113 27.3334 6.06044 27.3334 6.13685C27.3276 8.14707 27.3276 10.1632 27.3218 12.1734C27.3218 12.3615 27.403 12.4026 27.5654 12.3968C27.8785 12.3909 28.1916 12.3791 28.4989 12.4026C28.754 12.4203 28.8468 12.3439 28.841 12.0676C28.8236 11.3975 28.8352 10.7274 28.8352 10.0574C28.8352 9.91043 28.8352 9.7576 28.8352 9.60478C29.7282 9.60478 30.5747 9.60478 31.4445 9.60478C31.4503 9.72234 31.4561 9.82814 31.4561 9.93394C31.4561 10.6628 31.4503 11.3916 31.4619 12.1205C31.4619 12.2145 31.5546 12.385 31.6126 12.385C32.0533 12.4085 32.494 12.3968 32.952 12.3968C32.952 10.2278 32.952 8.10005 32.952 5.92525C32.5346 5.92525 32.1345 5.937 31.7286 5.91937C31.5199 5.91349 31.4503 5.98991 31.4503 6.20151C31.4619 6.83631 31.4387 7.46524 31.4619 8.10005C31.4735 8.4057 31.3691 8.47036 31.0908 8.46448C30.4704 8.44684 29.8441 8.4586 29.2179 8.4586C28.8294 8.4586 28.8294 8.4586 28.8294 8.07066C28.8352 7.35944 28.8352 6.66586 28.8352 5.91937ZM13.5797 19.4031C12.5244 20.4083 11.33 20.5552 10.0485 20.132C9.30056 19.8851 8.84249 19.3091 8.74392 18.5038C8.64535 17.6751 8.93526 16.9991 9.63687 16.5289C10.7038 15.8118 12.3911 15.947 13.342 16.811C13.4174 16.8815 13.4928 16.9462 13.5797 17.0167C13.9566 16.7228 14.3103 16.4466 14.6582 16.1762C14.6292 16.1174 14.6234 16.0998 14.6119 16.0822C13.1623 14.7244 10.3095 14.5069 8.63955 15.5649C6.96962 16.6229 6.49416 19.7441 8.8019 20.996C10.3327 21.8248 11.8924 21.8248 13.4696 21.143C13.9218 20.9431 14.3277 20.6669 14.6408 20.2319C14.2755 19.9498 13.9276 19.6794 13.5797 19.4031ZM47.5755 5.937C47.5755 6.0722 47.5755 6.18387 47.5755 6.30143C47.5639 7.65333 47.5639 8.99936 47.5233 10.3513C47.5175 10.5981 47.4015 10.8979 47.2334 11.0684C46.8739 11.4328 46.3926 11.421 45.9288 11.2741C45.5229 11.1448 45.2909 10.845 45.2388 10.41C45.2214 10.2572 45.2156 10.1044 45.2156 9.95157C45.2098 8.70547 45.204 7.45937 45.2156 6.21326C45.2156 5.99578 45.1634 5.90174 44.9314 5.91349C44.6183 5.93113 44.3052 5.93113 43.9979 5.91349C43.7834 5.90174 43.7254 5.98991 43.7254 6.19563C43.737 7.39471 43.7312 8.58791 43.7428 9.78699C43.7486 10.1397 43.7776 10.4982 43.8356 10.845C43.9631 11.615 44.4212 12.1264 45.1576 12.3439C45.952 12.5731 46.7637 12.5731 47.5697 12.3732C48.3699 12.1734 48.8685 11.5856 48.9613 10.7568C48.9961 10.4336 49.0193 10.1103 49.0251 9.78111C49.0309 8.60555 49.0309 7.4241 49.0309 6.24853C49.0309 6.14861 49.0193 6.04868 49.0135 5.94288C48.5206 5.937 48.0626 5.937 47.5755 5.937ZM57.7226 8.247C57.7226 7.94135 57.7284 7.65921 57.7226 7.3712C57.7168 7.18311 57.7864 7.11845 57.9719 7.12433C58.5286 7.13608 59.0852 7.13021 59.6419 7.12433C59.926 7.12433 60.3261 7.2125 60.4536 7.06555C60.6044 6.89509 60.5058 6.50716 60.5348 6.21326C60.558 5.96639 60.4536 5.90762 60.2275 5.90762C58.9925 5.91937 57.7516 5.91349 56.5166 5.91349C56.4238 5.91349 56.3368 5.92525 56.2556 5.937C56.2382 5.98403 56.2266 6.00166 56.2266 6.01929C56.2208 8.07654 56.2208 10.1397 56.2266 12.1969C56.2266 12.2616 56.3542 12.385 56.4238 12.385C57.7284 12.3968 59.033 12.3968 60.3377 12.385C60.4073 12.385 60.5174 12.2616 60.529 12.1852C60.5522 11.95 60.529 11.709 60.5406 11.4681C60.558 11.2447 60.4884 11.1683 60.2565 11.1683C59.5317 11.18 58.8011 11.1742 58.0763 11.1742C57.9777 11.1742 57.8734 11.1742 57.7342 11.1742C57.7342 10.6745 57.7516 10.2102 57.7284 9.73997C57.7168 9.47547 57.8154 9.41669 58.0531 9.42257C58.8011 9.43432 59.5433 9.42844 60.2913 9.42257C60.3725 9.42257 60.5232 9.35203 60.5232 9.30501C60.5406 8.95822 60.5348 8.60555 60.5348 8.23524C59.5723 8.247 58.6677 8.247 57.7226 8.247ZM29.3339 18.6802C29.6412 18.6802 29.9137 18.6978 30.1804 18.6743C30.4877 18.6508 30.8067 18.6331 31.1024 18.545C31.9025 18.3157 32.407 17.6574 32.4418 16.8522C32.4708 16.0998 32.0417 15.4709 31.2589 15.177C31.0328 15.0888 30.7835 15.0359 30.5399 15.03C29.7166 15.0065 28.899 15.0124 28.0756 15.0006C27.9017 15.0006 27.8205 15.0477 27.8205 15.2416C27.8263 17.2812 27.8263 19.3209 27.8205 21.3605C27.8205 21.5309 27.8669 21.6015 28.0466 21.6015C28.3945 21.5897 28.7482 21.5897 29.0961 21.6015C29.2875 21.6073 29.3397 21.525 29.3339 21.3428C29.3281 20.567 29.3339 19.7911 29.3339 19.0152C29.3339 18.9153 29.3339 18.8154 29.3339 18.6802ZM49.9992 10.9743C50.0108 11.0272 50.0108 11.0625 50.0224 11.0801C50.8226 12.2616 52.4229 12.961 53.9421 12.1734C55.067 11.5856 55.1945 10.2278 54.2378 9.39905C54.1334 9.30501 54.0233 9.21096 53.9015 9.13455C53.484 8.85241 53.0607 8.58791 52.6549 8.28814C52.4113 8.11181 52.1736 7.91196 51.9996 7.67097C51.7677 7.34769 51.9591 6.99502 52.3533 6.94799C52.7998 6.89509 53.1651 7.05379 53.4724 7.38295C53.5304 7.44173 53.6638 7.50639 53.7102 7.477C54.0001 7.30066 54.2726 7.10082 54.5683 6.88922C54.4755 6.77166 54.4176 6.67173 54.3422 6.58945C53.4956 5.66662 51.8083 5.54319 50.8458 6.3367C50.5443 6.58357 50.3819 6.90685 50.3587 7.30654C50.3239 7.91196 50.5732 8.39982 51.0255 8.75249C51.4546 9.09341 51.9417 9.35791 52.3881 9.68119C52.6722 9.88692 52.9506 10.1044 53.1825 10.363C53.4956 10.7098 53.3623 11.0801 52.9158 11.2153C52.5505 11.3211 52.1968 11.28 51.8779 11.0801C51.6343 10.9273 51.4256 10.7098 51.1879 10.5335C51.1241 10.4865 51.0081 10.4277 50.9559 10.4512C50.6312 10.6158 50.3181 10.798 49.9992 10.9743ZM41.1857 16.1527C41.1857 16.2996 41.1857 16.4113 41.1857 16.5289C41.1857 18.1159 41.1915 19.7088 41.1799 21.2958C41.1799 21.5309 41.2437 21.6132 41.4814 21.6073C41.8699 21.5897 42.2584 21.5897 42.6411 21.6073C42.8962 21.6191 42.96 21.5309 42.9542 21.2841C42.9426 19.697 42.9484 18.1041 42.9484 16.5171C42.9484 16.4054 42.9484 16.2996 42.9484 16.1586C43.3717 16.1586 43.7486 16.1527 44.1255 16.1586C44.2936 16.1645 44.369 16.0939 44.3632 15.9235C44.3574 15.6942 44.3574 15.465 44.3632 15.2358C44.369 15.0829 44.3168 15.0065 44.1545 15.0065C42.7745 15.0065 41.3944 15.0065 40.0202 15.0065C39.8753 15.0065 39.8173 15.0594 39.8231 15.2122C39.8289 15.4415 39.8347 15.6707 39.8231 15.8999C39.8115 16.1057 39.8985 16.1645 40.0898 16.1586C40.4377 16.1468 40.7972 16.1527 41.1857 16.1527ZM19.3491 11.18C19.3491 11.039 19.3491 10.9273 19.3491 10.8156C19.3491 9.30501 19.3433 7.78853 19.3549 6.27792C19.3549 6.04868 19.3027 5.94876 19.0592 5.96639C18.7461 5.98403 18.433 5.98403 18.1257 5.96639C17.8821 5.95464 17.8241 6.04868 17.8241 6.2838C17.8299 8.21761 17.8299 10.1514 17.8241 12.0852C17.8241 12.3439 17.9111 12.4085 18.1546 12.4026C19.1926 12.3909 20.2305 12.3968 21.2684 12.3968C21.3611 12.3968 21.4481 12.385 21.5467 12.3791C21.5467 11.9735 21.5467 11.5974 21.5467 11.1859C20.8103 11.18 20.0971 11.18 19.3491 11.18ZM60.8305 20.3201C60.703 20.3142 60.5986 20.3083 60.5 20.3083C59.9724 20.3083 59.4447 20.3025 58.9113 20.3142C58.7025 20.3201 58.633 20.2496 58.6388 20.0321C58.6504 19.3502 58.6446 18.6743 58.6446 17.9925C58.6446 17.1284 58.633 16.2703 58.6504 15.4062C58.6562 15.1476 58.5692 15.0712 58.3256 15.0888C58.0241 15.1064 57.7226 15.1064 57.4211 15.0888C57.1834 15.0771 57.1138 15.1593 57.1138 15.3945C57.1196 17.3283 57.1196 19.2621 57.1138 21.1959C57.1138 21.431 57.1718 21.5074 57.4153 21.5074C58.4648 21.4957 59.5143 21.5015 60.558 21.5015C60.645 21.5015 60.7378 21.4898 60.8363 21.4839C60.8305 21.0842 60.8305 20.7257 60.8305 20.3201ZM24.069 11.1859C24.069 11.0272 24.069 10.9155 24.069 10.8039C24.069 9.29913 24.0632 7.80028 24.0748 6.29555C24.0748 6.02517 23.9936 5.94288 23.7385 5.96052C23.4543 5.97815 23.1702 5.97815 22.8919 5.96052C22.6426 5.94288 22.544 6.01342 22.5498 6.28968C22.5614 8.21173 22.5614 10.1397 22.5498 12.0617C22.5498 12.3439 22.6484 12.3968 22.8977 12.3909C23.9182 12.3791 24.9387 12.385 25.9592 12.385C26.0578 12.385 26.1622 12.3732 26.2665 12.3674C26.2665 11.9618 26.2665 11.5797 26.2665 11.18C25.536 11.1859 24.8286 11.1859 24.069 11.1859ZM37.2718 15.0006C36.721 15.0006 36.2049 14.9948 35.6889 15.0065C35.6309 15.0065 35.5265 15.1182 35.5265 15.177C35.5207 17.2519 35.5207 19.3326 35.5265 21.4075C35.5265 21.4663 35.6077 21.5779 35.6541 21.5779C36.1875 21.5897 36.721 21.5838 37.2718 21.5838C37.2718 19.3855 37.2718 17.2166 37.2718 15.0006ZM14.838 5.91937C14.8148 5.98403 14.8032 6.00166 14.8032 6.01929C14.8032 8.07654 14.7974 10.1338 14.7974 12.1969C14.7974 12.3556 14.8728 12.3909 15.0061 12.3909C15.3366 12.3909 15.6672 12.3732 15.9977 12.3968C16.2644 12.4144 16.334 12.3145 16.3282 12.0558C16.3166 10.122 16.3224 8.18822 16.3224 6.25441C16.3224 6.19563 16.3398 6.13097 16.3166 6.08395C16.2818 6.01929 16.218 5.93113 16.1658 5.92525C15.7309 5.91349 15.2903 5.91937 14.838 5.91937Z" fill="white"/>
<path d="M38.3618 7.03027C38.5184 7.04791 38.7271 7.04791 38.9301 7.08905C40.0086 7.31829 40.5362 8.01187 40.5304 9.15805C40.5188 10.2866 39.9332 11.0213 38.8663 11.2153C38.1415 11.3446 37.4341 11.2858 36.8079 10.8274C36.1179 10.3219 35.8511 9.39317 36.1063 8.45271C36.3208 7.67096 36.9934 7.1302 37.8574 7.05378C38.0139 7.04203 38.1647 7.04203 38.3618 7.03027Z" fill="white"/>
<path d="M51.3793 18.9507C50.6661 18.9507 50.0109 18.9507 49.2861 18.9507C49.634 18.169 49.9645 17.4225 50.3298 16.6113C50.6951 17.4225 51.0256 18.1631 51.3793 18.9507Z" fill="white"/>
<path d="M21.0074 16.6055C21.3727 17.4166 21.7032 18.1631 22.0511 18.939C21.3437 18.939 20.6827 18.939 19.9695 18.939C20.3116 18.169 20.6479 17.4225 21.0074 16.6055Z" fill="white"/>
<path d="M29.3571 16.1528C29.6702 16.1528 29.9543 16.141 30.2326 16.1586C30.6559 16.1822 30.9168 16.4819 30.9052 16.8875C30.8878 17.2931 30.6327 17.5223 30.192 17.5282C29.9775 17.5341 29.7572 17.5399 29.5426 17.5223C29.473 17.5164 29.3513 17.4224 29.3513 17.3636C29.3339 17.0521 29.3397 16.7347 29.3397 16.4173C29.3339 16.3409 29.3455 16.2644 29.3571 16.1528Z" fill="white"/>
</svg>
