<svg width="36" height="36" viewBox="0 0 36 36" fill="none" xmlns="http://www.w3.org/2000/svg">
<path d="M0.163112 4.5438L0.0908394 4.4917C0.0807546 4.68163 -0.0587509 7.55411 0.0286506 11.7578C0.0286506 11.7578 0.0286523 14.0101 0.114373 14.4807C0.143998 14.6944 0.231144 14.896 0.366493 15.0639C0.572155 15.2756 0.808414 15.4552 1.06738 15.5967C1.34135 15.7732 1.64894 15.9581 1.90778 16.1111C3.1583 16.854 5.11979 17.9751 5.11979 17.9751C6.93169 19.0121 8.19061 19.6912 8.31331 19.755C8.28978 16.6203 7.82587 14.1882 6.85437 12.0351C5.63243 9.31559 3.50286 6.9339 0.163112 4.5438Z" fill="#FFC200"/>
<path d="M28.5215 1.77532C28.5215 1.77532 26.5684 0.652549 26.1213 0.487831C25.9218 0.406496 25.7039 0.380933 25.491 0.413876C25.2052 0.484939 24.9315 0.598239 24.6792 0.750036C24.3884 0.897946 24.0757 1.07275 23.8102 1.22402C22.5429 1.935 20.5914 3.0729 20.5914 3.0729C18.788 4.1234 17.566 4.87472 17.4551 4.94699C20.1797 6.49333 22.5176 7.30011 24.8691 7.54214L25.1565 7.56735H25.2456L25.4422 7.57912H25.528H25.5548H25.7229H25.8473H26.0053H26.4255H26.528H26.5717L26.8222 7.57072C29.2089 7.47659 31.7872 6.78746 34.7034 5.463L34.7841 5.42602C34.616 5.35206 32.2007 3.79732 28.5215 1.77532Z" fill="#FFC200"/>
<path d="M25.7048 20.2627C23.002 21.8494 21.1296 23.468 19.7497 25.3858C19.3397 25.9578 18.9729 26.5595 18.6521 27.1859C17.5848 29.2718 16.9176 31.8014 16.6116 34.9176L16.6016 35.0151C16.7831 34.9226 19.3362 33.6082 22.923 31.435C22.923 31.435 24.8711 30.3038 25.2392 29.9996C25.4085 29.8683 25.5396 29.6943 25.619 29.4953C25.6992 29.2117 25.736 28.9176 25.7283 28.623C25.7451 28.2969 25.7502 27.9389 25.7518 27.6347C25.7686 26.1808 25.7602 23.9218 25.7602 23.9218C25.7501 21.8342 25.7081 20.4056 25.7048 20.2627Z" fill="#FFC200"/>
<path d="M35.9608 8.29528C35.9608 8.2852 35.9608 8.27512 35.9608 8.26671C33.0816 9.57269 30.078 10.5207 26.9417 10.645H26.6391H26.5769H26.3584H25.9097H25.7819H25.6525H25.6088L25.4004 10.635H25.2726H25.2441L25.0239 10.6215H24.9566H24.8928L24.5566 10.5913H24.5398L24.2423 10.5593L24.1415 10.5459L23.9145 10.5173L23.8171 10.5039L23.5145 10.4568L23.4439 10.445L23.2036 10.4047L23.0943 10.3845L22.8775 10.3425L22.7834 10.324L22.4943 10.2618L22.3901 10.2383L22.19 10.1912L22.069 10.1627L21.869 10.1122L21.7682 10.0853L21.4959 10.0114L21.3665 9.9744L21.1984 9.92734L21.0605 9.88532L20.8925 9.83153L20.6756 9.76262L20.5227 9.7122L20.3681 9.65841L20.2403 9.61471L20.0806 9.55756L19.9764 9.52059L19.6655 9.40293L19.5697 9.36595L19.3932 9.27351L19.3092 9.23989C19.1041 9.15753 18.899 9.07181 18.6957 8.98273L18.6402 8.9592L18.4368 8.86844L18.4082 8.85499C18.1864 8.75582 17.9662 8.65161 17.7477 8.54572L17.7275 8.53564C17.425 8.38941 17.1258 8.23646 16.8266 8.07846C15.9492 7.61456 15.0887 7.10528 14.2382 6.56574C13.3339 5.99259 12.4414 5.39927 11.5489 4.81771C10.6564 4.23616 9.75718 3.68149 8.85963 3.12347C7.85115 2.50157 6.84267 1.89144 5.80562 1.30484L5.35348 1.04768C5.11581 0.898339 4.85159 0.796189 4.57527 0.746818C4.42629 0.730102 4.27549 0.750903 4.13659 0.807327C3.49788 1.07121 2.16165 1.92674 1.96836 2.05112L1.94482 2.06624C4.51645 3.91512 6.84099 6.03965 8.51339 8.68859C8.56717 8.77431 8.62096 8.85667 8.67306 8.94575L8.76383 9.09702L8.84787 9.23989L8.93863 9.40797C8.96552 9.45336 8.99074 9.50042 9.01763 9.54748L9.11007 9.71556C9.1336 9.76094 9.15713 9.80632 9.18234 9.85002L9.27815 10.0349L9.34034 10.1593L9.44623 10.3728C9.46304 10.4064 9.47817 10.44 9.49497 10.4719C9.5454 10.5778 9.59414 10.6854 9.64288 10.793C10.7942 13.3444 11.2514 16.0034 11.3506 18.7364C11.3859 19.7247 11.3758 20.7231 11.3338 21.7249C11.2901 22.7939 11.2228 23.8628 11.1657 24.9335C11.1085 26.0042 11.0783 27.053 11.0463 28.1136C11.0111 29.2985 10.9926 30.4835 10.9993 31.6685C10.9993 31.8366 10.9993 32.0147 10.9993 32.1878C10.99 32.4686 11.0339 32.7486 11.1287 33.0131C11.1893 33.1503 11.2828 33.2704 11.401 33.3627C11.9489 33.7846 13.3574 34.5124 13.5625 34.6183L13.5877 34.6317C13.8953 31.4853 14.5811 28.4044 16.0383 25.631C16.0854 25.542 16.1324 25.4529 16.1812 25.3638L16.2014 25.3285C16.5281 24.7339 16.8907 24.1597 17.2872 23.609C19.5159 20.508 22.5749 18.4204 25.9164 16.6724C26.866 16.1681 27.8241 15.6992 28.7737 15.2118C29.7234 14.7243 30.6545 14.2285 31.5874 13.7259C32.6306 13.1657 33.6649 12.5869 34.6901 11.9897L35.1389 11.7275C35.3869 11.5952 35.6076 11.4173 35.7894 11.2031C35.8785 11.0824 35.9363 10.9415 35.9575 10.793C36.0449 10.1139 35.9726 8.52387 35.9608 8.29528Z" fill="white"/>
</svg>
