<svg width="100" height="16" viewBox="0 0 100 16" fill="none" xmlns="http://www.w3.org/2000/svg">
<path d="M47.2227 0.410044L43.0133 0.83354C42.8599 0.848964 42.7429 0.976265 42.7419 1.12885L42.7071 6.43204C42.7068 6.4714 42.6757 6.50382 42.636 6.50609L38.9084 6.72236C38.8652 6.72486 38.8287 6.69105 38.8285 6.64827L38.7923 1.13039C38.7913 0.977186 38.6733 0.84954 38.5191 0.834922L34.03 0.408854C33.8485 0.391665 33.6931 0.536233 33.6994 0.71652L34.2192 15.7115C34.2247 15.8724 34.3582 16 34.521 16L38.5857 16C38.7532 16 38.8887 15.865 38.8877 15.6993L38.8548 10.666C38.8545 10.6241 38.889 10.5902 38.9313 10.5908L42.6046 10.6431C42.6461 10.6437 42.6793 10.6772 42.6791 10.7183C42.6791 10.7183 42.6538 14.5827 42.6465 15.7005C42.6454 15.8663 42.7809 16 42.9485 16L47.1528 16C47.3189 16 47.4537 15.8674 47.4548 15.7032L47.5552 0.70927C47.5564 0.531514 47.4014 0.392049 47.2227 0.410044Z" fill="white"/>
<path d="M81.3211 0.408855L76.8319 0.834885C76.6778 0.849541 76.5598 0.977188 76.5588 1.13039L76.5226 6.64827C76.5223 6.69105 76.4859 6.72486 76.4427 6.72236L72.7151 6.50609C72.6754 6.50378 72.6442 6.4714 72.644 6.432L72.6092 1.12885C72.6082 0.976267 72.4912 0.848965 72.3378 0.833541L68.1284 0.410045C67.9497 0.392051 67.7947 0.531514 67.7959 0.70927L67.8963 15.7032C67.8973 15.8674 68.0322 16 68.1982 16L72.4026 16C72.5701 16 72.7057 15.8663 72.7046 15.7005C72.6973 14.5826 72.672 10.7183 72.672 10.7183C72.6718 10.6772 72.705 10.6437 72.7464 10.6431L76.4198 10.5908C76.4621 10.5902 76.4966 10.6241 76.4963 10.6659L76.4635 15.6993C76.4624 15.865 76.5978 16 76.7654 16L80.8301 16C80.9929 16 81.1264 15.8724 81.1319 15.7115L81.6517 0.716522C81.658 0.536235 81.5026 0.391628 81.3211 0.408855Z" fill="white"/>
<path d="M26.8419 1.50132C26.7733 1.32982 26.6184 1.20677 26.4344 1.17754L21.6186 0.411768C21.4438 0.383951 21.2729 0.480215 21.2078 0.64316L15.2339 15.5914C15.1555 15.7874 15.3015 16 15.5146 16H20.1288C20.3256 16 20.4999 15.8743 20.5601 15.689L23.7842 5.76548C23.8067 5.69635 23.9055 5.69635 23.928 5.76548L25.2879 9.95403L23.6458 10.0756C23.524 10.0846 23.4314 10.1875 23.4364 10.3082L23.5382 12.7653C23.543 12.8821 23.6377 12.9756 23.7556 12.9801L26.302 13.0781L27.1522 15.689C27.2126 15.8743 27.3869 16 27.5837 16H32.1975C32.4107 16 32.5567 15.7874 32.4782 15.5913L26.8419 1.50132Z" fill="white"/>
<path d="M60.6607 1.50132C60.5921 1.32982 60.4373 1.20677 60.2532 1.17754L55.4375 0.411768C55.2626 0.383951 55.0917 0.480215 55.0266 0.64316L49.0527 15.5914C48.9743 15.7874 49.1204 16 49.3335 16H53.9477C54.1444 16 54.3187 15.8743 54.3789 15.689L57.6031 5.76548C57.6256 5.69635 57.7244 5.69635 57.7468 5.76548L59.1067 9.95403L57.4647 10.0756C57.3429 10.0846 57.2503 10.1875 57.2553 10.3082L57.357 12.7653C57.3619 12.8821 57.4565 12.9756 57.5745 12.9801L60.1209 13.0781L60.9711 15.689C61.0314 15.8743 61.2058 16 61.4026 16H66.0163C66.2295 16 66.3755 15.7874 66.2971 15.5913L60.6607 1.50132Z" fill="white"/>
<path d="M99.9788 15.5914L94.0049 0.64316C93.9397 0.480215 93.7688 0.383951 93.594 0.411768L88.7782 1.1775C88.5942 1.20677 88.4393 1.32982 88.3707 1.50132L82.7344 15.5913C82.6559 15.7874 82.802 16 83.0151 16H87.6289C87.8257 16 88 15.8743 88.0604 15.689L88.9106 13.0781L91.4569 12.9801C91.5749 12.9756 91.6696 12.8821 91.6744 12.7653L91.7762 10.3082C91.7812 10.1875 91.6886 10.0846 91.5668 10.0756L89.9247 9.95399L91.2846 5.76548C91.3071 5.69635 91.4059 5.69635 91.4284 5.76545L94.6526 15.689C94.7128 15.8743 94.887 16 95.0838 16H99.698C99.9111 16 100.057 15.7874 99.9788 15.5914Z" fill="white"/>
<path d="M16.9829 3.29817C17.0901 3.16857 17.0687 2.97704 16.9355 2.87372L14.0003 0.598083C13.8695 0.496601 13.6803 0.51893 13.5772 0.647998L9.59852 5.62913C9.57002 5.66489 9.51609 5.66723 9.48448 5.63416L4.1889 0.0935163C4.07455 -0.0261517 3.88388 -0.0317135 3.76267 0.0811234L0.0951151 3.49319C-0.0337391 3.61309 -0.0313351 3.81636 0.100272 3.93322L6.4023 9.52926C6.49874 9.61486 6.55349 9.73725 6.55271 9.86544L6.51766 15.6994C6.51665 15.8651 6.65213 16 6.81961 16H11.6071C11.7759 16 11.9119 15.8632 11.9091 15.6962L11.8093 9.77397C11.807 9.63259 11.8553 9.49493 11.9459 9.3855L16.9829 3.29817Z" fill="white"/>
</svg>
