<svg width="80" height="53" viewBox="0 0 80 53" fill="none" xmlns="http://www.w3.org/2000/svg">
<path d="M79.9764 26.3978C79.9764 34.7941 79.9764 43.1904 79.9764 51.5818C79.9764 52.9699 79.9717 52.9699 78.5844 52.9699C75.3474 52.9699 72.1057 52.9458 68.8687 52.9844C68.0194 52.994 67.7268 52.7289 67.7268 51.8324C67.7504 34.9339 67.7504 18.0401 67.7268 1.14152C67.7268 0.30768 67.9627 0.00402598 68.7885 0.0136658C72.1293 0.0425852 75.4748 0.052225 78.8156 0.00884588C79.7169 -0.00561382 80 0.264301 80 1.21382C79.9575 9.61009 79.9717 18.0015 79.9764 26.3978Z" fill="white"/>
<path d="M0.0189397 26.4897C0.0189397 18.0886 0.0236583 9.68752 0.00950237 1.28643C0.00950237 0.515246 0.0755634 0.00915574 1.0476 0.00915574C15.2979 0.0380752 29.5482 -0.0776025 43.7985 0.110374C49.4939 0.187492 53.5614 3.40719 56.1708 8.53074C57.2514 10.6563 57.6619 12.9458 57.6619 15.3268C57.6619 27.4633 57.6525 39.6047 57.6808 51.7412C57.6808 52.7244 57.3788 53.0136 56.4256 52.9943C53.2217 52.9365 50.013 52.9365 46.809 52.9943C45.8134 53.0136 45.568 52.6425 45.5728 51.6882C45.5963 41.0072 45.5916 30.3312 45.5869 19.6503C45.5822 15.8233 43.6523 12.8446 40.1557 11.4998C39.1082 11.0949 37.9191 10.9262 36.7914 10.9166C29.1943 10.8684 21.602 10.8925 14.005 10.8925C12.4007 10.8925 12.2733 11.0178 12.2685 12.6421C12.2685 25.5257 12.2685 38.4141 12.2685 51.2977C12.2685 52.9654 12.2685 52.9654 10.6406 52.9654C7.54046 52.9654 4.43559 52.922 1.34016 52.9895C0.245435 53.0233 -0.00465357 52.6329 6.50759e-05 51.5869C0.0378142 43.2196 0.0189397 34.8571 0.0189397 26.4897Z" fill="white"/>
<path d="M34.8566 36.9054C34.8566 41.8506 34.833 46.7959 34.8755 51.7411C34.8849 52.7099 34.6112 53.0184 33.6439 52.9991C30.3739 52.9412 27.0992 52.9461 23.8244 52.9943C22.9373 53.0087 22.7108 52.6906 22.7155 51.8327C22.7391 41.8699 22.7391 31.912 22.7155 21.9493C22.7108 21.0287 22.9703 20.7057 23.8952 20.7202C27.1652 20.7684 30.44 20.7732 33.7147 20.7202C34.6679 20.7057 34.8802 21.0672 34.8755 21.9637C34.8377 26.9427 34.8566 31.9265 34.8566 36.9054Z" fill="white"/>
</svg>
