<svg width="600" height="480" viewBox="0 0 600 480" fill="none" xmlns="http://www.w3.org/2000/svg">
<path d="M537.355 23.6863L576.395 317.055C576.757 319.814 574.803 321.903 572.026 321.726L281.74 302.7C278.961 302.512 276.412 300.129 276.039 297.368L237 4L537.355 23.6863Z" fill="#FFE483" stroke="black" stroke-width="6" stroke-linecap="round" stroke-linejoin="round"/>
<path d="M417.071 169.803L237 4L322.209 9.58491L417.071 169.803Z" fill="#1D1E5F" stroke="black" stroke-width="6" stroke-linecap="round" stroke-linejoin="round"/>
<path d="M417.071 169.803L247.19 80.5746L237 4L417.071 169.803Z" fill="#FF5986" stroke="black" stroke-width="6" stroke-linecap="round" stroke-linejoin="round"/>
<path d="M322.209 9.58496L396.397 14.4475L417.071 169.803L322.209 9.58496Z" fill="#87D4FF" stroke="black" stroke-width="6" stroke-linecap="round" stroke-linejoin="round"/>
<path d="M464.149 18.888L417.071 169.802L396.397 14.4473L464.149 18.888Z" fill="#FFB8D2" stroke="black" stroke-width="6" stroke-linecap="round" stroke-linejoin="round"/>
<path d="M537.355 23.6861L417.071 169.802L464.149 18.888L537.355 23.6861Z" fill="#47DDDF" stroke="black" stroke-width="6" stroke-linecap="round" stroke-linejoin="round"/>
<path d="M547.693 101.369L417.071 169.802L537.355 23.6861L547.693 101.369Z" fill="#FF5986" stroke="black" stroke-width="6" stroke-linecap="round" stroke-linejoin="round"/>
<path d="M256.167 148.031L417.071 169.803L247.19 80.5747L256.167 148.031Z" fill="#FFE483" stroke="black" stroke-width="6" stroke-linecap="round" stroke-linejoin="round"/>
<path d="M556.564 168.032L417.071 169.802L547.693 101.369L556.564 168.032Z" fill="#FFE483" stroke="black" stroke-width="6" stroke-linecap="round" stroke-linejoin="round"/>
<path d="M265.499 218.161L417.071 169.803L256.167 148.031L265.499 218.161Z" fill="#87D4FF" stroke="black" stroke-width="6" stroke-linecap="round" stroke-linejoin="round"/>
<path d="M417.071 169.803L278.075 301.079C276.954 300.075 276.218 298.733 276.04 297.369L265.499 218.161L417.071 169.803Z" fill="#7774FF" stroke="black" stroke-width="6" stroke-linecap="round" stroke-linejoin="round"/>
<path d="M566.441 242.259L417.071 169.802L556.564 168.032L566.441 242.259Z" fill="#1D1E5F" stroke="black" stroke-width="6" stroke-linecap="round" stroke-linejoin="round"/>
<path d="M417.071 169.803L359.489 307.796L281.719 302.699C280.422 302.616 279.107 302.035 278.055 301.078L417.071 169.803Z" fill="#FFE483" stroke="black" stroke-width="6" stroke-linecap="round" stroke-linejoin="round"/>
<path d="M436.103 312.818L417.071 169.803L359.499 307.797L436.103 312.818Z" fill="#1D1E5F" stroke="black" stroke-width="6" stroke-linecap="round" stroke-linejoin="round"/>
<path d="M505.113 317.34L417.071 169.803L436.103 312.817L505.113 317.34Z" fill="#FF5986" stroke="black" stroke-width="6" stroke-linecap="round" stroke-linejoin="round"/>
<path d="M566.44 242.249L576.395 317.055C576.573 318.374 576.215 319.605 575.4 320.476L417.071 169.803L566.44 242.249Z" fill="#47DDDF" stroke="black" stroke-width="6" stroke-linecap="round" stroke-linejoin="round"/>
<path d="M575.4 320.476C574.584 321.364 573.368 321.814 572.026 321.726L505.154 317.343L417.071 169.803L575.4 320.476Z" fill="#7774FF" stroke="black" stroke-width="6" stroke-linecap="round" stroke-linejoin="round"/>
<rect width="418.194" height="176.423" transform="matrix(0.99863 0.0523359 0.13191 0.991262 109 177)" fill="#FF5986" stroke="black" stroke-width="6" stroke-linecap="round" stroke-linejoin="round"/>
<path d="M562.701 470.019L549.898 373.808L132.277 351.921L145.08 448.133L145.935 454.553L563.556 476.44L562.701 470.019Z" fill="#FFE483" stroke="black" stroke-width="6" stroke-linecap="round" stroke-linejoin="round"/>
<path d="M340.333 362.736L319.83 463.62" stroke="black" stroke-width="6" stroke-linecap="round" stroke-linejoin="round"/>
<path d="M262.529 460.266L340.308 362.735" stroke="black" stroke-width="6" stroke-linecap="round" stroke-linejoin="round"/>
<path d="M142.845 431.335L340.323 362.735L189.167 456.772" stroke="black" stroke-width="6" stroke-linecap="round" stroke-linejoin="round"/>
<path d="M255.29 372.927L340.337 362.736" stroke="black" stroke-width="6" stroke-linecap="round" stroke-linejoin="round"/>
<path d="M136.956 387.079L247.974 373.776" stroke="black" stroke-width="6" stroke-linecap="round" stroke-linejoin="round"/>
<path d="M340.3 362.734L388.136 467.2" stroke="black" stroke-width="6" stroke-linecap="round" stroke-linejoin="round"/>
<path d="M445.683 470.215L340.3 362.734" stroke="black" stroke-width="6" stroke-linecap="round" stroke-linejoin="round"/>
<path d="M507.662 431.943L340.3 362.734L518.782 474.046" stroke="black" stroke-width="6" stroke-linecap="round" stroke-linejoin="round"/>
<path d="M560.2 453.638L514.049 434.556" stroke="black" stroke-width="6" stroke-linecap="round" stroke-linejoin="round"/>
<path d="M554.592 409.243L340.3 362.734" stroke="black" stroke-width="6" stroke-linecap="round" stroke-linejoin="round"/>
<circle r="6.47103" transform="matrix(0.99863 0.0523359 0.13191 0.991262 150.521 208.155)" fill="#FFB8D2" stroke="black" stroke-width="6" stroke-linecap="round" stroke-linejoin="round"/>
<circle r="25.0315" transform="matrix(0.99863 0.052336 0.13191 0.991262 235.14 254.367)" fill="#62A3FF" stroke="black" stroke-width="6" stroke-linecap="round" stroke-linejoin="round"/>
<circle r="4.55119" transform="matrix(0.99863 0.0523358 0.131911 0.991262 447.309 286.958)" fill="white" stroke="black" stroke-width="6" stroke-linecap="round" stroke-linejoin="round"/>
<circle r="10.1942" transform="matrix(0.99863 0.0523359 0.13191 0.991262 511.65 340.566)" fill="#FFB8D2" stroke="black" stroke-width="6" stroke-linecap="round" stroke-linejoin="round"/>
<circle r="2.88283" transform="matrix(0.99863 0.0523359 0.131911 0.991262 496.416 225.891)" fill="white" stroke="black" stroke-width="6" stroke-linecap="round" stroke-linejoin="round"/>
<circle r="2.88283" transform="matrix(0.99863 0.0523359 0.13191 0.991262 438.86 350.011)" fill="white" stroke="black" stroke-width="6" stroke-linecap="round" stroke-linejoin="round"/>
<circle r="2.88283" transform="matrix(0.99863 0.0523357 0.131911 0.991262 383.283 222.744)" fill="white" stroke="black" stroke-width="6" stroke-linecap="round" stroke-linejoin="round"/>
<circle r="6.56916" transform="matrix(0.99863 0.0523359 0.131911 0.991262 231.073 337.277)" fill="#C0FF97" stroke="black" stroke-width="6" stroke-linecap="round" stroke-linejoin="round"/>
<circle r="3.92555" transform="matrix(0.99863 0.0523359 0.131911 0.991262 285.279 213.789)" fill="white" stroke="black" stroke-width="6" stroke-linecap="round" stroke-linejoin="round"/>
<circle r="3.65567" transform="matrix(0.99863 0.0523359 0.13191 0.991262 164.936 276.661)" fill="white" stroke="black" stroke-width="6" stroke-linecap="round" stroke-linejoin="round"/>
<path d="M407.515 342.219C408.628 350.499 408.245 358.636 406.382 366.249L274.316 359.328C261.072 332.617 264.051 303.528 281.892 285.358C299.732 267.188 329.006 263.428 356.332 275.796C383.658 288.165 403.786 314.285 407.515 342.219Z" fill="#47DDDF" stroke="black" stroke-width="6" stroke-linecap="round" stroke-linejoin="round"/>
<path d="M350.385 286.371C356.517 288.559 362.377 291.826 367.651 295.994" stroke="black" stroke-width="6" stroke-linecap="round" stroke-linejoin="round"/>
<circle r="2.88283" transform="matrix(0.99863 0.0523357 0.131911 0.991262 157.882 330.62)" fill="white" stroke="black" stroke-width="6" stroke-linecap="round" stroke-linejoin="round"/>
<rect width="399.984" height="279.405" transform="matrix(0.99863 0.052336 0.123775 0.99231 23 50)" fill="#1D1E5F" stroke="black" stroke-width="6" stroke-linecap="round" stroke-linejoin="round"/>
<path d="M365.519 343.402L57.5842 327.264L98.4345 279.493L115.973 284.533L140.431 256.607L156.452 270.172L170.009 258.157L170.246 235.672L192.962 201.769L209.783 214.84L215.866 212.11L222.492 218.554L225.049 223.916L231.694 232.536L252.5 262.48L295.353 289.441L315.174 288.604L346.451 331.052L365.519 343.402Z" fill="#7774FF" stroke="black" stroke-width="6" stroke-linecap="round" stroke-linejoin="round"/>
<path d="M140.421 256.648L163.429 332.852L115.963 284.574L139.492 331.598L156.442 270.213L252.491 262.521L76.7026 328.307L98.4249 279.534L114.271 330.276" stroke="black" stroke-width="6" stroke-linecap="round" stroke-linejoin="round"/>
<path d="M346.466 331.088L297.029 339.848L295.368 289.478L346.466 331.088V331.088Z" stroke="black" stroke-width="6" stroke-linecap="round" stroke-linejoin="round"/>
<path d="M209.769 214.844L170.232 235.676L280.474 338.95L315.159 288.608L331.323 341.615" stroke="black" stroke-width="6" stroke-linecap="round" stroke-linejoin="round"/>
<path d="M295.343 289.476L163.429 332.846" stroke="black" stroke-width="6" stroke-linecap="round" stroke-linejoin="round"/>
<path d="M115.94 284.555C119.518 284.877 156.419 270.194 156.419 270.194" stroke="black" stroke-width="6" stroke-linecap="round" stroke-linejoin="round"/>
<path d="M215.831 212.145L266.06 338.227L252.465 262.515L224.865 336.068" stroke="black" stroke-width="6" stroke-linecap="round" stroke-linejoin="round"/>
<path d="M447.971 275.526L457.05 348.311L364.651 343.468L380.804 320.797L393.359 322.302L403.521 328.555L411.233 316.883L428.542 310.66L433.587 294.973L447.971 275.526Z" fill="#7774FF" stroke="black" stroke-width="6" stroke-linecap="round" stroke-linejoin="round"/>
<path d="M411.18 316.752L426.655 346.59L447.917 275.395" stroke="black" stroke-width="6" stroke-linecap="round" stroke-linejoin="round"/>
<path d="M380.734 320.65L396.108 344.973L403.45 328.408L365.478 343.368" stroke="black" stroke-width="6" stroke-linecap="round" stroke-linejoin="round"/>
<path d="M433.535 294.858L456.998 348.195L428.49 310.544" stroke="black" stroke-width="6" stroke-linecap="round" stroke-linejoin="round"/>
<path d="M456.997 348.207L403.468 328.452" stroke="black" stroke-width="6" stroke-linecap="round" stroke-linejoin="round"/>
<circle r="11.6057" transform="matrix(0.99863 0.052336 0.123775 0.99231 264.343 134.096)" fill="#FF81AF" stroke="black" stroke-width="6" stroke-linecap="round" stroke-linejoin="round"/>
<path d="M229.314 183.061C236.948 183.461 235.501 171.652 227.841 171.251C220.182 170.849 221.655 182.66 229.314 183.061Z" fill="#FF81AF" stroke="black" stroke-width="6" stroke-linecap="round" stroke-linejoin="round"/>
<path d="M144.949 147.445C155.144 147.979 153.206 132.234 142.984 131.698C132.763 131.162 134.727 146.909 144.949 147.445Z" fill="#FFE483" stroke="black" stroke-width="6" stroke-linecap="round" stroke-linejoin="round"/>
<path d="M419.381 213.812C429.576 214.347 427.612 198.6 417.417 198.065C407.222 197.531 409.16 213.277 419.381 213.812Z" fill="#9AF3FF" stroke="black" stroke-width="6" stroke-linecap="round" stroke-linejoin="round"/>
<path d="M72.9492 100.74C80.6087 101.142 79.1356 89.3314 71.4761 88.93C63.8166 88.5286 65.2897 100.339 72.9492 100.74Z" fill="white" stroke="black" stroke-width="6" stroke-linecap="round" stroke-linejoin="round"/>
<path d="M192.371 98.1421C200.004 98.5421 198.557 86.7332 190.897 86.3318C183.238 85.9304 184.711 97.7406 192.371 98.1421Z" fill="white" stroke="black" stroke-width="6" stroke-linecap="round" stroke-linejoin="round"/>
<path d="M261.142 234.211C268.801 234.613 267.328 222.803 259.668 222.401C252.009 222 253.482 233.81 261.142 234.211Z" fill="white" stroke="black" stroke-width="6" stroke-linecap="round" stroke-linejoin="round"/>
<path d="M320.685 100.053C328.318 100.453 326.871 88.6444 319.212 88.243C311.552 87.8415 313.026 99.6518 320.685 100.053Z" fill="#6DE4A2" stroke="black" stroke-width="6" stroke-linecap="round" stroke-linejoin="round"/>
<path d="M408.229 123.061C415.889 123.462 414.416 111.652 406.756 111.251C399.097 110.849 400.57 122.66 408.229 123.061Z" fill="white" stroke="black" stroke-width="6" stroke-linecap="round" stroke-linejoin="round"/>
<path d="M151.104 209.511C158.738 209.911 157.291 198.102 149.631 197.701C141.972 197.3 143.445 209.11 151.104 209.511Z" fill="#FFFEAA" stroke="black" stroke-width="6" stroke-linecap="round" stroke-linejoin="round"/>
<path d="M85.7134 263.653C93.3465 264.053 91.8997 252.244 84.2402 251.843C76.5807 251.441 78.0539 263.251 85.7134 263.653Z" fill="white" stroke="black" stroke-width="6" stroke-linecap="round" stroke-linejoin="round"/>
<path d="M75.6567 183.031C83.2898 183.431 81.8431 171.622 74.1836 171.22C66.5241 170.819 67.9972 182.629 75.6567 183.031Z" fill="#C0FF97" stroke="black" stroke-width="6" stroke-linecap="round" stroke-linejoin="round"/>
<path d="M400.842 282.864C408.501 283.265 407.028 271.455 399.369 271.054C391.709 270.652 393.182 282.462 400.842 282.864Z" fill="white" stroke="black" stroke-width="6" stroke-linecap="round" stroke-linejoin="round"/>
<path d="M343.85 273.134C354.045 273.668 352.081 257.921 341.886 257.387C331.691 256.853 333.629 272.598 343.85 273.134Z" fill="#FFB8D2" stroke="black" stroke-width="6" stroke-linecap="round" stroke-linejoin="round"/>
<circle r="37.4575" transform="matrix(0.99863 0.052336 0.123775 0.99231 342.946 186.87)" fill="#FFBA68" stroke="black" stroke-width="6" stroke-linecap="round" stroke-linejoin="round"/>
<path d="M349.361 159.778C352.972 161.192 356.423 163.157 359.572 165.593" stroke="black" stroke-width="6" stroke-linecap="round" stroke-linejoin="round"/>
<path d="M418.55 299.318C415.038 313.095 406.813 324.511 405.037 338.9C403.345 352.71 402.392 367.951 392.627 376.793C386.971 381.918 379.065 384.137 372.109 387.608C364.614 391.389 358.2 396.704 353.21 403.267C351.944 402.658 350.691 402.022 349.451 401.361C331.47 391.819 315.989 377.408 305.201 360.168C304.59 359.192 303.995 358.199 303.413 357.207C317.576 352.952 329.76 345.021 338.857 334.133C344.536 327.275 348.946 319.279 355.612 313.356C360.39 309.111 366.195 306.05 372.67 304.363C375.551 303.613 378.631 303.101 380.913 301.377C382.835 299.915 383.992 297.709 385.112 295.551C388.84 288.322 397.096 284.092 400.831 276.87C404.633 269.54 404.836 255.578 402.743 243.192C408.223 245.543 413.558 248.366 418.676 251.623C421.494 263.52 423.446 280.138 418.55 299.318Z" fill="#FF81AF" stroke="black" stroke-width="6" stroke-linecap="round" stroke-linejoin="round"/>
<path d="M437.316 296.853C435.174 303.479 439.12 313.659 438.467 320.804C437.362 332.998 445.815 346.574 443.698 358.445C442.476 365.31 437.854 370.642 436.346 377.399C434.524 385.457 437.278 394.649 436.715 403.08C413.192 416.976 381.929 417.025 353.216 403.212C358.206 396.649 364.62 391.334 372.114 387.553C379.058 384.082 386.977 381.863 392.633 376.738C402.398 367.895 403.351 352.655 405.043 338.845C406.831 324.457 415.042 313.028 418.555 299.263C423.451 280.083 421.499 263.465 418.669 251.568C420.077 252.456 421.459 253.38 422.827 254.334C423.609 254.877 424.379 255.426 425.145 255.987C428.066 258.137 430.893 260.422 433.616 262.832C438.189 275.219 440.371 287.395 437.316 296.853Z" fill="#87D4FF" stroke="black" stroke-width="6" stroke-linecap="round" stroke-linejoin="round"/>
<path d="M388.013 238.095C388.51 251.335 380.524 263.205 368.176 266.643C363.302 267.999 357.94 268.147 353.052 269.483C342.862 272.263 332.313 276.605 326.832 285.133C316.791 300.76 301.601 307.187 289.497 307.447L289.503 306.657C289.61 298.407 290.928 290.433 293.417 282.971C300.364 262.229 315.909 246.539 336.735 239.249C337.106 239.115 337.484 238.988 337.863 238.867C339.328 238.38 340.824 237.932 342.345 237.534C343.114 237.335 343.878 237.136 344.657 236.963C358.331 233.819 373.211 234.207 388.007 238.095L388.013 238.095Z" fill="#FF81AF" stroke="black" stroke-width="6" stroke-linecap="round" stroke-linejoin="round"/>
<path d="M400.831 276.869C397.09 284.092 388.834 288.321 385.093 295.549C383.974 297.708 382.817 299.914 380.894 301.375C378.655 303.096 375.545 303.613 372.652 304.361C366.177 306.049 360.372 309.109 355.594 313.355C348.927 319.278 344.486 327.272 338.839 334.131C329.741 345.019 317.558 352.951 303.394 357.206C299.262 350.126 295.994 342.711 293.67 335.145C290.851 325.917 289.443 316.574 289.496 307.446C301.613 307.187 316.804 300.761 326.845 285.133C332.294 276.604 342.862 272.263 353.051 269.483C357.94 268.147 363.302 267.999 368.176 266.643C380.524 263.204 388.51 251.334 388.013 238.095C392.987 239.404 397.917 241.109 402.75 243.192C404.842 255.578 404.639 269.54 400.831 276.869Z" fill="#87D4FF" stroke="black" stroke-width="6" stroke-linecap="round" stroke-linejoin="round"/>
<path d="M470.092 328.948C470.169 329.522 470.246 330.102 470.323 330.682C472.736 351.614 467.591 371.35 455.799 386.4L455.804 386.437C455.011 387.441 454.197 388.42 453.361 389.372L453.032 389.729C448.359 394.984 442.89 399.485 436.763 403.119C437.326 394.688 434.572 385.496 436.394 377.438C437.921 370.682 442.543 365.35 443.746 358.484C445.866 346.589 437.41 333.037 438.515 320.843C439.165 313.667 435.222 303.518 437.364 296.892C440.426 287.435 438.238 275.259 433.659 262.926C453.702 280.682 466.874 304.55 470.092 328.948Z" fill="#FF81AF" stroke="black" stroke-width="6" stroke-linecap="round" stroke-linejoin="round"/>
<path d="M336.224 254.543C336.224 254.543 342.382 249.384 355.88 248.7" stroke="black" stroke-width="6" stroke-linecap="round" stroke-linejoin="round"/>
<path d="M470.323 330.682C453.274 343.266 431.021 355.331 405.388 365.229C377.494 375.988 349.835 382.532 325.858 384.755C290.713 388.053 263.475 382.178 254.993 366.995C245.948 350.827 260.291 327.969 289.546 306.659C289.423 316.039 290.846 325.657 293.764 335.151C286.131 342.439 282.935 348.893 285.526 353.526C287.947 357.806 294.955 359.962 305.202 360.168C325.003 360.562 356.826 353.685 390.348 340.74C422.698 328.26 448.85 313.177 461.797 300.599C469.202 293.409 472.282 287.059 469.722 282.478C467.034 277.675 458.512 275.544 446.16 275.846C440.004 268.422 432.92 261.745 425.139 256.03C424.373 255.469 423.602 254.92 422.82 254.377C462.888 248.838 494.7 254.303 504.018 270.945C512.971 286.974 498.983 309.537 470.323 330.682Z" fill="#FFBA68" stroke="black" stroke-width="6" stroke-linecap="round" stroke-linejoin="round"/>
</svg>
