<svg width="281" height="65" viewBox="0 0 281 65" fill="none" xmlns="http://www.w3.org/2000/svg">
<path d="M277.05 3.65234H3.00751V38.0534H277.05V3.65234Z" fill="#C93535"/>
<path fill-rule="evenodd" clip-rule="evenodd" d="M22.9581 15.0174H28.3472V11.4029H13.972V15.0174H19.3738V29.465H22.9583V15.0174H22.9581ZM33.636 22.2473V18.6325C33.6334 18.1498 33.7294 17.6718 33.9181 17.228C34.2822 16.3585 34.9704 15.6668 35.8355 15.3009C36.2779 15.1138 36.7531 15.0175 37.233 15.0175C37.713 15.0175 38.1881 15.1138 38.6305 15.3009C39.4956 15.6668 40.1839 16.3585 40.5479 17.228C40.7366 17.6718 40.8326 18.1498 40.83 18.6325V22.2473H33.636ZM44.427 18.6325C44.4334 17.6651 44.2414 16.7068 43.8629 15.8173C43.1321 14.0837 41.759 12.7037 40.0341 11.9693C39.1471 11.5952 38.1949 11.4025 37.233 11.4025C36.2711 11.4025 35.3189 11.5952 34.432 11.9693C33.5789 12.3332 32.8041 12.8596 32.15 13.5195C31.4981 14.1811 30.9771 14.9612 30.6148 15.8182C30.2372 16.7075 30.0458 17.6655 30.0526 18.6325V29.465H33.636V25.8499H40.83V29.465H44.427V18.6325ZM65.3818 16.5667C65.3864 15.8421 65.2435 15.1241 64.962 14.457C64.4182 13.1549 63.3877 12.1193 62.0921 11.5728C61.1514 11.1696 60.1152 11.0473 59.1072 11.2206C58.0992 11.3938 57.1622 11.8552 56.4084 12.5496C55.9229 12.1004 55.3574 11.7473 54.7415 11.5091C53.4401 11.0098 51.9974 11.0326 50.7122 11.5728C49.4169 12.1194 48.3867 13.1549 47.8431 14.4568C47.5616 15.1239 47.4188 15.8419 47.4233 16.5665V29.4648H51.0203V16.5667C51.0203 16.089 51.2091 15.6309 51.5452 15.2931C51.8813 14.9553 52.3371 14.7655 52.8124 14.7655C53.2877 14.7655 53.7436 14.9553 54.0797 15.2931C54.4158 15.6309 54.6046 16.089 54.6046 16.5667V29.465H58.2005V16.5667C58.201 16.2102 58.3065 15.8618 58.5036 15.5654C58.7008 15.2691 58.9808 15.038 59.3084 14.9012C59.636 14.7645 59.9965 14.7283 60.3446 14.7972C60.6926 14.866 61.0126 15.0368 61.2642 15.2881C61.4281 15.4533 61.5598 15.6478 61.6528 15.8615C61.7496 16.0838 61.7987 16.3242 61.7969 16.5669V29.4652H65.3812V16.5667H65.3818ZM75.7842 15.0165C76.2625 15.0135 76.7361 15.1101 77.1754 15.3C78.0373 15.6686 78.7227 16.3597 79.0867 17.2271C79.2727 17.6717 79.3685 18.1492 79.3685 18.6315C79.3685 19.1138 79.2727 19.5913 79.0867 20.0359C78.7227 20.9034 78.0373 21.5945 77.1754 21.9632C76.736 22.153 76.2624 22.2495 75.7842 22.2465H72.1872V15.0174H75.7842V15.0165ZM72.1872 25.849H75.7842C76.7428 25.8546 77.6922 25.6617 78.5733 25.2823C80.2983 24.5478 81.6714 23.1678 82.402 21.434C83.0283 19.9408 83.1365 18.2793 82.709 16.7168C82.2031 14.8995 81.0176 13.3492 79.4005 12.3902C78.864 12.0729 78.2887 11.8274 77.689 11.6597C77.0688 11.4862 76.4278 11.3993 75.784 11.4015H68.5903V29.4641H72.1872V25.8499V25.849ZM97.3909 25.849H88.668V22.2473H94.571V18.6325H88.668V15.0174H97.3905V11.4029H85.071V29.4656H97.3905V25.8499L97.3909 25.849ZM107.104 15.0165C107.582 15.0135 108.056 15.1101 108.495 15.3C109.357 15.6686 110.042 16.3597 110.406 17.2271C110.592 17.6717 110.688 18.1492 110.688 18.6315C110.688 19.1138 110.592 19.5913 110.406 20.0359C110.042 20.9034 109.357 21.5945 108.495 21.9632C108.056 22.153 107.582 22.2495 107.104 22.2465H103.507V15.0174H107.104V15.0165ZM103.507 25.849L107.53 25.8238L109.097 29.4641H112.92L110.928 24.7406C111.442 24.4156 111.914 24.0262 112.331 23.5818C112.745 23.1422 113.101 22.6511 113.39 22.1206C113.678 21.5913 113.902 21.0288 114.054 20.4453C114.372 19.2218 114.363 17.9359 114.029 16.7168C113.523 14.8995 112.338 13.3492 110.721 12.3902C110.184 12.0729 109.609 11.8274 109.009 11.6597C108.389 11.4862 107.748 11.3993 107.104 11.4015H99.9101V29.4641H103.507V25.8499V25.849ZM128.961 25.849H120.238V22.2473H126.141V18.6325H120.238V15.0174H128.961V11.4029H116.641V29.4656H128.961V25.8499V25.849ZM152.962 20.5084H149.49V25.6473C149.102 25.8419 148.695 25.9939 148.274 26.1007C147.844 26.2103 147.402 26.2653 146.959 26.2644C146.198 26.2695 145.444 26.115 144.746 25.811C143.38 25.2207 142.292 24.1248 141.707 22.7502C141.404 22.0422 141.251 21.2788 141.256 20.5082C141.251 19.7437 141.405 18.9865 141.707 18.2851C141.998 17.6073 142.415 16.9916 142.935 16.4711C143.458 15.9519 144.072 15.5354 144.746 15.2431C145.451 14.9407 146.21 14.7864 146.976 14.7897C147.742 14.7929 148.5 14.9537 149.202 15.262C149.905 15.5723 150.544 16.0147 151.082 16.5656L152.963 13.4167C151.288 11.9829 149.159 11.1971 146.959 11.2008C146.127 11.1981 145.298 11.3105 144.496 11.5346C142.95 11.9651 141.541 12.7895 140.404 13.9278C139.839 14.4908 139.35 15.1263 138.95 15.8177C138.547 16.5161 138.233 17.2631 138.017 18.0409C137.793 18.8443 137.681 19.6749 137.683 20.5092C137.681 21.3477 137.793 22.1826 138.016 22.9906C138.231 23.7732 138.545 24.5249 138.951 25.2271C139.351 25.9185 139.84 26.554 140.405 27.117C140.969 27.6806 141.601 28.1714 142.285 28.5782C142.978 28.9889 143.722 29.3065 144.497 29.5227C145.299 29.7468 146.127 29.859 146.959 29.8563C149.159 29.8595 151.288 29.0734 152.962 27.6396V20.5092L152.962 20.5084ZM159.115 22.2465V18.6325C159.113 18.1498 159.209 17.6718 159.397 17.228C159.761 16.3585 160.45 15.6668 161.315 15.3009C161.757 15.1138 162.232 15.0175 162.712 15.0175C163.192 15.0175 163.667 15.1138 164.11 15.3009C164.975 15.6668 165.663 16.3585 166.027 17.228C166.216 17.6718 166.312 18.1498 166.309 18.6325V22.2473H159.115V22.2465ZM169.906 18.6316C169.913 17.6642 169.721 16.7059 169.342 15.8165C168.612 14.0827 167.238 12.7027 165.513 11.9684C164.626 11.5943 163.674 11.4016 162.712 11.4016C161.75 11.4016 160.798 11.5943 159.911 11.9684C159.058 12.3325 158.283 12.8589 157.629 13.5186C156.977 14.1803 156.456 14.9603 156.094 15.8173C155.716 16.7068 155.524 17.6651 155.53 18.6325V29.465H159.114V25.8499H166.308V29.465H169.905V18.6325L169.906 18.6316ZM190.861 16.5659C190.866 15.8412 190.723 15.1233 190.441 14.4561C189.897 13.1544 188.867 12.1191 187.571 11.5728C186.631 11.1696 185.594 11.0473 184.586 11.2206C183.578 11.3938 182.642 11.8552 181.888 12.5496C181.402 12.1004 180.837 11.7473 180.221 11.5091C178.919 11.0098 177.477 11.0326 176.191 11.5728C174.896 12.1192 173.865 13.1549 173.321 14.4572C173.04 15.1243 172.897 15.8423 172.902 16.5669V29.4652H176.499V16.5667C176.499 16.3302 176.545 16.096 176.635 15.8774C176.725 15.6589 176.857 15.4603 177.023 15.2931C177.19 15.1258 177.387 14.9932 177.605 14.9026C177.822 14.8121 178.055 14.7655 178.291 14.7655C178.526 14.7655 178.759 14.8121 178.976 14.9026C179.194 14.9932 179.391 15.1258 179.558 15.2931C179.724 15.4603 179.856 15.6589 179.946 15.8774C180.036 16.096 180.083 16.3302 180.083 16.5667V29.465H183.68V16.5667C183.68 16.21 183.786 15.8614 183.983 15.5649C184.18 15.2684 184.46 15.0372 184.788 14.9006C185.116 14.7639 185.477 14.7279 185.825 14.797C186.173 14.8661 186.493 15.0373 186.745 15.289C186.909 15.4542 187.04 15.6486 187.133 15.8623C187.23 16.0847 187.279 16.3251 187.277 16.5678V29.466H190.862V16.5667L190.861 16.5659ZM206.389 25.849H197.667V22.2473H203.57V18.6325H197.667V15.0174H206.389V11.4029H194.07V29.4656H206.389V25.8499V25.849ZM219.687 22.2465H226.869V29.4641H230.465V11.4029H226.869V18.6325H219.687V11.4029H216.091V29.4656H219.687V22.2473V22.2465ZM247.974 11.4029H244.376V22.248C244.379 22.7285 244.284 23.2046 244.095 23.6461C243.913 24.0741 243.651 24.4632 243.324 24.7928C242.995 25.1229 242.605 25.3859 242.177 25.5675C241.734 25.7546 241.26 25.8509 240.78 25.8509C240.3 25.8509 239.825 25.7546 239.383 25.5675C238.955 25.3859 238.565 25.1229 238.236 24.7928C237.909 24.4632 237.647 24.0741 237.465 23.6461C237.276 23.2046 237.18 22.7285 237.184 22.248V11.4029H233.598V22.248C233.592 23.2154 233.784 24.1738 234.162 25.0633C234.889 26.792 236.258 28.1678 237.978 28.8986C238.865 29.2728 239.818 29.4656 240.78 29.4656C241.742 29.4656 242.694 29.2728 243.582 28.8986C244.434 28.5347 245.21 28.011 245.868 27.3557C246.525 26.6986 247.048 25.9197 247.41 25.0623C247.789 24.1728 247.981 23.2144 247.974 22.2469V11.4029ZM265.338 23.0101C265.25 22.6544 265.122 22.3099 264.956 21.9836C264.792 21.6602 264.589 21.3579 264.354 21.083C264.132 20.8201 263.865 20.6002 263.565 20.4343C263.856 20.2523 264.117 20.0272 264.341 19.7666C264.578 19.4947 264.78 19.1944 264.943 18.8724C265.109 18.5477 265.239 18.2059 265.332 17.8531C265.421 17.5161 265.467 17.169 265.469 16.8203C265.474 16.0971 265.329 15.3808 265.044 14.7167C264.49 13.4212 263.462 12.3887 262.173 11.8323C261.513 11.5449 260.801 11.3991 260.081 11.404H251.095V29.4667H260.081C260.801 29.4717 261.513 29.3258 262.173 29.0384C263.462 28.4819 264.49 27.4494 265.044 26.1538C265.329 25.4898 265.474 24.7735 265.469 24.0504C265.467 23.6994 265.423 23.3499 265.338 23.0095V23.0101ZM254.691 22.248H260.081C260.436 22.248 260.783 22.3537 261.078 22.5518C261.373 22.7499 261.604 23.0314 261.74 23.3609C261.876 23.6903 261.912 24.0529 261.843 24.4028C261.774 24.7528 261.604 25.0744 261.353 25.3271C261.186 25.4945 260.988 25.627 260.769 25.7167C260.551 25.8065 260.317 25.8518 260.081 25.8499H254.691V22.2473V22.248ZM254.691 15.018H260.081C260.317 15.0158 260.551 15.0608 260.769 15.1504C260.988 15.24 261.186 15.3725 261.353 15.5401C261.52 15.7077 261.652 15.907 261.741 16.1264C261.83 16.3458 261.875 16.5809 261.873 16.8179C261.874 17.0619 261.827 17.3037 261.736 17.5295C261.601 17.8582 261.371 18.1388 261.076 18.3352C260.782 18.5316 260.435 18.6348 260.081 18.6316H254.691V15.0174V15.018Z" fill="white"/>
<path fill-rule="evenodd" clip-rule="evenodd" d="M66.0806 45.4744H63.9561V53.1191C63.9572 53.264 63.9284 53.4076 63.8716 53.5408C63.8171 53.6689 63.739 53.7854 63.6413 53.8842C63.5182 54.0093 63.3662 54.1018 63.1988 54.1535C63.0315 54.2052 62.8541 54.2145 62.6823 54.1805C62.5106 54.1465 62.3498 54.0703 62.2145 53.9587C62.0792 53.847 61.9735 53.7035 61.9068 53.5408C61.8519 53.4071 61.8241 53.2638 61.825 53.1191V45.4744H59.6925V53.1191C59.6933 53.2637 59.6655 53.4071 59.6107 53.5408C59.5307 53.7361 59.3948 53.903 59.2202 54.0204C59.0456 54.1379 58.8403 54.2006 58.6302 54.2006C58.4201 54.2006 58.2148 54.1379 58.0402 54.0204C57.8657 53.903 57.7298 53.7361 57.6497 53.5408C57.5947 53.4072 57.5669 53.2638 57.568 53.1191V45.4744H55.436V53.1191C55.4333 53.5486 55.518 53.9741 55.6849 54.3694C56.0071 55.1414 56.6179 55.7553 57.386 56.0791C57.7794 56.2468 58.2028 56.3319 58.6301 56.3292C59.0209 56.3302 59.4086 56.2593 59.774 56.1201C60.1393 55.9815 60.4747 55.7738 60.762 55.5081C61.0483 55.7731 61.3822 55.9808 61.746 56.1201C62.1103 56.2596 62.4971 56.3305 62.887 56.3292C63.3143 56.3319 63.7376 56.2468 64.131 56.0791C64.8991 55.7553 65.51 55.1414 65.8321 54.3694C65.999 53.9741 66.0837 53.5486 66.081 53.1191V45.4744H66.0806ZM78.9327 45.4744H76.8084V53.1191C76.8092 53.2641 76.78 53.4077 76.7228 53.5408C76.6684 53.669 76.5903 53.7855 76.4925 53.8842C76.3694 54.0092 76.2174 54.1016 76.0501 54.1533C75.8828 54.2049 75.7053 54.2141 75.5336 54.1801C75.3619 54.1461 75.2012 54.07 75.0659 53.9584C74.9306 53.8469 74.8248 53.7034 74.758 53.5408C74.7032 53.4071 74.6755 53.2637 74.6765 53.1191V45.4744H72.5446V53.1191C72.5455 53.2638 72.5177 53.4071 72.4628 53.5408C72.3828 53.7361 72.2469 53.903 72.0723 54.0204C71.8977 54.1379 71.6924 54.2006 71.4823 54.2006C71.2722 54.2006 71.0669 54.1379 70.8923 54.0204C70.7178 53.903 70.5819 53.7361 70.5018 53.5408C70.4469 53.4071 70.4192 53.2638 70.4201 53.1191V45.4744H68.2881V53.1191C68.2855 53.5486 68.3702 53.9741 68.537 54.3694C68.8592 55.1414 69.47 55.7553 70.2381 56.0791C70.6316 56.2468 71.055 56.3319 71.4824 56.3292C71.8732 56.3301 72.2609 56.2592 72.6263 56.1201C72.9916 55.9815 73.3269 55.7738 73.6141 55.5081C73.9005 55.7732 74.2346 55.9809 74.5985 56.1201C74.9628 56.2596 75.3496 56.3305 75.7395 56.3292C76.1669 56.3319 76.5903 56.2468 76.9838 56.0791C77.7517 55.7552 78.3626 55.1413 78.6849 54.3694C78.8516 53.974 78.9362 53.5486 78.9335 53.1191V45.4744H78.9327ZM91.785 45.4744H89.6605V53.1191C89.6616 53.264 89.6328 53.4076 89.576 53.5408C89.5215 53.6689 89.4434 53.7854 89.3457 53.8842C89.1452 54.0842 88.8742 54.1964 88.5917 54.1964C88.3092 54.1964 88.0382 54.0842 87.8377 53.8842C87.7403 53.786 87.6633 53.6693 87.6112 53.5408C87.5563 53.4071 87.5285 53.2638 87.5294 53.1191V45.4744H85.3975V53.1191C85.3984 53.2637 85.3707 53.4071 85.316 53.5408C85.2358 53.736 85.0998 53.9028 84.9253 54.0201C84.7507 54.1375 84.5454 54.2002 84.3354 54.2002C84.1253 54.2002 83.92 54.1375 83.7455 54.0201C83.5709 53.9028 83.4349 53.736 83.3548 53.5408C83.3 53.4071 83.2722 53.2637 83.2732 53.1191V45.4744H81.1413V53.1191C81.1386 53.5486 81.2232 53.9741 81.39 54.3694C81.7123 55.1413 82.3231 55.7552 83.0911 56.0791C83.4846 56.2468 83.908 56.3319 84.3354 56.3292C84.7262 56.3301 85.1138 56.2592 85.4793 56.1201C85.8444 55.9816 86.1797 55.7739 86.4669 55.5083C86.7531 55.7735 87.0872 55.9812 87.451 56.1203C87.8154 56.2598 88.2021 56.3307 88.592 56.3294C89.0194 56.3321 89.4428 56.247 89.8363 56.0793C90.6044 55.7555 91.2152 55.1416 91.5374 54.3697C91.7042 53.9743 91.7889 53.5488 91.7863 53.1193V45.4747L91.785 45.4744ZM96.2508 54.9256C96.1888 54.7748 96.0979 54.6377 95.9833 54.5221C95.8679 54.4066 95.7316 54.3142 95.5819 54.2497C95.425 54.1831 95.2564 54.1488 95.0861 54.1488C94.9158 54.1488 94.7472 54.1831 94.5903 54.2497C94.4384 54.3141 94.2999 54.4065 94.1819 54.5221C94.0651 54.6373 93.9717 54.7744 93.9072 54.9256C93.84 55.0811 93.8059 55.2489 93.8068 55.4185C93.8058 55.5878 93.8384 55.7556 93.9029 55.912C93.9673 56.0684 94.0623 56.2103 94.1821 56.3292C94.3001 56.4449 94.4386 56.5373 94.5905 56.6017C94.7474 56.6683 94.916 56.7026 95.0863 56.7026C95.2566 56.7026 95.4252 56.6683 95.5821 56.6017C95.7318 56.5372 95.8681 56.4447 95.9835 56.3292C96.0987 56.2128 96.1896 56.0745 96.251 55.9224C96.3159 55.7624 96.3487 55.5912 96.3476 55.4185C96.3485 55.2493 96.3155 55.0817 96.2508 54.9256ZM102.923 47.6169H106.117V45.4744H97.5967V47.6169H100.798V56.18H102.923V47.6169ZM109.632 51.9021V49.7595C109.63 49.4735 109.687 49.1902 109.799 48.9271C110.015 48.4117 110.423 48.0017 110.935 47.7848C111.198 47.674 111.479 47.6169 111.764 47.6169C112.048 47.6169 112.33 47.674 112.592 47.7848C113.105 48.0017 113.513 48.4117 113.728 48.9271C113.84 49.1902 113.897 49.4735 113.896 49.7595V51.9021H109.632ZM116.028 49.7595C116.031 49.1862 115.917 48.6182 115.693 48.091C115.26 47.0636 114.446 46.2457 113.424 45.8104C112.898 45.5886 112.334 45.4744 111.764 45.4744C111.193 45.4744 110.629 45.5886 110.103 45.8104C109.598 46.026 109.139 46.3377 108.751 46.7286C108.365 47.1207 108.056 47.5831 107.841 48.091C107.617 48.6182 107.503 49.1862 107.507 49.7595V56.18H109.631V54.0373H113.895V56.18H116.027V49.7595H116.028ZM128.828 48.5353C128.83 48.1058 128.746 47.6802 128.579 47.2847C128.256 46.5129 127.646 45.899 126.878 45.5751C126.32 45.336 125.706 45.2635 125.109 45.3661C124.511 45.4687 123.956 45.7422 123.509 46.1538C123.221 45.8878 122.886 45.6788 122.521 45.5379C121.75 45.242 120.895 45.2554 120.133 45.5753C119.366 45.8993 118.755 46.5132 118.433 47.285C118.266 47.6804 118.181 48.106 118.184 48.5355V56.1802H120.315V48.5355C120.315 48.2524 120.427 47.9809 120.627 47.7807C120.826 47.5805 121.096 47.468 121.378 47.468C121.659 47.468 121.929 47.5805 122.129 47.7807C122.328 47.9809 122.44 48.2524 122.44 48.5355V56.1802H124.572V48.5355C124.572 48.3239 124.634 48.1171 124.751 47.9412C124.868 47.7653 125.034 47.6281 125.228 47.547C125.423 47.4659 125.637 47.4446 125.843 47.4856C126.05 47.5266 126.24 47.6283 126.389 47.7776C126.486 47.8755 126.564 47.9908 126.619 48.1174C126.676 48.2492 126.705 48.3917 126.704 48.5355V56.1802H128.828V48.5355L128.828 48.5353ZM135.373 47.6169C135.656 47.6152 135.937 47.6724 136.197 47.7848C136.708 48.0035 137.114 48.4131 137.33 48.9271C137.44 49.1906 137.497 49.4736 137.497 49.7595C137.497 50.0454 137.44 50.3284 137.33 50.5919C137.114 51.106 136.708 51.5157 136.197 51.7342C135.937 51.8466 135.656 51.9038 135.373 51.9021H133.241V47.6169H135.373ZM133.241 54.0373H135.373C135.941 54.0406 136.504 53.9262 137.026 53.7014C138.048 53.2662 138.862 52.4483 139.295 51.4207C139.667 50.5357 139.731 49.5509 139.477 48.6249C139.178 47.5477 138.475 46.6287 137.516 46.0603C137.198 45.8723 136.857 45.7268 136.502 45.6273C136.134 45.5246 135.755 45.4731 135.373 45.4744H131.11V56.18H133.241V54.0373ZM148.56 54.0373H143.39V51.9021H146.888V49.7595H143.39V47.6169H148.56V45.4744H141.258V56.18H148.56V54.0373H148.56ZM154.697 47.6169C154.98 47.6152 155.261 47.6724 155.521 47.7848C156.032 48.0034 156.438 48.413 156.654 48.9271C156.764 49.1906 156.821 49.4736 156.821 49.7595C156.821 50.0454 156.764 50.3284 156.654 50.5919C156.438 51.1061 156.032 51.5158 155.521 51.7342C155.261 51.8466 154.98 51.9038 154.697 51.9021H152.565V47.6169H154.697ZM152.565 54.0373L154.95 54.0222L155.878 56.18H158.144L156.963 53.3803C157.268 53.1877 157.547 52.957 157.795 52.6936C158.04 52.433 158.251 52.142 158.422 51.8276C158.593 51.5139 158.725 51.1804 158.816 50.8346C159.004 50.1095 158.999 49.3474 158.801 48.6249C158.501 47.5477 157.799 46.6287 156.84 46.0603C156.522 45.8723 156.181 45.7268 155.826 45.6273C155.458 45.5246 155.078 45.4732 154.697 45.4744H150.433V56.18H152.565V54.0373H152.565ZM168.032 54.0373H162.862V51.9021H166.36V49.7595H162.862V47.6169H168.032V45.4744H160.73V56.18H168.032V54.0373H168.032ZM172.088 54.9256C172.026 54.7748 171.935 54.6377 171.821 54.5221C171.705 54.4066 171.569 54.3142 171.419 54.2497C171.262 54.1831 171.094 54.1488 170.923 54.1488C170.753 54.1488 170.585 54.1831 170.428 54.2497C170.276 54.3141 170.137 54.4065 170.019 54.5221C169.902 54.6373 169.809 54.7744 169.744 54.9256C169.677 55.0811 169.643 55.249 169.644 55.4185C169.643 55.5916 169.677 55.763 169.744 55.9224C169.808 56.0749 169.902 56.2132 170.019 56.3292C170.137 56.4449 170.276 56.5373 170.428 56.6017C170.585 56.6682 170.753 56.7025 170.923 56.7025C171.094 56.7025 171.262 56.6682 171.419 56.6017C171.569 56.5372 171.705 56.4447 171.821 56.3292C171.936 56.2128 172.027 56.0745 172.088 55.9224C172.153 55.7624 172.186 55.5912 172.185 55.4185C172.186 55.2494 172.154 55.0818 172.089 54.9256H172.088ZM182.764 50.872H180.706V53.9178C180.477 54.0332 180.235 54.1233 179.986 54.1866C179.731 54.2516 179.469 54.2842 179.206 54.2836C178.755 54.2866 178.308 54.1951 177.895 54.0148C177.085 53.665 176.44 53.0154 176.094 52.2007C175.914 51.7812 175.823 51.3287 175.826 50.872C175.823 50.4188 175.914 49.97 176.094 49.5541C176.266 49.1525 176.513 48.7876 176.821 48.4792C177.131 48.1715 177.495 47.9246 177.895 47.7513C178.312 47.5721 178.762 47.4807 179.216 47.4826C179.671 47.4845 180.12 47.5798 180.536 47.7625C180.953 47.9465 181.331 48.2088 181.65 48.5353L182.764 46.6689C181.772 45.819 180.51 45.3531 179.206 45.3549C178.713 45.3533 178.222 45.4199 177.747 45.5528C176.83 45.8082 175.995 46.2969 175.322 46.9717C174.987 47.3054 174.697 47.6819 174.46 48.0917C174.221 48.5056 174.035 48.9483 173.907 49.4093C173.774 49.8856 173.708 50.3781 173.71 50.8726C173.708 51.3696 173.775 51.8643 173.907 52.3432C174.034 52.8069 174.22 53.2523 174.46 53.6685C174.697 54.0781 174.987 54.4546 175.322 54.7882C175.656 55.1223 176.03 55.4132 176.436 55.6542C176.847 55.8976 177.288 56.0859 177.747 56.2141C178.222 56.347 178.713 56.4135 179.207 56.4118C180.511 56.4139 181.772 55.948 182.765 55.098V50.8722L182.764 50.872ZM186.792 51.9021V49.7595C186.79 49.4735 186.847 49.1902 186.959 48.9271C187.175 48.4114 187.584 48.0013 188.097 47.7848C188.359 47.674 188.641 47.6169 188.925 47.6169C189.21 47.6169 189.491 47.674 189.754 47.7848C190.266 48.0017 190.674 48.4117 190.89 48.9271C191.002 49.1902 191.059 49.4735 191.057 49.7595V51.9021H186.793H186.792ZM193.187 49.7595C193.191 49.1862 193.077 48.6182 192.853 48.091C192.42 47.0636 191.606 46.2457 190.584 45.8104C190.058 45.5886 189.493 45.4744 188.923 45.4744C188.353 45.4744 187.789 45.5886 187.263 45.8104C186.758 46.026 186.298 46.3377 185.911 46.7286C185.524 47.1207 185.216 47.5831 185.001 48.091C184.777 48.6182 184.663 49.1862 184.667 49.7595V56.18H186.791V54.0373H191.055V56.18H193.189V49.7595H193.187ZM205.987 48.5353C205.99 48.1058 205.905 47.6802 205.738 47.2847C205.416 46.5129 204.805 45.899 204.037 45.5751C203.48 45.336 202.866 45.2635 202.268 45.3661C201.671 45.4687 201.116 45.7422 200.669 46.1538C200.381 45.8878 200.046 45.6788 199.681 45.5379C198.91 45.242 198.055 45.2554 197.293 45.5753C196.525 45.8993 195.915 46.5132 195.592 47.285C195.425 47.6804 195.341 48.106 195.343 48.5355V56.1802H197.475V48.5355C197.473 48.394 197.499 48.2536 197.552 48.1223C197.604 47.991 197.682 47.8715 197.781 47.7708C197.88 47.6701 197.998 47.5901 198.128 47.5355C198.257 47.4809 198.397 47.4527 198.538 47.4527C198.678 47.4527 198.818 47.4809 198.948 47.5355C199.077 47.5901 199.195 47.6701 199.294 47.7708C199.393 47.8715 199.471 47.991 199.523 48.1223C199.576 48.2536 199.602 48.394 199.6 48.5355V56.1802H201.732V48.5355C201.732 48.3239 201.794 48.1171 201.911 47.9412C202.028 47.7653 202.194 47.6281 202.388 47.547C202.583 47.4659 202.797 47.4446 203.003 47.4856C203.21 47.5266 203.4 47.6283 203.549 47.7776C203.646 47.8755 203.724 47.9908 203.779 48.1174C203.836 48.2492 203.865 48.3917 203.863 48.5355V56.1802H205.988V48.5355L205.987 48.5353ZM215.57 54.0373H210.402V51.9021H213.9V49.7595H210.402V47.6169H215.571V45.4744H208.27V56.18H215.571V54.0373H215.57ZM217.072 49.9349C217.235 50.3165 217.468 50.6636 217.759 50.9578C218.051 51.2494 218.395 51.4836 218.773 51.6484C219.165 51.8185 219.587 51.9049 220.014 51.9021H222.146C222.288 51.9008 222.43 51.9288 222.562 51.9843C222.688 52.037 222.803 52.1144 222.9 52.2119C222.997 52.3092 223.075 52.4246 223.128 52.5517C223.235 52.82 223.235 53.1194 223.128 53.3877C223.075 53.5148 222.997 53.6303 222.9 53.7275C222.803 53.8251 222.688 53.9024 222.562 53.9551C222.43 54.0106 222.288 54.0386 222.146 54.0373H217.415V56.18H222.146C222.573 56.1824 222.997 56.0956 223.39 55.9251C223.77 55.7621 224.116 55.5278 224.408 55.2346C224.699 54.9421 224.931 54.596 225.091 54.2153C225.255 53.8198 225.34 53.3953 225.34 52.9666C225.34 52.5379 225.255 52.1135 225.091 51.718C224.77 50.9456 224.159 50.3315 223.39 50.0084C222.997 49.8406 222.573 49.7555 222.146 49.7582H220.014C219.871 49.7594 219.731 49.7315 219.599 49.6763C219.343 49.5685 219.139 49.3631 219.033 49.105C218.98 48.971 218.952 48.8278 218.953 48.6833C218.952 48.54 218.979 48.3979 219.033 48.2652C219.087 48.1381 219.164 48.0227 219.261 47.9254C219.358 47.8278 219.473 47.7505 219.599 47.6978C219.731 47.6426 219.871 47.6146 220.014 47.6156H224.903V45.4744H220.014C219.587 45.4717 219.165 45.5581 218.773 45.7282C218.009 46.0578 217.4 46.6699 217.072 47.4379C216.907 47.833 216.821 48.2576 216.821 48.6865C216.822 49.1153 216.907 49.5398 217.073 49.9349H217.072Z" fill="white"/>
</svg>
