<svg width="164" height="61" viewBox="0 0 164 61" fill="none" xmlns="http://www.w3.org/2000/svg">
<g opacity="0.95">
<path fill-rule="evenodd" clip-rule="evenodd" d="M52.0874 0.863083L58.4376 24.4865L54.8338 30.6037L58.4376 36.7208L52.0874 60.3442L28.4149 54.0125L24.9049 47.8417L17.7911 47.8953L0.455353 30.6037L17.7911 13.312L24.9049 13.3657L28.4149 7.19486L52.0874 0.863083ZM43.574 51.4905L33.1898 33.5147H12.4079L25.4819 46.849L43.574 51.4905ZM151.215 51.1285H145.144L149.062 41.8588L140.076 18.8659L146.147 18.8659L151.964 34.7624L157.686 18.8659H163.757L151.215 51.1285ZM85.9443 18.8655L91.6258 18.8655V42.7706H86.2919V39.5913C85.2893 41.456 83.1638 43.5487 78.8726 43.5084C71.0522 43.4682 69.5817 37.4986 69.5817 33.3266V18.8655H75.2766V31.8778C75.2766 35.4059 76.4396 38.1828 80.4768 38.1425C84.554 38.1425 85.9443 35.4462 85.9443 32.0522V18.8655ZM99.6512 42.7706H93.9698V18.8654H99.3036C99.3036 19.9118 99.3036 20.9179 99.2635 22.0447C100.306 20.1667 102.432 18.0874 106.683 18.1276C114.449 18.1813 115.92 24.1374 115.92 28.3631V42.7706H110.239V29.8119C110.239 26.2302 109.076 23.4935 105.079 23.4935C101.041 23.5338 99.6512 26.2302 99.6512 29.5838V42.7706ZM118.183 42.7706H123.808V18.8654H118.183V42.7706ZM123.808 15.6462H118.183V10.5486H123.808V15.6462ZM129.832 42.7706H135.502V23.2655H139.57L137.889 18.8654H135.502V10.5483H129.832V18.8654H125.897V23.2655H129.832V42.7706ZM38.3119 30.6038L48.6699 12.628L53.6754 30.6038L48.6699 48.5796L38.3119 30.6038ZM43.574 9.70312L33.1898 27.6789L12.4079 27.6789L25.4819 14.3446L43.574 9.70312Z" fill="white"/>
</g>
</svg>
