<svg width="221" height="53" viewBox="0 0 221 53" fill="none" xmlns="http://www.w3.org/2000/svg">
<g clip-path="url(#clip0_2364_7438)">
<path d="M5.84434 49.4186C6.22479 49.5006 6.51707 49.6642 6.72109 49.9098C6.93063 50.15 7.03537 50.4611 7.03537 50.8429C7.03537 51.3341 6.85066 51.7133 6.48123 51.981C6.11727 52.2426 5.57688 52.3737 4.86002 52.3737H2.19666V46.6436H4.69462C5.33975 46.6436 5.83879 46.7721 6.19173 47.0283C6.55013 47.2849 6.72934 47.6476 6.72934 48.1173C6.72934 48.4335 6.64941 48.7037 6.48947 48.9273C6.33509 49.1459 6.12004 49.3095 5.84434 49.4186ZM2.80874 47.1428V49.222H4.65326C5.12197 49.222 5.48316 49.1349 5.73678 48.9603C5.99044 48.7802 6.11727 48.5211 6.11727 48.1824C6.11727 47.8442 5.99044 47.5876 5.73678 47.413C5.48316 47.2329 5.12197 47.1428 4.65326 47.1428H2.80874ZM4.85178 51.8744C5.37008 51.8744 5.76159 51.7869 6.02628 51.6123C6.29096 51.4377 6.4233 51.165 6.4233 50.7938C6.4233 50.0789 5.89945 49.7217 4.85178 49.7217H2.80874V51.8744H4.85178Z" fill="white"/>
<path d="M10.765 52.4227C10.0151 52.4227 9.43056 52.2101 9.01149 51.7844C8.59238 51.3586 8.38284 50.7393 8.38284 49.9263V46.6436H8.99491V49.9018C8.99491 50.5672 9.14656 51.064 9.44986 51.3916C9.75312 51.7188 10.1915 51.8824 10.765 51.8824C11.344 51.8824 11.7851 51.7188 12.0884 51.3916C12.3917 51.064 12.5433 50.5672 12.5433 49.9018V46.6436H13.1389V49.9263C13.1389 50.7393 12.9293 51.3586 12.5103 51.7844C12.0967 52.2101 11.5149 52.4227 10.765 52.4227Z" fill="white"/>
<path d="M16.5797 52.4225C16.1496 52.4225 15.736 52.3544 15.339 52.2178C14.9475 52.0813 14.6442 51.9012 14.4291 51.6775L14.669 51.2112C14.8785 51.4184 15.157 51.5875 15.5044 51.7186C15.8518 51.8441 16.2102 51.9067 16.5797 51.9067C17.098 51.9067 17.4867 51.8141 17.7459 51.6285C18.0051 51.4374 18.1347 51.1918 18.1347 50.8916C18.1347 50.6625 18.063 50.4799 17.9196 50.3433C17.7818 50.2068 17.6108 50.1032 17.4068 50.0321C17.2028 49.9561 16.9188 49.874 16.5548 49.7865C16.1192 49.6775 15.7718 49.5739 15.5127 49.4758C15.2535 49.3718 15.0302 49.2166 14.8427 49.0091C14.6607 48.8019 14.5698 48.5208 14.5698 48.1661C14.5698 47.8769 14.6469 47.6148 14.8013 47.3802C14.9557 47.14 15.1928 46.9489 15.5127 46.8073C15.8325 46.6653 16.2295 46.5942 16.7038 46.5942C17.0346 46.5942 17.3572 46.6407 17.6715 46.7333C17.9913 46.8208 18.267 46.9434 18.4986 47.102L18.2919 47.5848C18.0492 47.4267 17.79 47.3091 17.5143 47.2326C17.2386 47.151 16.9684 47.11 16.7038 47.11C16.1964 47.11 15.8132 47.2081 15.554 47.4047C15.3004 47.5958 15.1735 47.8439 15.1735 48.1496C15.1735 48.3787 15.2425 48.5643 15.3803 48.7064C15.5237 48.8425 15.7002 48.949 15.9097 49.0256C16.1247 49.0966 16.4115 49.1756 16.7699 49.2627C17.1945 49.3667 17.5364 49.4703 17.7956 49.5739C18.0602 49.672 18.2836 49.825 18.4655 50.0321C18.6475 50.2342 18.7385 50.5099 18.7385 50.8591C18.7385 51.1482 18.6585 51.4129 18.4986 51.653C18.3442 51.8877 18.1044 52.0762 17.779 52.2178C17.4537 52.3544 17.0539 52.4225 16.5797 52.4225Z" fill="white"/>
<path d="M20.0721 46.6436H20.6842V52.3737H20.0721V46.6436Z" fill="white"/>
<path d="M27.4068 46.6436V52.3737H26.9022L23.1801 47.7241V52.3737H22.5681V46.6436H23.0726L26.803 51.2931V46.6436H27.4068Z" fill="white"/>
<path d="M33.3909 51.8499V52.3737H29.2966V46.6436H33.2668V47.1678H29.9087V49.2059H32.9029V49.7217H29.9087V51.8499H33.3909Z" fill="white"/>
<path d="M36.426 52.4225C35.9959 52.4225 35.5824 52.3544 35.1853 52.2178C34.7938 52.0813 34.4905 51.9012 34.2755 51.6775L34.5153 51.2112C34.7249 51.4184 35.0033 51.5875 35.3507 51.7186C35.6981 51.8441 36.0566 51.9067 36.426 51.9067C36.9443 51.9067 37.3331 51.8141 37.5923 51.6285C37.8514 51.4374 37.981 51.1918 37.981 50.8916C37.981 50.6625 37.9094 50.4799 37.766 50.3433C37.6281 50.2068 37.4572 50.1032 37.2532 50.0321C37.0491 49.9561 36.7651 49.874 36.4012 49.7865C35.9656 49.6775 35.6182 49.5739 35.359 49.4758C35.0999 49.3718 34.8765 49.2166 34.689 49.0091C34.507 48.8019 34.4161 48.5208 34.4161 48.1661C34.4161 47.8769 34.4933 47.6148 34.6477 47.3802C34.8021 47.14 35.0392 46.9489 35.359 46.8073C35.6789 46.6653 36.0759 46.5942 36.5501 46.5942C36.881 46.5942 37.2035 46.6407 37.5178 46.7333C37.8377 46.8208 38.1134 46.9434 38.345 47.102L38.1382 47.5848C37.8956 47.4267 37.6364 47.3091 37.3607 47.2326C37.085 47.151 36.8148 47.11 36.5501 47.11C36.0428 47.11 35.6595 47.2081 35.4004 47.4047C35.1467 47.5958 35.0199 47.8439 35.0199 48.1496C35.0199 48.3787 35.0888 48.5643 35.2267 48.7064C35.37 48.8425 35.5465 48.949 35.756 49.0256C35.9711 49.0966 36.2578 49.1756 36.6163 49.2627C37.0408 49.3667 37.3827 49.4703 37.6419 49.5739C37.9066 49.672 38.1299 49.825 38.3119 50.0321C38.4938 50.2342 38.5848 50.5099 38.5848 50.8591C38.5848 51.1482 38.5049 51.4129 38.345 51.653C38.1906 51.8877 37.9507 52.0762 37.6254 52.2178C37.3 52.3544 36.9002 52.4225 36.426 52.4225Z" fill="white"/>
<path d="M41.5148 52.4225C41.0847 52.4225 40.6712 52.3544 40.2741 52.2178C39.8826 52.0813 39.5794 51.9012 39.3643 51.6775L39.6041 51.2112C39.8137 51.4184 40.0921 51.5875 40.4396 51.7186C40.787 51.8441 41.1454 51.9067 41.5148 51.9067C42.0331 51.9067 42.4219 51.8141 42.6811 51.6285C42.9403 51.4374 43.07 51.1918 43.07 50.8916C43.07 50.6625 42.9982 50.4799 42.8548 50.3433C42.7169 50.2068 42.546 50.1032 42.342 50.0321C42.1379 49.9561 41.8539 49.874 41.49 49.7865C41.0544 49.6775 40.707 49.5739 40.4478 49.4758C40.1886 49.3718 39.9653 49.2166 39.7779 49.0091C39.5959 48.8019 39.5049 48.5208 39.5049 48.1661C39.5049 47.8769 39.5821 47.6148 39.7365 47.3802C39.8909 47.14 40.128 46.9489 40.4478 46.8073C40.7677 46.6653 41.1647 46.5942 41.6389 46.5942C41.9698 46.5942 42.2923 46.6407 42.6066 46.7333C42.9265 46.8208 43.2024 46.9434 43.4339 47.102L43.2272 47.5848C42.9845 47.4267 42.7252 47.3091 42.4495 47.2326C42.1738 47.151 41.9036 47.11 41.6389 47.11C41.1316 47.11 40.7483 47.2081 40.4892 47.4047C40.2355 47.5958 40.1087 47.8439 40.1087 48.1496C40.1087 48.3787 40.1776 48.5643 40.3155 48.7064C40.4588 48.8425 40.6353 48.949 40.8448 49.0256C41.0599 49.0966 41.3467 49.1756 41.7051 49.2627C42.1296 49.3667 42.4716 49.4703 42.7307 49.5739C42.9952 49.672 43.2186 49.825 43.4006 50.0321C43.5826 50.2342 43.6736 50.5099 43.6736 50.8591C43.6736 51.1482 43.5937 51.4129 43.4339 51.653C43.2793 51.8877 43.0396 52.0762 42.7142 52.2178C42.3888 52.3544 41.9891 52.4225 41.5148 52.4225Z" fill="white"/>
<path d="M49.6866 52.4225C49.1129 52.4225 48.5947 52.2969 48.1317 52.0462C47.6737 51.7951 47.3128 51.4484 47.0479 51.0062C46.7886 50.5589 46.6592 50.0596 46.6592 49.5083C46.6592 48.9571 46.7886 48.4607 47.0479 48.0185C47.3128 47.5712 47.6767 47.222 48.1398 46.9709C48.6029 46.7198 49.1215 46.5942 49.6947 46.5942C50.1249 46.5942 50.5218 46.6653 50.8857 46.8073C51.2497 46.9489 51.5585 47.1565 51.8123 47.4292L51.4236 47.8139C50.9712 47.3611 50.4005 47.1345 49.7114 47.1345C49.2535 47.1345 48.8374 47.2381 48.4623 47.4457C48.0872 47.6528 47.7925 47.9369 47.5772 48.2971C47.3679 48.6569 47.2632 49.0611 47.2632 49.5083C47.2632 49.9561 47.3679 50.3598 47.5772 50.72C47.7925 51.0802 48.0872 51.3639 48.4623 51.5714C48.8374 51.7786 49.2535 51.8822 49.7114 51.8822C50.406 51.8822 50.9767 51.653 51.4236 51.1947L51.8123 51.5795C51.5585 51.8521 51.2471 52.0623 50.8776 52.2098C50.5137 52.3514 50.1168 52.4225 49.6866 52.4225Z" fill="white"/>
<path d="M55.5271 52.4225C54.9534 52.4225 54.4322 52.2969 53.9636 52.0462C53.5005 51.7896 53.1366 51.4404 52.8717 50.9982C52.6128 50.5564 52.483 50.0596 52.483 49.5083C52.483 48.9571 52.6128 48.4607 52.8717 48.0185C53.1366 47.5767 53.5005 47.2301 53.9636 46.979C54.4322 46.7223 54.9534 46.5942 55.5271 46.5942C56.1004 46.5942 56.616 46.7198 57.0735 46.9709C57.537 47.222 57.901 47.5712 58.1654 48.0185C58.4302 48.4607 58.5627 48.9571 58.5627 49.5083C58.5627 50.0596 58.4302 50.5589 58.1654 51.0062C57.901 51.4484 57.537 51.7951 57.0735 52.0462C56.616 52.2969 56.1004 52.4225 55.5271 52.4225ZM55.5271 51.8822C55.9846 51.8822 56.3981 51.7811 56.7676 51.5795C57.1372 51.3719 57.4264 51.0882 57.6361 50.728C57.8458 50.3623 57.9505 49.9561 57.9505 49.5083C57.9505 49.0611 57.8458 48.6569 57.6361 48.2971C57.4264 47.9314 57.1372 47.6473 56.7676 47.4457C56.3981 47.2381 55.9846 47.1345 55.5271 47.1345C55.0691 47.1345 54.6531 47.2381 54.278 47.4457C53.9085 47.6473 53.6163 47.9314 53.401 48.2971C53.1917 48.6569 53.087 49.0611 53.087 49.5083C53.087 49.9561 53.1917 50.3623 53.401 50.728C53.6163 51.0882 53.9085 51.3719 54.278 51.5795C54.6531 51.7811 55.0691 51.8822 55.5271 51.8822Z" fill="white"/>
<path d="M64.7731 46.6436V52.3737H64.2686L60.5465 47.7241V52.3737H59.9344V46.6436H60.4389L64.1695 51.2931V46.6436H64.7731Z" fill="white"/>
<path d="M67.2751 47.1678V49.4186H70.2692V49.9424H67.2751V52.3737H66.6629V46.6436H70.6332V47.1678H67.2751Z" fill="white"/>
<path d="M75.9914 51.8499V52.3737H71.8972V46.6436H75.8675V47.1678H72.5094V49.2059H75.5035V49.7217H72.5094V51.8499H75.9914Z" fill="white"/>
<path d="M81.3841 52.3737L80.0607 50.5317C79.9116 50.5482 79.7574 50.5567 79.5972 50.5567H78.0423V52.3737H77.4301V46.6436H79.5972C80.3363 46.6436 80.9151 46.8182 81.3342 47.1678C81.7532 47.517 81.963 47.9972 81.963 48.6081C81.963 49.0558 81.8472 49.4351 81.6157 49.7462C81.3893 50.0519 81.0642 50.2726 80.6396 50.4091L82.054 52.3737H81.3841ZM79.581 50.0409C80.1543 50.0409 80.5926 49.9153 80.8959 49.6642C81.1992 49.4131 81.3508 49.0613 81.3508 48.6081C81.3508 48.1444 81.1992 47.7897 80.8959 47.544C80.5926 47.2929 80.1543 47.1678 79.581 47.1678H78.0423V50.0409H79.581Z" fill="white"/>
<path d="M87.5018 51.8499V52.3737H83.4077V46.6436H87.378V47.1678H84.0194V49.2059H87.014V49.7217H84.0194V51.8499H87.5018Z" fill="white"/>
<path d="M93.7793 46.6436V52.3737H93.2748L89.5528 47.7241V52.3737H88.9406V46.6436H89.4451L93.1757 51.2931V46.6436H93.7793Z" fill="white"/>
<path d="M98.1836 52.4225C97.6103 52.4225 97.0917 52.2969 96.6286 52.0462C96.1711 51.7951 95.8097 51.4484 95.5453 51.0062C95.286 50.5589 95.1566 50.0596 95.1566 49.5083C95.1566 48.9571 95.286 48.4607 95.5453 48.0185C95.8097 47.5712 96.1737 47.222 96.6368 46.9709C97.1003 46.7198 97.6184 46.5942 98.1921 46.5942C98.6219 46.5942 99.0192 46.6653 99.3831 46.8073C99.7471 46.9489 100.056 47.1565 100.309 47.4292L99.9205 47.8139C99.4686 47.3611 98.8978 47.1345 98.2084 47.1345C97.7509 47.1345 97.3344 47.2381 96.9597 47.4457C96.5846 47.6528 96.2895 47.9369 96.0746 48.2971C95.8648 48.6569 95.7602 49.0611 95.7602 49.5083C95.7602 49.9561 95.8648 50.3598 96.0746 50.72C96.2895 51.0802 96.5846 51.3639 96.9597 51.5714C97.3344 51.7786 97.7509 51.8822 98.2084 51.8822C98.9034 51.8822 99.4741 51.653 99.9205 51.1947L100.309 51.5795C100.056 51.8521 99.7441 52.0623 99.3746 52.2098C99.0106 52.3514 98.6138 52.4225 98.1836 52.4225Z" fill="white"/>
<path d="M105.708 51.8499V52.3737H101.614V46.6436H105.585V47.1678H102.226V49.2059H105.221V49.7217H102.226V51.8499H105.708Z" fill="white"/>
<path d="M109.924 47.1678V49.4186H112.918V49.9424H109.924V52.3737H109.312V46.6436H113.282V47.1678H109.924Z" fill="white"/>
<path d="M117.004 52.4225C116.431 52.4225 115.91 52.2969 115.441 52.0462C114.978 51.7896 114.614 51.4404 114.35 50.9982C114.09 50.5564 113.961 50.0596 113.961 49.5083C113.961 48.9571 114.09 48.4607 114.35 48.0185C114.614 47.5767 114.978 47.2301 115.441 46.979C115.91 46.7223 116.431 46.5942 117.004 46.5942C117.578 46.5942 118.094 46.7198 118.551 46.9709C119.014 47.222 119.378 47.5712 119.643 48.0185C119.908 48.4607 120.04 48.9571 120.04 49.5083C120.04 50.0596 119.908 50.5589 119.643 51.0062C119.378 51.4484 119.014 51.7951 118.551 52.0462C118.094 52.2969 117.578 52.4225 117.004 52.4225ZM117.004 51.8822C117.462 51.8822 117.876 51.7811 118.245 51.5795C118.615 51.3719 118.904 51.0882 119.114 50.728C119.323 50.3623 119.428 49.9561 119.428 49.5083C119.428 49.0611 119.323 48.6569 119.114 48.2971C118.904 47.9314 118.615 47.6473 118.245 47.4457C117.876 47.2381 117.462 47.1345 117.004 47.1345C116.547 47.1345 116.13 47.2381 115.755 47.4457C115.386 47.6473 115.094 47.9314 114.879 48.2971C114.669 48.6569 114.564 49.0611 114.564 49.5083C114.564 49.9561 114.669 50.3623 114.879 50.728C115.094 51.0882 115.386 51.3719 115.755 51.5795C116.13 51.7811 116.547 51.8822 117.004 51.8822Z" fill="white"/>
<path d="M125.366 52.3737L124.042 50.5317C123.893 50.5482 123.739 50.5567 123.579 50.5567H122.024V52.3737H121.412V46.6436H123.579C124.318 46.6436 124.897 46.8182 125.316 47.1678C125.735 47.517 125.945 47.9972 125.945 48.6081C125.945 49.0558 125.829 49.4351 125.597 49.7462C125.371 50.0519 125.046 50.2726 124.621 50.4091L126.036 52.3737H125.366ZM123.563 50.0409C124.136 50.0409 124.575 49.9153 124.878 49.6642C125.181 49.4131 125.333 49.0613 125.333 48.6081C125.333 48.1444 125.181 47.7897 124.878 47.544C124.575 47.2929 124.136 47.1678 123.563 47.1678H122.024V50.0409H123.563Z" fill="white"/>
<path d="M130.679 47.1678H128.644V46.6436H133.326V47.1678H131.291V52.3737H130.679V47.1678Z" fill="white"/>
<path d="M139.142 46.6436V52.3737H138.539V49.7297H134.916V52.3737H134.304V46.6436H134.916V49.1975H138.539V46.6436H139.142Z" fill="white"/>
<path d="M145.126 51.8499V52.3737H141.032V46.6436H145.003V47.1678H141.645V49.2059H144.639V49.7217H141.645V51.8499H145.126Z" fill="white"/>
<path d="M152.808 49.5083H153.395V51.694C153.125 51.9287 152.805 52.1088 152.436 52.2343C152.066 52.3599 151.677 52.4225 151.269 52.4225C150.691 52.4225 150.169 52.2969 149.706 52.0462C149.243 51.7951 148.879 51.4484 148.614 51.0062C148.35 50.5589 148.217 50.0596 148.217 49.5083C148.217 48.9571 148.35 48.4607 148.614 48.0185C148.879 47.5712 149.243 47.222 149.706 46.9709C150.169 46.7198 150.693 46.5942 151.277 46.5942C151.719 46.5942 152.124 46.6653 152.494 46.8073C152.863 46.9434 153.175 47.1481 153.428 47.4212L153.048 47.8059C152.59 47.3582 152.008 47.1345 151.302 47.1345C150.834 47.1345 150.409 47.2381 150.029 47.4457C149.654 47.6473 149.359 47.9314 149.144 48.2971C148.928 48.6569 148.821 49.0611 148.821 49.5083C148.821 49.9561 148.928 50.3598 149.144 50.72C149.359 51.0802 149.654 51.3639 150.029 51.5714C150.403 51.7786 150.826 51.8822 151.294 51.8822C151.89 51.8822 152.394 51.735 152.808 51.4404V49.5083Z" fill="white"/>
<path d="M158.758 50.8429H155.533L154.838 52.3737H154.201L156.848 46.6436H157.452L160.098 52.3737H159.453L158.758 50.8429ZM158.535 50.3516L157.146 47.2739L155.756 50.3516H158.535Z" fill="white"/>
<path d="M167.07 46.6436V52.3737H166.482V47.7897L164.208 51.6453H163.918L161.644 47.8142V52.3737H161.056V46.6436H161.561L164.076 50.8919L166.565 46.6436H167.07Z" fill="white"/>
<path d="M173.05 51.8499V52.3737H168.956V46.6436H172.926V47.1678H169.568V49.2059H172.562V49.7217H169.568V51.8499H173.05Z" fill="white"/>
<path d="M176.654 46.6436H177.266V52.3737H176.654V46.6436Z" fill="white"/>
<path d="M183.989 46.6436V52.3737H183.484L179.762 47.7241V52.3737H179.15V46.6436H179.655L183.385 51.2931V46.6436H183.989Z" fill="white"/>
<path d="M185.879 46.6436H188.236C188.848 46.6436 189.388 46.7666 189.857 47.0122C190.326 47.2523 190.69 47.5905 190.949 48.0273C191.208 48.4581 191.338 48.9523 191.338 49.5086C191.338 50.0654 191.208 50.5617 190.949 50.9985C190.69 51.4297 190.326 51.7679 189.857 52.0135C189.388 52.2536 188.848 52.3737 188.236 52.3737H185.879V46.6436ZM188.202 51.8499C188.71 51.8499 189.154 51.7514 189.534 51.5552C189.915 51.3531 190.21 51.0775 190.42 50.7283C190.629 50.3736 190.734 49.9669 190.734 49.5086C190.734 49.0504 190.629 48.6466 190.42 48.2974C190.21 47.9423 189.915 47.6671 189.534 47.4705C189.154 47.2684 188.71 47.1678 188.202 47.1678H186.49V51.8499H188.202Z" fill="white"/>
<path d="M195.044 52.4227C194.295 52.4227 193.71 52.2101 193.291 51.7844C192.872 51.3586 192.662 50.7393 192.662 49.9263V46.6436H193.274V49.9018C193.274 50.5672 193.426 51.064 193.729 51.3916C194.033 51.7188 194.471 51.8824 195.044 51.8824C195.624 51.8824 196.064 51.7188 196.368 51.3916C196.671 51.064 196.823 50.5672 196.823 49.9018V46.6436H197.418V49.9263C197.418 50.7393 197.209 51.3586 196.79 51.7844C196.376 52.2101 195.794 52.4227 195.044 52.4227Z" fill="white"/>
<path d="M200.859 52.4225C200.429 52.4225 200.015 52.3544 199.619 52.2178C199.227 52.0813 198.923 51.9012 198.709 51.6775L198.948 51.2112C199.158 51.4184 199.437 51.5875 199.784 51.7186C200.131 51.8441 200.49 51.9067 200.859 51.9067C201.377 51.9067 201.766 51.8141 202.025 51.6285C202.285 51.4374 202.414 51.1918 202.414 50.8916C202.414 50.6625 202.342 50.4799 202.199 50.3433C202.061 50.2068 201.89 50.1032 201.686 50.0321C201.482 49.9561 201.198 49.874 200.834 49.7865C200.399 49.6775 200.051 49.5739 199.792 49.4758C199.533 49.3718 199.31 49.2166 199.122 49.0091C198.94 48.8019 198.849 48.5208 198.849 48.1661C198.849 47.8769 198.926 47.6148 199.081 47.3802C199.235 47.14 199.472 46.9489 199.792 46.8073C200.112 46.6653 200.509 46.5942 200.983 46.5942C201.314 46.5942 201.637 46.6407 201.951 46.7333C202.271 46.8208 202.546 46.9434 202.778 47.102L202.571 47.5848C202.329 47.4267 202.069 47.3091 201.794 47.2326C201.518 47.151 201.248 47.11 200.983 47.11C200.476 47.11 200.093 47.2081 199.833 47.4047C199.58 47.5958 199.453 47.8439 199.453 48.1496C199.453 48.3787 199.522 48.5643 199.66 48.7064C199.803 48.8425 199.979 48.949 200.189 49.0256C200.404 49.0966 200.691 49.1756 201.049 49.2627C201.474 49.3667 201.816 49.4703 202.075 49.5739C202.34 49.672 202.563 49.825 202.745 50.0321C202.927 50.2342 203.018 50.5099 203.018 50.8591C203.018 51.1482 202.938 51.4129 202.778 51.653C202.624 51.8877 202.384 52.0762 202.059 52.2178C201.733 52.3544 201.333 52.4225 200.859 52.4225Z" fill="white"/>
<path d="M205.396 47.1678H203.361V46.6436H208.043V47.1678H206.008V52.3737H205.396V47.1678Z" fill="white"/>
<path d="M212.974 52.3737L211.651 50.5317C211.502 50.5482 211.347 50.5567 211.188 50.5567H209.633V52.3737H209.02V46.6436H211.188C211.926 46.6436 212.505 46.8182 212.924 47.1678C213.344 47.517 213.553 47.9972 213.553 48.6081C213.553 49.0558 213.437 49.4351 213.206 49.7462C212.98 50.0519 212.654 50.2726 212.229 50.4091L213.644 52.3737H212.974ZM211.171 50.0409C211.744 50.0409 212.183 49.9153 212.486 49.6642C212.789 49.4131 212.941 49.0613 212.941 48.6081C212.941 48.1444 212.789 47.7897 212.486 47.544C212.183 47.2929 211.744 47.1678 211.171 47.1678H209.633V50.0409H211.171Z" fill="white"/>
<path d="M216.902 50.3926V52.3737H216.298V50.3926L213.982 46.6436H214.636L216.621 49.8608L218.606 46.6436H219.218L216.902 50.3926Z" fill="white"/>
<path d="M65.7556 9.96895L74.6056 32.5343C75.5104 34.4491 76.5561 35.8804 77.7428 36.8282C78.8749 37.7542 80.2961 38.2555 81.7601 38.2452C83.6508 38.2452 85.1293 37.5137 86.196 36.0505C87.2626 34.5874 87.7936 32.5528 87.7894 29.9468V1.08053H80.5204V29.2932L71.7563 6.43519C70.8002 4.49287 69.7545 3.05626 68.619 2.12538C67.5528 1.21832 66.1956 0.722905 64.7949 0.729061C62.7965 0.729061 61.2561 1.44736 60.174 2.88398C59.0915 4.32058 58.5516 6.38167 58.555 9.06723V37.7268H65.7492L65.7556 9.96895Z" fill="white"/>
<path opacity="0.5" d="M65.7556 9.96895L74.6056 32.5343C75.5104 34.4491 76.5561 35.8804 77.7428 36.8282C78.8749 37.7542 80.2961 38.2555 81.7601 38.2452C83.6508 38.2452 85.1293 37.5137 86.196 36.0505C87.2626 34.5874 87.7936 32.5528 87.7894 29.9468V1.08053H80.5204V29.2932L71.7563 6.43519C70.8002 4.49287 69.7545 3.05626 68.619 2.12538C67.5528 1.21832 66.1956 0.722905 64.7949 0.729061C62.7965 0.729061 61.2561 1.44736 60.174 2.88398C59.0915 4.32058 58.5516 6.38167 58.555 9.06723V37.7268H65.7492L65.7556 9.96895Z" fill="white"/>
<path d="M49.9229 33.2511C52.791 29.9957 53.5479 24.8923 53.5479 19.3532V0.727051H45.7147V20.592C45.7147 23.0841 45.0201 25.7606 43.6432 27.2714C42.2936 28.7632 40.6269 29.4884 38.4869 29.4884C36.296 29.4884 34.6181 29.0622 33.2956 27.58C31.9491 26.0771 30.6234 24.1417 30.6823 20.5825V0.727051H23.0339V20.592C23.0339 23.8618 21.7496 25.759 20.3681 27.2714C18.9866 28.7839 17.3199 29.4979 15.1513 29.4979C12.9826 29.4979 11.6218 28.7807 10.2993 27.3048C8.95283 25.8004 7.9299 23.1175 7.9299 20.5968V0.727051H0.240021V19.3532C0.240021 24.8653 0.824807 29.9623 3.70412 33.232C6.62963 36.5543 10.2674 38.2384 15.1529 38.2384C17.5571 38.2582 19.9304 37.6968 22.0699 36.602C23.872 35.6562 25.4792 34.3796 26.8071 32.8392C28.2279 34.5539 30.0152 35.9294 32.0378 36.8651C34.0605 37.8007 36.2673 38.2727 38.4965 38.2464C43.3788 38.2385 47.0103 36.5606 49.9229 33.2511Z" fill="white"/>
<path opacity="0.5" d="M49.9229 33.2511C52.791 29.9957 53.5479 24.8923 53.5479 19.3532V0.727051H45.7147V20.592C45.7147 23.0841 45.0201 25.7606 43.6432 27.2714C42.2936 28.7632 40.6269 29.4884 38.4869 29.4884C36.296 29.4884 34.6181 29.0622 33.2956 27.58C31.9491 26.0771 30.6234 24.1417 30.6823 20.5825V0.727051H23.0339V20.592C23.0339 23.8618 21.7496 25.759 20.3681 27.2714C18.9866 28.7839 17.3199 29.4979 15.1513 29.4979C12.9826 29.4979 11.6218 28.7807 10.2993 27.3048C8.95283 25.8004 7.9299 23.1175 7.9299 20.5968V0.727051H0.240021V19.3532C0.240021 24.8653 0.824807 29.9623 3.70412 33.232C6.62963 36.5543 10.2674 38.2384 15.1529 38.2384C17.5571 38.2582 19.9304 37.6968 22.0699 36.602C23.872 35.6562 25.4792 34.3796 26.8071 32.8392C28.2279 34.5539 30.0152 35.9294 32.0378 36.8651C34.0605 37.8007 36.2673 38.2727 38.4965 38.2464C43.3788 38.2385 47.0103 36.5606 49.9229 33.2511Z" fill="white"/>
<path d="M106.967 14.3611C105.811 14.3611 104.766 14.1081 103.833 13.6021C102.91 13.0961 102.182 12.3975 101.648 11.5065C101.126 10.6045 100.865 9.59799 100.865 8.48693C100.865 7.3759 101.126 6.37488 101.648 5.48387C102.182 4.58184 102.916 3.87783 103.849 3.37181C104.783 2.8658 105.828 2.61279 106.984 2.61279C107.851 2.61279 108.651 2.75579 109.384 3.0418C110.118 3.32781 110.741 3.74582 111.252 4.29583L110.468 5.07137C109.557 4.15833 108.407 3.70182 107.017 3.70182C106.095 3.70182 105.255 3.91083 104.5 4.32884C103.743 4.74685 103.149 5.31886 102.716 6.04487C102.293 6.77089 102.082 7.58492 102.082 8.48693C102.082 9.38898 102.293 10.203 102.716 10.929C103.149 11.655 103.743 12.227 104.5 12.6451C105.255 13.0631 106.095 13.2721 107.017 13.2721C108.418 13.2721 109.568 12.8101 110.468 11.886L111.252 12.6616C110.741 13.2116 110.113 13.6351 109.368 13.9321C108.634 14.2181 107.834 14.3611 106.967 14.3611Z" fill="white"/>
<path d="M118.74 14.3611C117.584 14.3611 116.533 14.1081 115.589 13.6021C114.655 13.0851 113.921 12.3811 113.388 11.49C112.865 10.599 112.604 9.59799 112.604 8.48693C112.604 7.3759 112.865 6.37488 113.388 5.48387C113.921 4.59284 114.655 3.89433 115.589 3.38831C116.533 2.8713 117.584 2.61279 118.74 2.61279C119.896 2.61279 120.935 2.8658 121.858 3.37181C122.791 3.87783 123.525 4.58184 124.059 5.48387C124.592 6.37488 124.859 7.3759 124.859 8.48693C124.859 9.59799 124.592 10.6045 124.059 11.5065C123.525 12.3975 122.791 13.0961 121.858 13.6021C120.935 14.1081 119.896 14.3611 118.74 14.3611ZM118.74 13.2721C119.662 13.2721 120.496 13.0686 121.241 12.6616C121.985 12.2436 122.569 11.6715 122.991 10.9455C123.414 10.2085 123.625 9.38898 123.625 8.48693C123.625 7.58492 123.414 6.77089 122.991 6.04487C122.569 5.30787 121.985 4.73585 121.241 4.32884C120.496 3.91083 119.662 3.70182 118.74 3.70182C117.817 3.70182 116.978 3.91083 116.222 4.32884C115.477 4.73585 114.888 5.30787 114.455 6.04487C114.033 6.77089 113.821 7.58492 113.821 8.48693C113.821 9.38898 114.033 10.2085 114.455 10.9455C114.888 11.6715 115.477 12.2436 116.222 12.6616C116.978 13.0686 117.817 13.2721 118.74 13.2721Z" fill="white"/>
<path d="M137.378 2.71143V14.2617H136.361L128.858 4.88949V14.2617H127.624V2.71143H128.641L136.161 12.0837V2.71143H137.378Z" fill="white"/>
<path d="M142.421 3.76746V8.30507H148.457V9.36109H142.421V14.2617H141.187V2.71143H149.19V3.76746H142.421Z" fill="white"/>
<path d="M159.991 13.2057V14.2617H151.738V2.71143H159.741V3.76746H152.972V7.87605H159.008V8.91558H152.972V13.2057H159.991Z" fill="white"/>
<path d="M170.861 14.2617L168.194 10.5491C167.893 10.5821 167.582 10.5987 167.26 10.5987H164.125V14.2617H162.891V2.71143H167.26C168.749 2.71143 169.916 3.06344 170.761 3.76746C171.606 4.47147 172.028 5.43949 172.028 6.67155C172.028 7.57356 171.795 8.33809 171.328 8.96509C170.872 9.5811 170.216 10.0266 169.361 10.3016L172.212 14.2617H170.861ZM167.226 9.55912C168.382 9.55912 169.266 9.30609 169.878 8.80008C170.489 8.29408 170.795 7.58455 170.795 6.67155C170.795 5.73652 170.489 5.0215 169.878 4.52648C169.266 4.02046 168.382 3.76746 167.226 3.76746H164.125V9.55912H167.226Z" fill="white"/>
<path d="M183.193 13.2057V14.2617H174.941V2.71143H182.943V3.76746H176.174V7.87605H182.21V8.91558H176.174V13.2057H183.193Z" fill="white"/>
<path d="M195.847 2.71143V14.2617H194.83L187.328 4.88949V14.2617H186.093V2.71143H187.111L194.63 12.0837V2.71143H195.847Z" fill="white"/>
<path d="M204.725 14.3611C203.569 14.3611 202.524 14.1081 201.591 13.6021C200.668 13.0961 199.94 12.3975 199.407 11.5065C198.884 10.6045 198.623 9.59799 198.623 8.48693C198.623 7.3759 198.884 6.37488 199.407 5.48387C199.94 4.58184 200.674 3.87783 201.607 3.37181C202.541 2.8658 203.586 2.61279 204.742 2.61279C205.609 2.61279 206.409 2.75579 207.143 3.0418C207.876 3.32781 208.499 3.74582 209.01 4.29583L208.227 5.07137C207.315 4.15833 206.165 3.70182 204.775 3.70182C203.853 3.70182 203.013 3.91083 202.258 4.32884C201.502 4.74685 200.907 5.31886 200.474 6.04487C200.051 6.77089 199.84 7.58492 199.84 8.48693C199.84 9.38898 200.051 10.203 200.474 10.929C200.907 11.655 201.502 12.227 202.258 12.6451C203.013 13.0631 203.853 13.2721 204.775 13.2721C206.176 13.2721 207.326 12.8101 208.227 11.886L209.01 12.6616C208.499 13.2116 207.871 13.6351 207.126 13.9321C206.392 14.2181 205.592 14.3611 204.725 14.3611Z" fill="white"/>
<path d="M219.894 13.2057V14.2617H211.64V2.71143H219.643V3.76746H212.874V7.87605H218.91V8.91558H212.874V13.2057H219.894Z" fill="white"/>
<path d="M114.334 29.9239C115.228 30.2521 115.919 30.73 116.41 31.3577C116.9 31.9853 117.145 32.7415 117.145 33.6259C117.145 34.9383 116.597 35.9583 115.502 36.6859C114.406 37.3992 112.82 37.7558 110.745 37.7558H102.226V22.7769H110.312C112.33 22.7769 113.851 23.1335 114.875 23.8468C115.913 24.5601 116.431 25.5087 116.431 26.6928C116.431 27.3918 116.251 28.0195 115.891 28.5759C115.545 29.1322 115.026 29.5816 114.334 29.9239ZM107.242 26.3076V28.533H109.62C110.73 28.533 111.285 28.1622 111.285 27.4203C111.285 26.6785 110.73 26.3076 109.62 26.3076H107.242ZM110.312 34.2251C111.437 34.2251 111.999 33.8328 111.999 33.0481C111.999 32.2635 111.437 31.8712 110.312 31.8712H107.242V34.2251H110.312Z" fill="white"/>
<path d="M131.533 33.9469V37.7558H118.949V22.7769H131.252V26.5858H123.965V28.3405H130.366V31.9782H123.965V33.9469H131.533Z" fill="white"/>
<path d="M139.984 33.9897H138.6V37.7558H133.498V22.7769H140.784C142.182 22.7769 143.401 23.0051 144.438 23.4616C145.476 23.9181 146.276 24.5743 146.839 25.4303C147.401 26.2862 147.682 27.2848 147.682 28.426C147.682 29.496 147.437 30.4304 146.947 31.2293C146.457 32.0282 145.75 32.663 144.827 33.1337L148.006 37.7558H142.557L139.984 33.9897ZM142.536 28.426C142.536 27.8697 142.363 27.4417 142.017 27.1421C141.671 26.8283 141.152 26.6714 140.46 26.6714H138.6V30.1807H140.46C141.152 30.1807 141.671 30.0309 142.017 29.7314C142.363 29.4175 142.536 28.9824 142.536 28.426Z" fill="white"/>
<path d="M149.608 22.7769H154.712V33.8399H161.544V37.7558H149.608V22.7769Z" fill="white"/>
<path d="M162.954 22.7769H168.056V37.7558H162.954V22.7769Z" fill="white"/>
<path d="M185.433 22.7769V37.7558H181.238L175.486 30.9511V37.7558H170.513V22.7769H174.708L180.459 29.5816V22.7769H185.433Z" fill="white"/>
<path d="M189.945 21.6646C190.781 21.6646 191.466 21.9142 191.999 22.4135C192.533 22.9128 192.799 23.5761 192.799 24.4036C192.799 24.7744 192.749 25.1454 192.648 25.5163C192.547 25.8872 192.316 26.4507 191.956 27.2067L190.443 30.3951H187.416L188.496 26.7788C188.05 26.5648 187.704 26.2581 187.459 25.8586C187.214 25.445 187.091 24.9599 187.091 24.4036C187.091 23.5761 187.358 22.9128 187.891 22.4135C188.425 21.9142 189.109 21.6646 189.945 21.6646Z" fill="white"/>
<path d="M206.383 33.84V37.7559H194.253V34.6531L199.724 29.6459C200.2 29.2037 200.517 28.8256 200.675 28.5118C200.833 28.1979 200.913 27.8912 200.913 27.5916C200.913 27.2207 200.783 26.9354 200.524 26.7357C200.279 26.5217 199.918 26.4147 199.443 26.4147C198.981 26.4147 198.549 26.536 198.145 26.7785C197.742 27.021 197.432 27.3634 197.216 27.8056L193.367 25.9012C193.943 24.8312 194.787 23.9895 195.896 23.3761C197.006 22.7484 198.347 22.4346 199.918 22.4346C201.115 22.4346 202.174 22.6272 203.097 23.0124C204.019 23.3975 204.74 23.9468 205.259 24.66C205.778 25.3733 206.037 26.1936 206.037 27.1209C206.037 27.9483 205.857 28.7258 205.497 29.4533C205.151 30.1666 204.466 30.9797 203.443 31.8927L201.28 33.84H206.383Z" fill="white"/>
<path d="M219.538 33.84V37.7559H207.408V34.6531L212.879 29.6459C213.354 29.2037 213.672 28.8256 213.83 28.5118C213.989 28.1979 214.068 27.8912 214.068 27.5916C214.068 27.2207 213.938 26.9354 213.679 26.7357C213.434 26.5217 213.073 26.4147 212.598 26.4147C212.136 26.4147 211.704 26.536 211.3 26.7785C210.897 27.021 210.587 27.3634 210.37 27.8056L206.522 25.9012C207.098 24.8312 207.941 23.9895 209.052 23.3761C210.161 22.7484 211.502 22.4346 213.073 22.4346C214.27 22.4346 215.329 22.6272 216.252 23.0124C217.174 23.3975 217.895 23.9468 218.414 24.66C218.933 25.3733 219.193 26.1936 219.193 27.1209C219.193 27.9483 219.012 28.7258 218.652 29.4533C218.306 30.1666 217.621 30.9797 216.598 31.8927L214.435 33.84H219.538Z" fill="white"/>
</g>
<defs>
<clipPath id="clip0_2364_7438">
<rect width="220" height="52" fill="white" transform="translate(0.240021 0.727051)"/>
</clipPath>
</defs>
</svg>
