<svg width="114" height="100" viewBox="0 0 114 100" fill="none" xmlns="http://www.w3.org/2000/svg">
<path d="M76.07 12.6666C82.7866 17.5866 87.2533 26.1299 87.2533 35.7666C87.2533 36.0166 87.2533 36.2733 87.2533 36.5233C87.1766 39.7599 86.1833 43.2566 84.6633 46.6066C81.9174 52.5645 77.6908 57.7195 72.3866 61.5799L45.3333 81.4933L18.13 61.5666C12.8142 57.7192 8.58106 52.5653 5.83996 46.6033C4.33329 43.2599 3.33329 39.7666 3.25996 36.5299C3.25996 36.2799 3.25996 36.0233 3.25996 35.7733C3.24996 20.7499 14.1 8.39327 27.4133 8.24993C31.7189 8.21089 35.9424 9.42837 39.5666 11.7533C41.6946 13.1117 43.605 14.7839 45.2333 16.7133C46.8725 14.7821 48.7942 13.1099 50.9333 11.7533C54.5589 9.42882 58.7834 8.2114 63.09 8.24993C66.0633 8.28449 68.9981 8.92771 71.7133 10.1399" fill="#FF5986"/>
<path d="M76.07 12.6666C82.7866 17.5866 87.2533 26.1299 87.2533 35.7666C87.2533 36.0166 87.2533 36.2733 87.2533 36.5233C87.1766 39.7599 86.1833 43.2566 84.6633 46.6066C81.9174 52.5645 77.6908 57.7195 72.3866 61.5799L45.3333 81.4933L18.13 61.5666C12.8142 57.7192 8.58106 52.5653 5.83996 46.6033C4.33329 43.2599 3.33329 39.7666 3.25996 36.5299C3.25996 36.2799 3.25996 36.0233 3.25996 35.7733C3.24996 20.7499 14.1 8.39327 27.4133 8.24993C31.7189 8.21089 35.9424 9.42837 39.5666 11.7533C41.6946 13.1117 43.605 14.7839 45.2333 16.7133C46.8725 14.7821 48.7942 13.1099 50.9333 11.7533C54.5589 9.42882 58.7834 8.2114 63.09 8.24993C66.0633 8.28449 68.9981 8.92771 71.7133 10.1399L76.07 12.6666Z" stroke="black" stroke-width="6" stroke-linecap="round" stroke-linejoin="round"/>
<path d="M63.2501 20C66.2537 20.796 68.9656 22.4378 71.0634 24.73" stroke="white" stroke-width="6" stroke-linecap="round" stroke-linejoin="round"/>
<path d="M38.2091 41.9134C37.2687 42.0945 33.6881 43.0713 32.6659 47.4616C32.6659 47.4828 32.6476 47.5 32.625 47.5C32.6024 47.5 32.5841 47.4828 32.5841 47.4616C31.5619 43.0713 27.9813 42.0945 27.0409 41.9134C27.0183 41.9134 27 41.8962 27 41.875C27 41.8538 27.0183 41.8366 27.0409 41.8366C27.9813 41.6555 31.5619 40.6787 32.5841 36.2884C32.5841 36.2672 32.6024 36.25 32.625 36.25C32.6476 36.25 32.6659 36.2672 32.6659 36.2884C33.6881 40.6787 37.2687 41.6555 38.2091 41.8366C38.2317 41.8366 38.25 41.8538 38.25 41.875C38.25 41.8962 38.2317 41.9134 38.2091 41.9134Z" fill="white"/>
<path d="M28.2102 30.68C26.948 30.9418 22.1668 32.3505 20.8015 38.6976C20.8015 38.7266 20.7785 38.75 20.75 38.75C20.7215 38.75 20.6985 38.7266 20.6985 38.6976C19.3332 32.3505 14.552 30.9418 13.2898 30.68C13.2661 30.6725 13.25 30.6502 13.25 30.625C13.25 30.5998 13.2661 30.5775 13.2898 30.57C14.552 30.3082 19.3332 28.8995 20.6985 22.5524C20.6985 22.5234 20.7215 22.5 20.75 22.5C20.7785 22.5 20.8015 22.5234 20.8015 22.5524C22.1668 28.8995 26.948 30.3082 28.2102 30.57C28.2339 30.5775 28.25 30.5998 28.25 30.625C28.25 30.6502 28.2339 30.6725 28.2102 30.68Z" fill="white"/>
<path d="M108.583 73.9694C108.507 74.1427 108.423 74.3027 108.343 74.4827C107.287 76.6727 105.523 78.7561 103.447 80.5727C99.7246 83.7925 95.2398 86.0051 90.4199 86.9994L65.7699 92.2327L53.3499 70.1827C50.9084 65.9069 49.6121 61.0732 49.5866 56.1494C49.5866 53.3961 49.9933 50.7027 50.9433 48.4827C51.0166 48.3094 51.0933 48.1327 51.1699 47.9627C55.8366 37.6961 67.0699 32.6094 76.2133 36.6294C79.1673 37.9391 81.6769 40.0793 83.4366 42.7894C84.4681 44.3794 85.2546 46.1155 85.7699 47.9394C87.4849 47.1287 89.312 46.5803 91.1899 46.3127C94.3904 45.8383 97.6597 46.3086 100.597 47.6661C109.667 51.8961 113.24 63.7027 108.583 73.9694Z" fill="#FF81AF" stroke="black" stroke-width="6" stroke-linecap="round" stroke-linejoin="round"/>
<path d="M95.7499 58.749C97.5576 60.2275 98.9021 62.1945 99.6233 64.4157" stroke="white" stroke-width="6" stroke-linecap="round" stroke-linejoin="round"/>
</svg>
