<svg width="111" height="101" viewBox="0 0 111 101" fill="none" xmlns="http://www.w3.org/2000/svg">
<path d="M86.5634 3.25L64.7501 24.63H34.6068L46.8267 3.25H86.5634Z" fill="#FFE483" stroke="black" stroke-width="6" stroke-linecap="round" stroke-linejoin="round"/>
<path d="M107.73 40.18L85.7 60.6967L64.75 24.63L86.5633 3.25L107.73 40.18Z" fill="#9AF3FF" stroke="black" stroke-width="6" stroke-linecap="round" stroke-linejoin="round"/>
<path d="M46.8267 3.25L34.6067 24.63H23.5L46.8267 3.25Z" fill="#FFFEAA" stroke="black" stroke-width="6" stroke-linecap="round" stroke-linejoin="round"/>
<path d="M34.6067 24.6299L25.2267 41.0432L3.41669 60.6965L23.5 24.6299H34.6067Z" fill="#7774FF" stroke="black" stroke-width="6" stroke-linecap="round" stroke-linejoin="round"/>
<path d="M45.53 76.2463L23.5 97.1963L3.41669 60.6963L25.2267 41.043L45.53 76.2463Z" fill="#62A3FF" stroke="black" stroke-width="6" stroke-linecap="round" stroke-linejoin="round"/>
<path d="M88.0567 76.2461L65.6134 97.1961L77.1434 76.2461H88.0567Z" fill="#7774FF" stroke="black" stroke-width="6" stroke-linecap="round" stroke-linejoin="round"/>
<path d="M107.73 40.1797L88.2901 76.0297L88.0568 76.2463H77.1434L85.7001 60.6964L107.73 40.1797Z" fill="#62A3FF" stroke="black" stroke-width="6" stroke-linecap="round" stroke-linejoin="round"/>
<path d="M85.7 60.6965L77.1433 76.2466H45.53L25.2266 41.0432L34.6066 24.6299H64.75L85.7 60.6965Z" fill="#FF81AF" stroke="black" stroke-width="6" stroke-linecap="round" stroke-linejoin="round"/>
<path d="M77.1433 76.2461L65.6133 97.1961H23.5L45.53 76.2461H77.1433Z" fill="#9AF3FF" stroke="black" stroke-width="6" stroke-linecap="round" stroke-linejoin="round"/>
</svg>
