<svg width="101" height="100" viewBox="0 0 101 100" fill="none" xmlns="http://www.w3.org/2000/svg">
<path d="M74.2433 12.9432C81.1121 19.4157 85.0011 28.4387 84.99 37.8766C84.99 46.2099 81.1033 53.1099 75.89 61.2799C71.65 67.9199 68.4633 74.1199 66.89 81.0766C66.4418 83.1318 64.6268 84.6004 62.5233 84.6099H38.8566C36.756 84.5983 34.9451 83.1296 34.5 81.0766C32.9366 74.1199 29.7466 67.9199 25.5 61.2799C20.3 53.1099 16.4166 46.1966 16.4166 37.8766C16.4157 25.1733 23.4378 13.5104 34.6653 7.56764C45.8928 1.62486 59.4857 2.3761 69.99 9.51992" fill="#FFC200" stroke="black" stroke-width="6" stroke-linecap="round" stroke-linejoin="round"/>
<path d="M54.4998 67.5C54.0731 74.8733 53.4866 84.626 53.4866 84.626" stroke="black" stroke-width="6" stroke-linecap="round" stroke-linejoin="round"/>
<path d="M47.9166 84.6099C47.9166 84.6099 47.1799 71.6099 46.4399 59.1933C45.6999 46.7766 41.7733 45.3666 39.4399 48.1599C38.2699 49.5566 38.5766 50.6733 39.1766 51.4399C39.7706 52.1985 40.6832 52.6382 41.6466 52.6299H59.7866C60.7498 52.6372 61.662 52.1977 62.2566 51.4399C62.8566 50.6733 63.1632 49.5566 61.9932 48.1599C59.6599 45.3666 55.7166 46.7633 54.9933 59.1933C54.7966 62.4999 54.5999 65.8599 54.4199 68.9799" stroke="black" stroke-width="6" stroke-linecap="round" stroke-linejoin="round"/>
<path d="M56.75 17.5C60.9771 18.8256 64.6934 21.4211 67.3933 24.9333" stroke="white" stroke-width="6" stroke-linecap="round" stroke-linejoin="round"/>
<path d="M37.7666 84.6104H63.6399V92.017C63.6408 93.204 63.1699 94.3427 62.3309 95.1823C61.4919 96.0219 60.3536 96.4937 59.1666 96.4937H42.2399C41.053 96.4937 39.9146 96.0219 39.0756 95.1823C38.2366 94.3427 37.7657 93.204 37.7666 92.017V84.6104Z" fill="white" stroke="black" stroke-width="6" stroke-linecap="round" stroke-linejoin="round"/>
<path d="M40.4715 27.5443C39.5285 27.7461 35.9406 28.8336 34.9127 33.7203C34.9068 33.7381 34.8907 33.75 34.8726 33.75C34.8546 33.75 34.8385 33.7381 34.8326 33.7203C33.8094 28.8336 30.2215 27.7461 29.2785 27.5443C29.2614 27.5381 29.25 27.5213 29.25 27.5025C29.25 27.4836 29.2614 27.4668 29.2785 27.4606C30.2215 27.2539 33.8094 26.1713 34.8326 21.2797C34.8385 21.2619 34.8546 21.25 34.8726 21.25C34.8907 21.25 34.9068 21.2619 34.9127 21.2797C35.9406 26.1713 39.5238 27.2539 40.4715 27.4606C40.4886 27.4668 40.5 27.4836 40.5 27.5025C40.5 27.5213 40.4886 27.5381 40.4715 27.5443V27.5443Z" fill="white"/>
<path d="M47.9692 35.6541C45.7347 36.1267 44.0278 37.835 43.6558 39.9709C43.6558 39.987 43.642 40 43.625 40C43.608 40 43.5942 39.987 43.5942 39.9709C43.2174 37.8372 41.5126 36.1311 39.2808 35.6541C39.2638 35.6541 39.25 35.6411 39.25 35.625C39.25 35.6089 39.2638 35.5959 39.2808 35.5959C40.0079 35.4561 42.7746 34.6987 43.5942 31.2791C43.5942 31.263 43.608 31.25 43.625 31.25C43.642 31.25 43.6558 31.263 43.6558 31.2791C44.4445 34.6987 47.2113 35.4561 47.9692 35.5959C47.9862 35.5959 48 35.6089 48 35.625C48 35.6411 47.9862 35.6541 47.9692 35.6541Z" fill="white"/>
</svg>
