<svg width="199" height="34" viewBox="0 0 199 34" fill="none" xmlns="http://www.w3.org/2000/svg">
<path d="M97.5673 33.885C95.6331 33.885 93.785 33.885 91.8432 33.885C91.8432 33.6658 91.8432 33.4688 91.8432 33.2719C91.8432 28.0362 91.8283 22.7969 91.8582 17.5612C91.8657 16.0303 90.8311 15.2314 89.3354 15.4877C87.3112 15.8296 85.4819 16.6991 83.6264 17.4869C83.4877 17.5463 83.3752 17.8362 83.3715 18.0183C83.349 19.2556 83.3602 20.4967 83.3602 21.7341C83.3602 25.5429 83.3602 29.3554 83.3602 33.1641C83.3602 33.3871 83.3602 33.6063 83.3602 33.8701C81.4484 33.8701 79.5892 33.8701 77.6886 33.8701C77.6774 33.6621 77.6624 33.48 77.6624 33.2979C77.6624 26.2229 77.6699 19.1442 77.6474 12.0692C77.6436 11.4895 77.8386 11.2777 78.3821 11.2145C80.024 11.0213 81.6659 10.802 83.364 10.5865C83.364 11.155 83.364 11.7087 83.364 12.3478C84.1137 12.0654 84.7847 11.7942 85.4669 11.5638C87.5849 10.8466 89.7253 10.1406 91.9819 10.1258C94.546 10.1072 96.6152 11.0696 97.3424 14.2058C97.4924 14.8523 97.5598 15.5361 97.5598 16.2012C97.5748 21.8493 97.5711 27.5012 97.5711 33.1493C97.5673 33.3797 97.5673 33.5989 97.5673 33.885Z" fill="white"/>
<path d="M70.6413 28.4672C70.9787 29.7789 71.3161 31.1092 71.6872 32.5621C70.6226 32.8557 69.5768 33.1938 68.5084 33.4316C65.7944 34.0448 63.028 34.1265 60.2915 33.7512C56.7529 33.2644 53.694 30.6262 53.1168 27.0069C53.0643 26.6762 53.083 26.3343 53.083 25.9962C53.083 23.5028 53.0605 21.0058 53.0943 18.5124C53.1243 16.517 53.6378 14.6554 54.9086 13.0538C56.2281 11.3854 57.9637 10.3672 60.0854 10.2223C61.9409 10.096 63.8264 10.07 65.6782 10.2335C67.9949 10.4378 69.708 11.6864 70.8513 13.7301C71.7097 15.2685 71.9721 16.9109 71.9833 18.6239C71.9908 19.8799 71.9946 21.1396 71.9796 22.3955C71.9758 22.9343 71.9309 23.4768 71.9009 24.0862C71.6647 24.0862 71.4623 24.0862 71.2599 24.0862C67.2864 24.0862 63.3091 24.0974 59.3356 24.0751C58.7696 24.0714 58.5484 24.2051 58.5972 24.7923C58.6534 25.4239 58.5522 26.0779 58.6497 26.7022C58.957 28.6382 59.9167 29.3999 61.9109 29.4668C64.8086 29.5634 67.6687 29.3776 70.4464 28.4747C70.4877 28.4561 70.5289 28.4672 70.6413 28.4672ZM62.6569 19.8204C62.6569 19.8241 62.6569 19.8241 62.6569 19.8278C63.5266 19.8278 64.3962 19.8278 65.2659 19.8278C66.6716 19.8278 66.6454 19.8278 66.6791 18.4344C66.7091 17.3345 66.4392 16.4315 65.577 15.6326C63.7477 13.9345 60.2278 14.4138 58.9908 16.6211C58.4585 17.5686 58.7434 18.5979 58.7734 19.5937C58.7771 19.6755 59.047 19.8093 59.197 19.813C60.3515 19.8316 61.5023 19.8204 62.6569 19.8204Z" fill="white"/>
<path d="M147.795 10.1218C147.795 18.1035 147.795 26.0146 147.795 33.9591C145.875 33.9591 143.99 33.9591 142.029 33.9591C142.029 33.2791 142.029 32.5954 142.029 31.8597C140.683 32.3167 139.439 32.7812 138.164 33.1602C136.538 33.6433 134.892 34.0557 133.168 33.9888C132.02 33.9443 130.926 33.7436 129.959 33.0599C128.838 32.2721 128.291 31.1425 128.024 29.8717C127.871 29.1434 127.8 28.389 127.796 27.6459C127.777 22.4474 127.796 17.2526 127.77 12.0541C127.766 11.4372 127.931 11.1994 128.572 11.0917C130.09 10.839 131.593 10.4785 133.104 10.1664C133.269 10.133 133.434 10.1218 133.685 10.0884C133.685 10.3708 133.685 10.6086 133.685 10.8464C133.685 15.9669 133.711 21.0911 133.674 26.2115C133.655 28.4671 134.922 28.8164 136.496 28.4002C138.269 27.9283 139.971 27.1888 141.692 26.5237C141.853 26.4605 141.992 26.1186 141.992 25.9031C142.01 21.3437 142.01 16.7844 142.01 12.225C142.01 12.0949 142.025 11.9612 142.007 11.8311C141.939 11.3481 142.127 11.1585 142.633 11.0694C144.226 10.787 145.804 10.4377 147.39 10.1181C147.506 10.0995 147.641 10.1218 147.795 10.1218Z" fill="white"/>
<path d="M173.446 33.9594C171.467 33.9594 169.559 33.9594 167.583 33.9594C167.572 33.7662 167.553 33.5655 167.553 33.3686C167.553 28.1329 167.535 22.8935 167.568 17.6579C167.58 15.9003 166.44 15.1868 165.019 15.6067C163.149 16.1567 161.327 16.8813 159.498 17.565C159.355 17.617 159.25 17.9514 159.246 18.1558C159.231 21.1025 159.235 24.0492 159.235 26.9959C159.235 29.099 159.235 31.2022 159.235 33.3017C159.235 33.5061 159.235 33.7067 159.235 33.9482C157.275 33.9482 155.378 33.9482 153.447 33.9482C153.447 26.3939 153.447 18.8544 153.447 11.2517C155.355 10.999 157.252 10.7464 159.209 10.4863C159.209 11.0771 159.209 11.5936 159.209 12.2141C159.715 12.0321 160.135 11.8537 160.57 11.7311C162.47 11.196 164.356 10.5977 166.283 10.1853C167.512 9.92144 168.809 9.95117 170.039 10.3748C172.153 11.1031 173.052 12.7418 173.322 14.8115C173.42 15.5696 173.439 16.3462 173.442 17.1116C173.454 22.4811 173.446 27.8468 173.446 33.2162C173.446 33.4429 173.446 33.6658 173.446 33.9594Z" fill="white"/>
<path d="M14.9974 6.74423C14.5926 6.74423 14.2927 6.74423 13.9965 6.74423C9.56573 6.74423 5.13491 6.7368 0.704098 6.75909C0.179297 6.76281 0.0181084 6.61789 0.0331027 6.09767C0.0668399 4.71165 0.0443484 3.32563 0.0443484 1.89502C7.26036 1.89502 14.4239 1.89502 21.6586 1.89502C21.6699 2.0771 21.6924 2.27775 21.6924 2.4747C21.6961 3.73066 21.6436 4.99034 21.7074 6.2463C21.7524 7.13811 21.1601 7.69549 20.7477 8.32719C19.5932 10.0885 18.3636 11.8015 17.1753 13.5406C15.4585 16.0488 13.7566 18.5681 12.0398 21.0763C10.3567 23.54 8.66607 25.9961 6.98671 28.4598C6.8705 28.6307 6.82177 28.8425 6.70557 29.1212C11.7511 29.1212 16.6843 29.1212 21.6549 29.1212C21.6549 30.7227 21.6549 32.2685 21.6549 33.8664C14.4726 33.8664 7.29409 33.8664 0.0443484 33.8664C0.0443484 32.8296 0.123069 31.7966 0.0256055 30.7822C-0.113092 29.3479 0.317994 28.1848 1.16517 27.0217C2.97948 24.5358 4.67009 21.9607 6.40568 19.4191C8.37743 16.5318 10.3417 13.6372 12.3134 10.7499C13.1419 9.53485 13.9853 8.32719 14.8175 7.11582C14.87 7.03778 14.8962 6.95232 14.9974 6.74423Z" fill="white"/>
<path d="M103.269 1.78369C109.908 1.78369 116.509 1.78369 123.17 1.78369C123.185 1.95462 123.211 2.1144 123.211 2.27419C123.215 3.66392 123.193 5.05366 123.223 6.43968C123.234 6.93389 123.091 7.0788 122.585 7.07509C118.402 7.05651 114.218 7.06394 110.035 7.06766C109.833 7.06766 109.626 7.06766 109.387 7.06766C109.387 9.97718 109.387 12.8384 109.387 15.7777C113.645 15.7777 117.888 15.7777 122.173 15.7777C122.173 17.513 122.173 19.1702 122.173 20.9093C117.907 20.9093 113.66 20.9093 109.357 20.9093C109.357 25.294 109.357 29.6007 109.357 33.952C107.302 33.952 105.308 33.952 103.273 33.952C103.269 23.2503 103.269 12.5486 103.269 1.78369Z" fill="white"/>
<path d="M199 0.00732422C199 11.363 199 22.6332 199 33.9481C197.058 33.9481 195.124 33.9481 193.126 33.9481C193.126 33.3164 193.126 32.707 193.126 32.0121C192.354 32.4283 191.675 32.8147 190.978 33.164C189.722 33.792 188.395 34.0781 186.982 33.9815C185.288 33.8626 183.657 33.5393 182.199 32.6104C180.148 31.3061 179.076 29.411 179.031 27.0291C178.964 23.5771 178.934 20.1213 179.035 16.673C179.144 13.0054 181.423 10.5009 184.935 10.0067C187.484 9.64629 190.022 9.92869 192.541 10.3857C192.706 10.4155 192.871 10.4378 193.119 10.4749C193.119 10.2111 193.119 9.99186 193.119 9.77263C193.119 7.01545 193.13 4.25456 193.1 1.49739C193.092 0.91028 193.193 0.665033 193.872 0.609295C195.563 0.475524 197.246 0.222845 199 0.00732422ZM193.152 21.2101C193.149 21.2101 193.149 21.2101 193.152 21.2101C193.149 19.4302 193.137 17.6466 193.16 15.8667C193.167 15.4319 193.047 15.2164 192.59 15.1644C191.124 15.0009 189.666 14.7928 188.2 14.6516C187.721 14.607 187.211 14.6553 186.738 14.7705C185.614 15.0492 184.894 15.9893 184.812 17.3939C184.714 19.0957 184.688 20.8013 184.68 22.5069C184.677 23.9301 184.662 25.3607 184.8 26.7727C184.962 28.3743 185.865 29.0877 187.481 29.1695C189.595 29.2735 191.319 28.352 192.927 27.1369C193.07 27.0291 193.137 26.7541 193.137 26.5535C193.156 24.7699 193.152 22.99 193.152 21.2101Z" fill="white"/>
<path d="M47.3402 33.8776C45.4022 33.8776 43.5392 33.8776 41.6424 33.8776C41.6274 33.6844 41.6087 33.5171 41.6087 33.3536C41.6124 28.0399 41.6049 22.73 41.6311 17.4163C41.6386 16.0154 40.9527 15.6178 39.517 15.5732C38.5198 15.5435 37.5377 15.733 36.6193 16.1752C35.6559 16.6359 34.685 17.0781 33.7029 17.498C33.3393 17.6541 33.2793 17.8882 33.2793 18.2412C33.2906 23.1982 33.2868 28.1514 33.2831 33.1084C33.2831 33.3499 33.2831 33.5877 33.2831 33.8664C31.3226 33.8664 29.422 33.8664 27.4728 33.8664C27.4728 22.8972 27.4728 11.9279 27.4728 0.836071C29.3546 0.568528 31.2701 0.293554 33.3056 0C33.3056 4.10604 33.3056 8.10059 33.3056 12.1955C34.3102 11.8388 35.1836 11.5118 36.0683 11.2182C38.1225 10.5345 40.1917 9.89536 42.4034 10.0774C45.1098 10.3004 47.0591 11.9911 47.239 14.7409C47.3327 16.1789 47.329 17.6244 47.3327 19.0661C47.344 23.7593 47.3365 28.4524 47.3365 33.1455C47.3402 33.3685 47.3402 33.5915 47.3402 33.8776Z" fill="white"/>
</svg>
